M48
; DRILL file {KiCad (6.0.2)} date Wed Aug 24 15:21:41 2022
; FORMAT={-:-/ absolute / inch / decimal}
; #@! TF.CreationDate,2022-08-24T15:21:41+12:00
; #@! TF.GenerationSoftware,Kicad,Pcbnew,(6.0.2)
; #@! TF.FileFunction,Plated,1,2,PTH
FMAT,2
INCH
; #@! TA.AperFunction,Plated,PTH,ViaDrill
T1C0.0118
; #@! TA.AperFunction,Plated,PTH,ViaDrill
T2C0.0157
; #@! TA.AperFunction,Plated,PTH,ComponentDrill
T3C0.0157
; #@! TA.AperFunction,Plated,PTH,ComponentDrill
T4C0.0394
; #@! TA.AperFunction,Plated,PTH,ComponentDrill
T5C0.0549
%
G90
G05
T1
X4.6457Y-3.2677
X4.6457Y-3.3465
X4.6457Y-3.5039
X4.6457Y-3.8189
X4.6457Y-3.8976
X4.6457Y-3.9764
X4.6457Y-4.0551
X4.685Y-3.3071
X4.685Y-3.3858
X4.685Y-3.7008
X4.685Y-4.0157
X4.7244Y-3.2677
X4.7244Y-3.3465
X4.7244Y-3.5039
X4.7244Y-3.8976
X4.7244Y-4.0551
X4.7638Y-3.3071
X4.7638Y-3.3858
X4.7638Y-3.7008
X4.7638Y-4.0157
X4.8031Y-3.2677
X4.8031Y-3.3465
X4.8031Y-3.5039
X4.8031Y-3.8976
X4.8031Y-4.0551
X4.8425Y-3.2283
X4.8425Y-3.3071
X4.8425Y-4.0157
X4.8819Y-3.189
X4.8819Y-3.2677
X4.8819Y-4.0551
X4.9213Y-2.9921
X4.9213Y-3.1496
X4.9213Y-3.2283
X4.9213Y-3.3071
X4.9213Y-3.4646
X4.9213Y-3.5433
X4.9213Y-3.8583
X4.9213Y-3.937
X4.9213Y-4.0157
X4.9606Y-3.189
X4.9606Y-3.2677
X4.9606Y-3.3465
X4.9606Y-3.5039
X4.9606Y-3.8976
X4.9606Y-3.9764
X4.9606Y-4.0551
X5.0Y-2.9921
X5.0Y-3.1496
X5.0Y-3.2283
X5.0Y-3.3071
X5.0Y-3.4646
X5.0Y-3.937
X5.0Y-4.0157
X5.0394Y-3.189
X5.0394Y-3.2677
X5.0394Y-3.5039
X5.0394Y-3.9764
X5.0394Y-4.0551
X5.0787Y-2.9921
X5.0787Y-3.5433
X5.0787Y-3.6614
X5.0787Y-4.0157
X5.1181Y-3.7008
X5.1181Y-4.0551
X5.1339Y-3.8976
X5.1575Y-2.9921
X5.1575Y-3.1496
X5.1575Y-3.937
X5.1969Y-3.8976
X5.2264Y-3.6614
X5.2362Y-2.9921
X5.2362Y-3.1496
X5.2659Y-3.8171
X5.2677Y-3.5455
X5.2756Y-3.4646
X5.315Y-2.9921
X5.315Y-3.0709
X5.4331Y-4.0157
X5.5118Y-4.0157
X5.5906Y-4.0157
X5.6693Y-4.0157
X5.748Y-4.0157
X5.8268Y-4.0157
X5.9055Y-4.0157
X5.9843Y-4.0157
X6.0236Y-3.9764
X6.063Y-3.7008
X6.063Y-3.7795
X6.063Y-4.0157
X6.1024Y-3.9764
X6.1417Y-4.0157
X6.1811Y-3.9764
X6.2205Y-4.0157
X6.2598Y-3.9764
X6.3386Y-4.0551
X6.378Y-3.4449
X6.378Y-3.4941
X6.378Y-4.0157
X6.4173Y-3.8189
X6.4173Y-3.8976
X6.4173Y-3.9764
X6.4173Y-4.0551
X6.4961Y-3.7402
X6.5354Y-3.7795
T2
X5.7677Y-3.2677
X5.7677Y-3.3071
X5.8268Y-3.2677
X5.8268Y-3.3071
X5.8465Y-3.6811
X5.9449Y-3.6811
X6.2205Y-3.2087
X6.437Y-3.4449
X6.437Y-3.5039
X6.4961Y-3.4449
X6.4961Y-3.5039
T3
X5.4063Y-3.6709
X5.4063Y-3.722
X5.4457Y-3.6453
X5.4457Y-3.6965
X5.4457Y-3.7476
T4
X4.8622Y-3.4484
X4.8622Y-3.5484
X4.8622Y-3.6484
X4.8622Y-3.7484
X4.8622Y-3.8484
X4.8622Y-3.9484
X5.5732Y-3.4213
X5.6732Y-3.4213
X6.4852Y-3.1604
X6.4852Y-3.2604
X6.4852Y-3.3604
X6.5852Y-3.1604
X6.5852Y-3.2604
X6.5852Y-3.3604
T5
X5.437Y-3.5557
X5.437Y-3.8372
T0
M30
