%TF.GenerationSoftware,KiCad,Pcbnew,(6.0.2)*%
%TF.CreationDate,2022-08-24T15:21:41+12:00*%
%TF.ProjectId,Disco3_FBH,44697363-6f33-45f4-9642-482e6b696361,rev?*%
%TF.SameCoordinates,Original*%
%TF.FileFunction,Soldermask,Top*%
%TF.FilePolarity,Negative*%
%FSLAX46Y46*%
G04 Gerber Fmt 4.6, Leading zero omitted, Abs format (unit mm)*
G04 Created by KiCad (PCBNEW (6.0.2)) date 2022-08-24 15:21:41*
%MOMM*%
%LPD*%
G01*
G04 APERTURE LIST*
G04 Aperture macros list*
%AMRoundRect*
0 Rectangle with rounded corners*
0 $1 Rounding radius*
0 $2 $3 $4 $5 $6 $7 $8 $9 X,Y pos of 4 corners*
0 Add a 4 corners polygon primitive as box body*
4,1,4,$2,$3,$4,$5,$6,$7,$8,$9,$2,$3,0*
0 Add four circle primitives for the rounded corners*
1,1,$1+$1,$2,$3*
1,1,$1+$1,$4,$5*
1,1,$1+$1,$6,$7*
1,1,$1+$1,$8,$9*
0 Add four rect primitives between the rounded corners*
20,1,$1+$1,$2,$3,$4,$5,0*
20,1,$1+$1,$4,$5,$6,$7,0*
20,1,$1+$1,$6,$7,$8,$9,0*
20,1,$1+$1,$8,$9,$2,$3,0*%
G04 Aperture macros list end*
%ADD10C,2.500000*%
%ADD11RoundRect,0.250000X-0.450000X0.350000X-0.450000X-0.350000X0.450000X-0.350000X0.450000X0.350000X0*%
%ADD12R,1.550000X0.650000*%
%ADD13R,2.000000X1.500000*%
%ADD14R,2.000000X3.800000*%
%ADD15R,1.000000X1.000000*%
%ADD16RoundRect,0.250000X-0.475000X0.337500X-0.475000X-0.337500X0.475000X-0.337500X0.475000X0.337500X0*%
%ADD17R,0.800000X0.800000*%
%ADD18C,0.800000*%
%ADD19C,2.200000*%
%ADD20R,1.500000X0.650000*%
%ADD21RoundRect,0.250000X0.450000X-0.350000X0.450000X0.350000X-0.450000X0.350000X-0.450000X-0.350000X0*%
%ADD22RoundRect,0.250000X0.350000X0.450000X-0.350000X0.450000X-0.350000X-0.450000X0.350000X-0.450000X0*%
%ADD23RoundRect,0.250000X0.337500X0.475000X-0.337500X0.475000X-0.337500X-0.475000X0.337500X-0.475000X0*%
%ADD24RoundRect,0.250000X0.450000X-0.325000X0.450000X0.325000X-0.450000X0.325000X-0.450000X-0.325000X0*%
%ADD25R,1.700000X1.700000*%
%ADD26O,1.700000X1.700000*%
%ADD27RoundRect,0.150000X-0.825000X-0.150000X0.825000X-0.150000X0.825000X0.150000X-0.825000X0.150000X0*%
%ADD28RoundRect,0.250000X0.475000X-0.337500X0.475000X0.337500X-0.475000X0.337500X-0.475000X-0.337500X0*%
%ADD29RoundRect,0.250000X-0.350000X-0.450000X0.350000X-0.450000X0.350000X0.450000X-0.350000X0.450000X0*%
%ADD30C,0.900000*%
%ADD31C,0.600000*%
G04 APERTURE END LIST*
D10*
%TO.C,REF\u002A\u002A*%
X133700000Y-101250000D03*
%TD*%
%TO.C,REF\u002A\u002A*%
X153700000Y-77750000D03*
%TD*%
D11*
%TO.C,R6*%
X152645000Y-97525000D03*
X152645000Y-99525000D03*
%TD*%
D12*
%TO.C,U3*%
X163025000Y-91595000D03*
X163025000Y-92865000D03*
X163025000Y-94135000D03*
X163025000Y-95405000D03*
X168475000Y-95405000D03*
X168475000Y-94135000D03*
X168475000Y-92865000D03*
X168475000Y-91595000D03*
%TD*%
D13*
%TO.C,U1*%
X137530000Y-79190000D03*
D14*
X143830000Y-81490000D03*
D13*
X137530000Y-81490000D03*
X137530000Y-83790000D03*
%TD*%
D15*
%TO.C,D2*%
X130195000Y-88500000D03*
X132695000Y-88500000D03*
%TD*%
D16*
%TO.C,C6*%
X149595000Y-89677500D03*
X149595000Y-91752500D03*
%TD*%
D15*
%TO.C,D6*%
X157725000Y-97275000D03*
X157725000Y-99775000D03*
%TD*%
D16*
%TO.C,C4*%
X150210000Y-81462500D03*
X150210000Y-83537500D03*
%TD*%
D15*
%TO.C,D1*%
X132080000Y-84435000D03*
X132080000Y-81935000D03*
%TD*%
D17*
%TO.C,J3*%
X138320000Y-92590000D03*
D18*
X137320000Y-93240000D03*
X138320000Y-93890000D03*
X137320000Y-94540000D03*
X138320000Y-95190000D03*
D19*
X138100000Y-90315000D03*
X138100000Y-97465000D03*
%TD*%
D20*
%TO.C,U2*%
X155050000Y-81190000D03*
X155050000Y-82460000D03*
X155050000Y-83730000D03*
X155050000Y-85000000D03*
X155050000Y-86270000D03*
X155050000Y-87540000D03*
X155050000Y-88810000D03*
X160450000Y-88810000D03*
X160450000Y-87540000D03*
X160450000Y-86270000D03*
X160450000Y-85000000D03*
X160450000Y-83730000D03*
X160450000Y-82460000D03*
X160450000Y-81190000D03*
%TD*%
D21*
%TO.C,R5*%
X160265000Y-93810000D03*
X160265000Y-91810000D03*
%TD*%
D22*
%TO.C,R4*%
X132445000Y-95250000D03*
X130445000Y-95250000D03*
%TD*%
D23*
%TO.C,C5*%
X168437500Y-89900000D03*
X166362500Y-89900000D03*
%TD*%
D24*
%TO.C,F1*%
X129540000Y-84210000D03*
X129540000Y-82160000D03*
%TD*%
D25*
%TO.C,J2*%
X123500000Y-87590000D03*
D26*
X123500000Y-90130000D03*
X123500000Y-92670000D03*
X123500000Y-95210000D03*
X123500000Y-97750000D03*
X123500000Y-100290000D03*
%TD*%
D15*
%TO.C,D5*%
X155185000Y-91560000D03*
X155185000Y-94060000D03*
%TD*%
D24*
%TO.C,D7*%
X155185000Y-99550000D03*
X155185000Y-97500000D03*
%TD*%
D16*
%TO.C,C2*%
X146685000Y-78972500D03*
X146685000Y-81047500D03*
%TD*%
D15*
%TO.C,D4*%
X157725000Y-94060000D03*
X157725000Y-91560000D03*
%TD*%
D16*
%TO.C,C3*%
X152750000Y-81462500D03*
X152750000Y-83537500D03*
%TD*%
D25*
%TO.C,J1*%
X164725000Y-80275000D03*
D26*
X167265000Y-80275000D03*
X164725000Y-82815000D03*
X167265000Y-82815000D03*
X164725000Y-85355000D03*
X167265000Y-85355000D03*
%TD*%
D22*
%TO.C,R3*%
X132445000Y-91675000D03*
X130445000Y-91675000D03*
%TD*%
D27*
%TO.C,U4*%
X141670000Y-89535000D03*
X141670000Y-90805000D03*
X141670000Y-92075000D03*
X141670000Y-93345000D03*
X141670000Y-94615000D03*
X141670000Y-95885000D03*
X141670000Y-97155000D03*
X141670000Y-98425000D03*
X146620000Y-98425000D03*
X146620000Y-97155000D03*
X146620000Y-95885000D03*
X146620000Y-94615000D03*
X146620000Y-93345000D03*
X146620000Y-92075000D03*
X146620000Y-90805000D03*
X146620000Y-89535000D03*
%TD*%
D16*
%TO.C,C8*%
X160265000Y-97487500D03*
X160265000Y-99562500D03*
%TD*%
D28*
%TO.C,C1*%
X134620000Y-84222500D03*
X134620000Y-82147500D03*
%TD*%
D29*
%TO.C,R2*%
X126000000Y-95250000D03*
X128000000Y-95250000D03*
%TD*%
D28*
%TO.C,C7*%
X149595000Y-98102500D03*
X149595000Y-96027500D03*
%TD*%
D15*
%TO.C,D3*%
X130350000Y-97400000D03*
X127850000Y-97400000D03*
%TD*%
D29*
%TO.C,R1*%
X126000000Y-91675000D03*
X128000000Y-91675000D03*
%TD*%
D25*
%TO.C,JP1*%
X141560000Y-86900000D03*
D26*
X144100000Y-86900000D03*
%TD*%
D30*
X163500000Y-89000000D03*
D31*
X122000000Y-103000000D03*
X121000000Y-86000000D03*
X128000000Y-89000000D03*
X129000000Y-76000000D03*
X119000000Y-94000000D03*
D30*
X146500000Y-83000000D03*
D31*
X121000000Y-84000000D03*
X126000000Y-99000000D03*
X120000000Y-89000000D03*
X135000000Y-78000000D03*
X154000000Y-102000000D03*
X125000000Y-98000000D03*
X118000000Y-103000000D03*
X122000000Y-83000000D03*
X144000000Y-102000000D03*
X154000000Y-94000000D03*
X121000000Y-102000000D03*
X157000000Y-101000000D03*
X148000000Y-102000000D03*
X163000000Y-101000000D03*
X130400000Y-99000000D03*
X132750000Y-93000000D03*
X123000000Y-82000000D03*
X119000000Y-86000000D03*
X129000000Y-102000000D03*
X128000000Y-83000000D03*
X131000000Y-76000000D03*
D30*
X148000000Y-83000000D03*
D31*
X135000000Y-76000000D03*
X158000000Y-102000000D03*
X122000000Y-99000000D03*
X130000000Y-94000000D03*
X125000000Y-90000000D03*
X125000000Y-80000000D03*
D30*
X151000000Y-93500000D03*
D31*
X118000000Y-89000000D03*
X134000000Y-88000000D03*
D30*
X158000000Y-81500000D03*
D31*
X150000000Y-102000000D03*
X122000000Y-89000000D03*
X155000000Y-101000000D03*
X118000000Y-97000000D03*
X124000000Y-81000000D03*
X163000000Y-99000000D03*
X118000000Y-83000000D03*
D30*
X165000000Y-87500000D03*
D31*
X133000000Y-80000000D03*
X118000000Y-101000000D03*
X118000000Y-85000000D03*
X127000000Y-82000000D03*
X123000000Y-102000000D03*
X163000000Y-97000000D03*
X128000000Y-101000000D03*
X163000000Y-103000000D03*
X130000000Y-103000000D03*
D30*
X148500000Y-93500000D03*
D31*
X131000000Y-80000000D03*
D30*
X163500000Y-87500000D03*
D31*
X127000000Y-102000000D03*
X154000000Y-96000000D03*
D30*
X146500000Y-84000000D03*
D31*
X159000000Y-101000000D03*
X124000000Y-83000000D03*
X120000000Y-103000000D03*
X127000000Y-100000000D03*
X126000000Y-85000000D03*
X128000000Y-81000000D03*
X119000000Y-84000000D03*
X162000000Y-102000000D03*
X129000000Y-93000000D03*
X126000000Y-83000000D03*
X124000000Y-103000000D03*
X126000000Y-89000000D03*
X122000000Y-85000000D03*
X125000000Y-84000000D03*
X161000000Y-103000000D03*
X126000000Y-103000000D03*
X126000000Y-101000000D03*
X120000000Y-85000000D03*
X156000000Y-102000000D03*
X126000000Y-81000000D03*
X121000000Y-94000000D03*
X133000000Y-76000000D03*
X131000000Y-100000000D03*
X142000000Y-102000000D03*
X166000000Y-96000000D03*
X152000000Y-102000000D03*
X165000000Y-95000000D03*
X123000000Y-84000000D03*
X118000000Y-99000000D03*
X120000000Y-83000000D03*
D30*
X148000000Y-84000000D03*
D31*
X119000000Y-102000000D03*
X127000000Y-80000000D03*
X140000000Y-102000000D03*
X127000000Y-84000000D03*
X125000000Y-76000000D03*
X146000000Y-102000000D03*
X132000000Y-99000000D03*
X125000000Y-88000000D03*
X120000000Y-99000000D03*
X125000000Y-82000000D03*
X127000000Y-76000000D03*
X153000000Y-101000000D03*
X129000000Y-90000000D03*
X138000000Y-102000000D03*
X125000000Y-102000000D03*
D30*
X165000000Y-89000000D03*
D31*
X127000000Y-88000000D03*
X125000000Y-100000000D03*
X128000000Y-103000000D03*
X133800000Y-90055000D03*
X162000000Y-87500000D03*
X162000000Y-88750000D03*
X133755000Y-96955000D03*
G36*
X146572212Y-83440990D02*
G01*
X146572738Y-83442919D01*
X146572028Y-83443991D01*
X146537624Y-83470627D01*
X146532038Y-83514539D01*
X146559326Y-83549784D01*
X146567073Y-83553104D01*
X146568271Y-83554705D01*
X146567483Y-83556543D01*
X146566273Y-83556942D01*
X146439202Y-83556165D01*
X146428052Y-83559352D01*
X146426111Y-83558867D01*
X146425562Y-83556944D01*
X146426258Y-83555863D01*
X146460333Y-83528808D01*
X146465382Y-83484833D01*
X146437656Y-83449913D01*
X146428701Y-83446075D01*
X146427503Y-83444474D01*
X146428291Y-83442636D01*
X146429526Y-83442237D01*
X146555371Y-83444544D01*
X146570278Y-83440480D01*
X146572212Y-83440990D01*
G37*
G36*
X148072212Y-83440990D02*
G01*
X148072738Y-83442919D01*
X148072028Y-83443991D01*
X148037624Y-83470627D01*
X148032038Y-83514539D01*
X148059326Y-83549784D01*
X148067073Y-83553104D01*
X148068271Y-83554705D01*
X148067483Y-83556543D01*
X148066273Y-83556942D01*
X147939202Y-83556165D01*
X147928052Y-83559352D01*
X147926111Y-83558867D01*
X147925562Y-83556944D01*
X147926258Y-83555863D01*
X147960333Y-83528808D01*
X147965382Y-83484833D01*
X147937656Y-83449913D01*
X147928701Y-83446075D01*
X147927503Y-83444474D01*
X147928291Y-83442636D01*
X147929526Y-83442237D01*
X148055371Y-83444544D01*
X148070278Y-83440480D01*
X148072212Y-83440990D01*
G37*
M02*
