%TF.GenerationSoftware,KiCad,Pcbnew,(6.0.2)*%
%TF.CreationDate,2022-08-24T15:21:41+12:00*%
%TF.ProjectId,Disco3_FBH,44697363-6f33-45f4-9642-482e6b696361,rev?*%
%TF.SameCoordinates,Original*%
%TF.FileFunction,Paste,Top*%
%TF.FilePolarity,Positive*%
%FSLAX46Y46*%
G04 Gerber Fmt 4.6, Leading zero omitted, Abs format (unit mm)*
G04 Created by KiCad (PCBNEW (6.0.2)) date 2022-08-24 15:21:41*
%MOMM*%
%LPD*%
G01*
G04 APERTURE LIST*
G04 Aperture macros list*
%AMRoundRect*
0 Rectangle with rounded corners*
0 $1 Rounding radius*
0 $2 $3 $4 $5 $6 $7 $8 $9 X,Y pos of 4 corners*
0 Add a 4 corners polygon primitive as box body*
4,1,4,$2,$3,$4,$5,$6,$7,$8,$9,$2,$3,0*
0 Add four circle primitives for the rounded corners*
1,1,$1+$1,$2,$3*
1,1,$1+$1,$4,$5*
1,1,$1+$1,$6,$7*
1,1,$1+$1,$8,$9*
0 Add four rect primitives between the rounded corners*
20,1,$1+$1,$2,$3,$4,$5,0*
20,1,$1+$1,$4,$5,$6,$7,0*
20,1,$1+$1,$6,$7,$8,$9,0*
20,1,$1+$1,$8,$9,$2,$3,0*%
G04 Aperture macros list end*
%ADD10RoundRect,0.250000X-0.450000X0.350000X-0.450000X-0.350000X0.450000X-0.350000X0.450000X0.350000X0*%
%ADD11R,1.550000X0.650000*%
%ADD12R,2.000000X1.500000*%
%ADD13R,2.000000X3.800000*%
%ADD14R,1.000000X1.000000*%
%ADD15RoundRect,0.250000X-0.475000X0.337500X-0.475000X-0.337500X0.475000X-0.337500X0.475000X0.337500X0*%
%ADD16R,1.500000X0.650000*%
%ADD17RoundRect,0.250000X0.450000X-0.350000X0.450000X0.350000X-0.450000X0.350000X-0.450000X-0.350000X0*%
%ADD18RoundRect,0.250000X0.350000X0.450000X-0.350000X0.450000X-0.350000X-0.450000X0.350000X-0.450000X0*%
%ADD19RoundRect,0.250000X0.337500X0.475000X-0.337500X0.475000X-0.337500X-0.475000X0.337500X-0.475000X0*%
%ADD20RoundRect,0.250000X0.450000X-0.325000X0.450000X0.325000X-0.450000X0.325000X-0.450000X-0.325000X0*%
%ADD21RoundRect,0.150000X-0.825000X-0.150000X0.825000X-0.150000X0.825000X0.150000X-0.825000X0.150000X0*%
%ADD22RoundRect,0.250000X0.475000X-0.337500X0.475000X0.337500X-0.475000X0.337500X-0.475000X-0.337500X0*%
%ADD23RoundRect,0.250000X-0.350000X-0.450000X0.350000X-0.450000X0.350000X0.450000X-0.350000X0.450000X0*%
G04 APERTURE END LIST*
D10*
%TO.C,R6*%
X152645000Y-97525000D03*
X152645000Y-99525000D03*
%TD*%
D11*
%TO.C,U3*%
X163025000Y-91595000D03*
X163025000Y-92865000D03*
X163025000Y-94135000D03*
X163025000Y-95405000D03*
X168475000Y-95405000D03*
X168475000Y-94135000D03*
X168475000Y-92865000D03*
X168475000Y-91595000D03*
%TD*%
D12*
%TO.C,U1*%
X137530000Y-79190000D03*
D13*
X143830000Y-81490000D03*
D12*
X137530000Y-81490000D03*
X137530000Y-83790000D03*
%TD*%
D14*
%TO.C,D2*%
X130195000Y-88500000D03*
X132695000Y-88500000D03*
%TD*%
D15*
%TO.C,C6*%
X149595000Y-89677500D03*
X149595000Y-91752500D03*
%TD*%
D14*
%TO.C,D6*%
X157725000Y-97275000D03*
X157725000Y-99775000D03*
%TD*%
D15*
%TO.C,C4*%
X150210000Y-81462500D03*
X150210000Y-83537500D03*
%TD*%
D14*
%TO.C,D1*%
X132080000Y-84435000D03*
X132080000Y-81935000D03*
%TD*%
D16*
%TO.C,U2*%
X155050000Y-81190000D03*
X155050000Y-82460000D03*
X155050000Y-83730000D03*
X155050000Y-85000000D03*
X155050000Y-86270000D03*
X155050000Y-87540000D03*
X155050000Y-88810000D03*
X160450000Y-88810000D03*
X160450000Y-87540000D03*
X160450000Y-86270000D03*
X160450000Y-85000000D03*
X160450000Y-83730000D03*
X160450000Y-82460000D03*
X160450000Y-81190000D03*
%TD*%
D17*
%TO.C,R5*%
X160265000Y-93810000D03*
X160265000Y-91810000D03*
%TD*%
D18*
%TO.C,R4*%
X132445000Y-95250000D03*
X130445000Y-95250000D03*
%TD*%
D19*
%TO.C,C5*%
X168437500Y-89900000D03*
X166362500Y-89900000D03*
%TD*%
D20*
%TO.C,F1*%
X129540000Y-84210000D03*
X129540000Y-82160000D03*
%TD*%
D14*
%TO.C,D5*%
X155185000Y-91560000D03*
X155185000Y-94060000D03*
%TD*%
D20*
%TO.C,D7*%
X155185000Y-99550000D03*
X155185000Y-97500000D03*
%TD*%
D15*
%TO.C,C2*%
X146685000Y-78972500D03*
X146685000Y-81047500D03*
%TD*%
D14*
%TO.C,D4*%
X157725000Y-94060000D03*
X157725000Y-91560000D03*
%TD*%
D15*
%TO.C,C3*%
X152750000Y-81462500D03*
X152750000Y-83537500D03*
%TD*%
D18*
%TO.C,R3*%
X132445000Y-91675000D03*
X130445000Y-91675000D03*
%TD*%
D21*
%TO.C,U4*%
X141670000Y-89535000D03*
X141670000Y-90805000D03*
X141670000Y-92075000D03*
X141670000Y-93345000D03*
X141670000Y-94615000D03*
X141670000Y-95885000D03*
X141670000Y-97155000D03*
X141670000Y-98425000D03*
X146620000Y-98425000D03*
X146620000Y-97155000D03*
X146620000Y-95885000D03*
X146620000Y-94615000D03*
X146620000Y-93345000D03*
X146620000Y-92075000D03*
X146620000Y-90805000D03*
X146620000Y-89535000D03*
%TD*%
D15*
%TO.C,C8*%
X160265000Y-97487500D03*
X160265000Y-99562500D03*
%TD*%
D22*
%TO.C,C1*%
X134620000Y-84222500D03*
X134620000Y-82147500D03*
%TD*%
D23*
%TO.C,R2*%
X126000000Y-95250000D03*
X128000000Y-95250000D03*
%TD*%
D22*
%TO.C,C7*%
X149595000Y-98102500D03*
X149595000Y-96027500D03*
%TD*%
D14*
%TO.C,D3*%
X130350000Y-97400000D03*
X127850000Y-97400000D03*
%TD*%
D23*
%TO.C,R1*%
X126000000Y-91675000D03*
X128000000Y-91675000D03*
%TD*%
M02*
