%TF.GenerationSoftware,KiCad,Pcbnew,(6.0.2)*%
%TF.CreationDate,2022-08-24T15:21:41+12:00*%
%TF.ProjectId,Disco3_FBH,44697363-6f33-45f4-9642-482e6b696361,rev?*%
%TF.SameCoordinates,Original*%
%TF.FileFunction,Copper,L2,Bot*%
%TF.FilePolarity,Positive*%
%FSLAX46Y46*%
G04 Gerber Fmt 4.6, Leading zero omitted, Abs format (unit mm)*
G04 Created by KiCad (PCBNEW (6.0.2)) date 2022-08-24 15:21:41*
%MOMM*%
%LPD*%
G01*
G04 APERTURE LIST*
%TA.AperFunction,ComponentPad*%
%ADD10R,0.800000X0.800000*%
%TD*%
%TA.AperFunction,ComponentPad*%
%ADD11C,0.800000*%
%TD*%
%TA.AperFunction,ComponentPad*%
%ADD12C,2.200000*%
%TD*%
%TA.AperFunction,ComponentPad*%
%ADD13R,1.700000X1.700000*%
%TD*%
%TA.AperFunction,ComponentPad*%
%ADD14O,1.700000X1.700000*%
%TD*%
%TA.AperFunction,ViaPad*%
%ADD15C,0.900000*%
%TD*%
%TA.AperFunction,ViaPad*%
%ADD16C,0.600000*%
%TD*%
%TA.AperFunction,Conductor*%
%ADD17C,0.400000*%
%TD*%
G04 APERTURE END LIST*
D10*
%TO.P,J3,1,VCC*%
%TO.N,Net-(J3-Pad1)*%
X138320000Y-92590000D03*
D11*
%TO.P,J3,2,D-*%
%TO.N,USB_D-*%
X137320000Y-93240000D03*
%TO.P,J3,3,D+*%
%TO.N,USB_D+*%
X138320000Y-93890000D03*
%TO.P,J3,4,ID*%
%TO.N,unconnected-(J3-Pad4)*%
X137320000Y-94540000D03*
%TO.P,J3,5,GND*%
%TO.N,GND*%
X138320000Y-95190000D03*
D12*
%TO.P,J3,6,Shield1*%
X138100000Y-90315000D03*
%TO.P,J3,7,Shield2*%
X138100000Y-97465000D03*
%TD*%
D13*
%TO.P,J2,1,Pin_1*%
%TO.N,+BATT*%
X123500000Y-87590000D03*
D14*
%TO.P,J2,2,Pin_2*%
%TO.N,LOW_BEAM*%
X123500000Y-90130000D03*
%TO.P,J2,3,Pin_3*%
%TO.N,IGNITION*%
X123500000Y-92670000D03*
%TO.P,J2,4,Pin_4*%
%TO.N,WLINE*%
X123500000Y-95210000D03*
%TO.P,J2,5,Pin_5*%
%TO.N,GND*%
X123500000Y-97750000D03*
%TO.P,J2,6,Pin_6*%
X123500000Y-100290000D03*
%TD*%
D13*
%TO.P,J1,1,DATA*%
%TO.N,UPDI_DATA*%
X164725000Y-80275000D03*
D14*
%TO.P,J1,2,VCC*%
%TO.N,+5V*%
X167265000Y-80275000D03*
%TO.P,J1,3,NC*%
%TO.N,unconnected-(J1-Pad3)*%
X164725000Y-82815000D03*
%TO.P,J1,4,NC*%
%TO.N,unconnected-(J1-Pad4)*%
X167265000Y-82815000D03*
%TO.P,J1,5,NC*%
%TO.N,unconnected-(J1-Pad5)*%
X164725000Y-85355000D03*
%TO.P,J1,6,GND*%
%TO.N,GND*%
X167265000Y-85355000D03*
%TD*%
D13*
%TO.P,JP1,1,A*%
%TO.N,Net-(J3-Pad1)*%
X141560000Y-86900000D03*
D14*
%TO.P,JP1,2,B*%
%TO.N,+5V*%
X144100000Y-86900000D03*
%TD*%
D15*
%TO.N,GND*%
X163500000Y-89000000D03*
D16*
X122000000Y-103000000D03*
X121000000Y-86000000D03*
X128000000Y-89000000D03*
X129000000Y-76000000D03*
X119000000Y-94000000D03*
D15*
X146500000Y-83000000D03*
D16*
X121000000Y-84000000D03*
X126000000Y-99000000D03*
X120000000Y-89000000D03*
X135000000Y-78000000D03*
X154000000Y-102000000D03*
X125000000Y-98000000D03*
X118000000Y-103000000D03*
X122000000Y-83000000D03*
X144000000Y-102000000D03*
X154000000Y-94000000D03*
X121000000Y-102000000D03*
X157000000Y-101000000D03*
X148000000Y-102000000D03*
X163000000Y-101000000D03*
X130400000Y-99000000D03*
X132750000Y-93000000D03*
X123000000Y-82000000D03*
X119000000Y-86000000D03*
X129000000Y-102000000D03*
X128000000Y-83000000D03*
X131000000Y-76000000D03*
D15*
X148000000Y-83000000D03*
D16*
X135000000Y-76000000D03*
X158000000Y-102000000D03*
X122000000Y-99000000D03*
X130000000Y-94000000D03*
X125000000Y-90000000D03*
X125000000Y-80000000D03*
D15*
X151000000Y-93500000D03*
D16*
X118000000Y-89000000D03*
X134000000Y-88000000D03*
D15*
X158000000Y-81500000D03*
D16*
X150000000Y-102000000D03*
X122000000Y-89000000D03*
X155000000Y-101000000D03*
X118000000Y-97000000D03*
X124000000Y-81000000D03*
X163000000Y-99000000D03*
X118000000Y-83000000D03*
D15*
X165000000Y-87500000D03*
D16*
X133000000Y-80000000D03*
X118000000Y-101000000D03*
X118000000Y-85000000D03*
X127000000Y-82000000D03*
X123000000Y-102000000D03*
X163000000Y-97000000D03*
X128000000Y-101000000D03*
X163000000Y-103000000D03*
X130000000Y-103000000D03*
D15*
X148500000Y-93500000D03*
D16*
X131000000Y-80000000D03*
D15*
X163500000Y-87500000D03*
D16*
X127000000Y-102000000D03*
X154000000Y-96000000D03*
D15*
X146500000Y-84000000D03*
D16*
X159000000Y-101000000D03*
X124000000Y-83000000D03*
X120000000Y-103000000D03*
X127000000Y-100000000D03*
X126000000Y-85000000D03*
X128000000Y-81000000D03*
X119000000Y-84000000D03*
X162000000Y-102000000D03*
X129000000Y-93000000D03*
X126000000Y-83000000D03*
X124000000Y-103000000D03*
X126000000Y-89000000D03*
X122000000Y-85000000D03*
X125000000Y-84000000D03*
X161000000Y-103000000D03*
X126000000Y-103000000D03*
X126000000Y-101000000D03*
X120000000Y-85000000D03*
X156000000Y-102000000D03*
X126000000Y-81000000D03*
X121000000Y-94000000D03*
X133000000Y-76000000D03*
X131000000Y-100000000D03*
X142000000Y-102000000D03*
X166000000Y-96000000D03*
X152000000Y-102000000D03*
X165000000Y-95000000D03*
X123000000Y-84000000D03*
X118000000Y-99000000D03*
X120000000Y-83000000D03*
D15*
X148000000Y-84000000D03*
D16*
X119000000Y-102000000D03*
X127000000Y-80000000D03*
X140000000Y-102000000D03*
X127000000Y-84000000D03*
X125000000Y-76000000D03*
X146000000Y-102000000D03*
X132000000Y-99000000D03*
X125000000Y-88000000D03*
X120000000Y-99000000D03*
X125000000Y-82000000D03*
X127000000Y-76000000D03*
X153000000Y-101000000D03*
X129000000Y-90000000D03*
X138000000Y-102000000D03*
X125000000Y-102000000D03*
D15*
X165000000Y-89000000D03*
D16*
X127000000Y-88000000D03*
X125000000Y-100000000D03*
X128000000Y-103000000D03*
%TO.N,LOW_BEAM_5V*%
X133800000Y-90055000D03*
X162000000Y-87500000D03*
%TO.N,IGNITION_5V*%
X162000000Y-88750000D03*
X133755000Y-96955000D03*
%TD*%
D17*
%TO.N,LOW_BEAM_5V*%
X162000000Y-87500000D02*
X157093792Y-82593792D01*
X141261207Y-82593792D02*
X133800000Y-90055000D01*
X153246036Y-81000000D02*
X145108963Y-81000000D01*
X145108963Y-81000000D02*
G75*
G03*
X141261207Y-82593792I-1J-5441547D01*
G01*
X153246036Y-81000000D02*
G75*
G02*
X157093792Y-82593792I-1J-5441552D01*
G01*
%TO.N,IGNITION_5V*%
X141879687Y-83620312D02*
X135348792Y-90151207D01*
X133755000Y-96955000D02*
X133755000Y-93998963D01*
X145727443Y-82026520D02*
X153022556Y-82026520D01*
X156870312Y-83620312D02*
X162000000Y-88750000D01*
X141879687Y-83620312D02*
G75*
G02*
X145727443Y-82026520I3847755J-3847755D01*
G01*
X153022556Y-82026520D02*
G75*
G02*
X156870312Y-83620312I-1J-5441552D01*
G01*
X133755000Y-93998963D02*
G75*
G02*
X135348792Y-90151207I5441547J1D01*
G01*
%TD*%
%TA.AperFunction,Conductor*%
%TO.N,LOW_BEAM_5V*%
G36*
X134084037Y-89504654D02*
G01*
X134350346Y-89770963D01*
X134353773Y-89779236D01*
X134350352Y-89787502D01*
X134312437Y-89825471D01*
X134272044Y-89866472D01*
X134236819Y-89903463D01*
X134236786Y-89903500D01*
X134236770Y-89903517D01*
X134208161Y-89935429D01*
X134206148Y-89937675D01*
X134179418Y-89970336D01*
X134156014Y-90002678D01*
X134135323Y-90035931D01*
X134116730Y-90071324D01*
X134099622Y-90110087D01*
X134086171Y-90146012D01*
X134080061Y-90152558D01*
X134075443Y-90153607D01*
X133706099Y-90160828D01*
X133697760Y-90157563D01*
X133694172Y-90148901D01*
X133701393Y-89779557D01*
X133704981Y-89771353D01*
X133708988Y-89768829D01*
X133744912Y-89755377D01*
X133745042Y-89755320D01*
X133745051Y-89755316D01*
X133767947Y-89745210D01*
X133783675Y-89738269D01*
X133819068Y-89719676D01*
X133819251Y-89719562D01*
X133819260Y-89719557D01*
X133852147Y-89699093D01*
X133852321Y-89698985D01*
X133884663Y-89675581D01*
X133917324Y-89648851D01*
X133919570Y-89646838D01*
X133951482Y-89618229D01*
X133951499Y-89618213D01*
X133951536Y-89618180D01*
X133988527Y-89582955D01*
X134029528Y-89542562D01*
X134067497Y-89504648D01*
X134075772Y-89501227D01*
X134084037Y-89504654D01*
G37*
%TD.AperFunction*%
%TD*%
%TA.AperFunction,Conductor*%
%TO.N,IGNITION_5V*%
G36*
X161732503Y-88199648D02*
G01*
X161770471Y-88237562D01*
X161811472Y-88277955D01*
X161848463Y-88313180D01*
X161848500Y-88313213D01*
X161848517Y-88313229D01*
X161880429Y-88341838D01*
X161882675Y-88343851D01*
X161915336Y-88370581D01*
X161947678Y-88393985D01*
X161947852Y-88394093D01*
X161980739Y-88414557D01*
X161980748Y-88414562D01*
X161980931Y-88414676D01*
X162016324Y-88433269D01*
X162032052Y-88440210D01*
X162054948Y-88450316D01*
X162054957Y-88450320D01*
X162055087Y-88450377D01*
X162091012Y-88463829D01*
X162097558Y-88469939D01*
X162098607Y-88474557D01*
X162105828Y-88843901D01*
X162102563Y-88852240D01*
X162093901Y-88855828D01*
X161724557Y-88848607D01*
X161716353Y-88845019D01*
X161713829Y-88841012D01*
X161700377Y-88805087D01*
X161683269Y-88766324D01*
X161664676Y-88730931D01*
X161643985Y-88697678D01*
X161620581Y-88665336D01*
X161593851Y-88632675D01*
X161591838Y-88630429D01*
X161563229Y-88598517D01*
X161563213Y-88598500D01*
X161563180Y-88598463D01*
X161527955Y-88561472D01*
X161487562Y-88520471D01*
X161449648Y-88482503D01*
X161446227Y-88474228D01*
X161449654Y-88465963D01*
X161715963Y-88199654D01*
X161724236Y-88196227D01*
X161732503Y-88199648D01*
G37*
%TD.AperFunction*%
%TD*%
%TA.AperFunction,Conductor*%
%TO.N,LOW_BEAM_5V*%
G36*
X161732503Y-86949648D02*
G01*
X161770471Y-86987562D01*
X161811472Y-87027955D01*
X161848463Y-87063180D01*
X161848500Y-87063213D01*
X161848517Y-87063229D01*
X161880429Y-87091838D01*
X161882675Y-87093851D01*
X161915336Y-87120581D01*
X161947678Y-87143985D01*
X161947852Y-87144093D01*
X161980739Y-87164557D01*
X161980748Y-87164562D01*
X161980931Y-87164676D01*
X162016324Y-87183269D01*
X162032052Y-87190210D01*
X162054948Y-87200316D01*
X162054957Y-87200320D01*
X162055087Y-87200377D01*
X162091012Y-87213829D01*
X162097558Y-87219939D01*
X162098607Y-87224557D01*
X162105828Y-87593901D01*
X162102563Y-87602240D01*
X162093901Y-87605828D01*
X161724557Y-87598607D01*
X161716353Y-87595019D01*
X161713829Y-87591012D01*
X161700377Y-87555087D01*
X161683269Y-87516324D01*
X161664676Y-87480931D01*
X161643985Y-87447678D01*
X161620581Y-87415336D01*
X161593851Y-87382675D01*
X161591838Y-87380429D01*
X161563229Y-87348517D01*
X161563213Y-87348500D01*
X161563180Y-87348463D01*
X161527955Y-87311472D01*
X161487562Y-87270471D01*
X161449648Y-87232503D01*
X161446227Y-87224228D01*
X161449654Y-87215963D01*
X161715963Y-86949654D01*
X161724236Y-86946227D01*
X161732503Y-86949648D01*
G37*
%TD.AperFunction*%
%TD*%
%TA.AperFunction,Conductor*%
%TO.N,IGNITION_5V*%
G36*
X133951581Y-96368427D02*
G01*
X133955008Y-96376691D01*
X133955046Y-96430349D01*
X133955476Y-96487904D01*
X133956725Y-96538968D01*
X133959229Y-96584847D01*
X133963423Y-96626844D01*
X133969744Y-96666262D01*
X133978626Y-96704406D01*
X133990505Y-96742580D01*
X134005818Y-96782088D01*
X134005878Y-96782220D01*
X134005886Y-96782238D01*
X134021709Y-96817003D01*
X134022017Y-96825953D01*
X134019493Y-96829960D01*
X133763433Y-97096231D01*
X133755229Y-97099819D01*
X133746567Y-97096231D01*
X133490506Y-96829960D01*
X133487241Y-96821621D01*
X133488289Y-96817007D01*
X133504181Y-96782088D01*
X133519494Y-96742580D01*
X133531373Y-96704406D01*
X133540255Y-96666262D01*
X133546576Y-96626844D01*
X133550770Y-96584847D01*
X133553274Y-96538968D01*
X133554523Y-96487904D01*
X133554953Y-96430349D01*
X133554992Y-96376691D01*
X133558425Y-96368421D01*
X133566692Y-96365000D01*
X133943308Y-96365000D01*
X133951581Y-96368427D01*
G37*
%TD.AperFunction*%
%TD*%
%TA.AperFunction,Conductor*%
%TO.N,GND*%
G36*
X169670057Y-75509500D02*
G01*
X169684858Y-75511805D01*
X169684862Y-75511805D01*
X169693731Y-75513186D01*
X169702633Y-75512022D01*
X169702637Y-75512022D01*
X169702733Y-75512009D01*
X169733170Y-75511738D01*
X169795375Y-75518746D01*
X169822882Y-75525024D01*
X169900071Y-75552034D01*
X169925491Y-75564276D01*
X169994738Y-75607787D01*
X170016797Y-75625379D01*
X170074621Y-75683203D01*
X170092213Y-75705262D01*
X170135724Y-75774509D01*
X170147966Y-75799930D01*
X170174975Y-75877117D01*
X170181254Y-75904624D01*
X170187522Y-75960251D01*
X170188305Y-75975897D01*
X170188196Y-75984855D01*
X170186814Y-75993729D01*
X170189274Y-76012540D01*
X170190936Y-76025250D01*
X170192000Y-76041588D01*
X170192000Y-96366000D01*
X170171998Y-96434121D01*
X170118342Y-96480614D01*
X170066000Y-96492000D01*
X166753207Y-96492000D01*
X166732303Y-96490254D01*
X166729137Y-96489721D01*
X166712539Y-96486929D01*
X166706419Y-96486854D01*
X166704867Y-96486835D01*
X166704862Y-96486835D01*
X166700000Y-96486776D01*
X166695172Y-96487467D01*
X166695053Y-96487475D01*
X166683583Y-96488575D01*
X166358831Y-96504529D01*
X166358827Y-96504529D01*
X166355741Y-96504681D01*
X166014798Y-96555256D01*
X166011803Y-96556006D01*
X166011804Y-96556006D01*
X165683454Y-96638253D01*
X165683449Y-96638255D01*
X165680453Y-96639005D01*
X165677554Y-96640042D01*
X165677545Y-96640045D01*
X165518190Y-96697063D01*
X165355927Y-96755122D01*
X165353144Y-96756438D01*
X165353135Y-96756442D01*
X165047128Y-96901173D01*
X165044346Y-96902489D01*
X165041704Y-96904072D01*
X165041705Y-96904072D01*
X164751359Y-97078098D01*
X164751350Y-97078104D01*
X164748709Y-97079687D01*
X164746224Y-97081530D01*
X164476229Y-97281772D01*
X164471864Y-97285009D01*
X164216478Y-97516478D01*
X163985009Y-97771864D01*
X163983168Y-97774347D01*
X163983165Y-97774350D01*
X163808496Y-98009865D01*
X163779687Y-98048709D01*
X163778104Y-98051350D01*
X163778098Y-98051359D01*
X163615440Y-98322739D01*
X163602489Y-98344346D01*
X163601175Y-98347125D01*
X163601173Y-98347128D01*
X163456442Y-98653135D01*
X163456438Y-98653144D01*
X163455122Y-98655927D01*
X163454082Y-98658835D01*
X163367941Y-98899583D01*
X163339005Y-98980453D01*
X163338255Y-98983449D01*
X163338253Y-98983454D01*
X163295905Y-99152517D01*
X163255256Y-99314798D01*
X163204681Y-99655741D01*
X163204529Y-99658827D01*
X163204529Y-99658831D01*
X163189349Y-99967828D01*
X163187756Y-99982544D01*
X163186929Y-99987461D01*
X163186776Y-100000000D01*
X163190062Y-100022947D01*
X163190727Y-100027588D01*
X163192000Y-100045451D01*
X163192000Y-103366000D01*
X163171998Y-103434121D01*
X163118342Y-103480614D01*
X163066000Y-103492000D01*
X117749327Y-103492000D01*
X117729943Y-103490500D01*
X117715142Y-103488195D01*
X117715138Y-103488195D01*
X117706269Y-103486814D01*
X117697367Y-103487978D01*
X117697363Y-103487978D01*
X117697267Y-103487991D01*
X117666830Y-103488262D01*
X117604625Y-103481254D01*
X117577118Y-103474976D01*
X117499928Y-103447966D01*
X117474509Y-103435724D01*
X117405262Y-103392213D01*
X117383203Y-103374621D01*
X117325379Y-103316797D01*
X117307787Y-103294738D01*
X117264276Y-103225491D01*
X117252034Y-103200070D01*
X117225025Y-103122883D01*
X117218746Y-103095376D01*
X117212478Y-103039749D01*
X117211695Y-103024103D01*
X117211804Y-103015145D01*
X117213186Y-103006271D01*
X117209064Y-102974749D01*
X117208000Y-102958412D01*
X117208000Y-100557966D01*
X122168257Y-100557966D01*
X122198565Y-100692446D01*
X122201645Y-100702275D01*
X122281770Y-100899603D01*
X122286413Y-100908794D01*
X122397694Y-101090388D01*
X122403777Y-101098699D01*
X122543213Y-101259667D01*
X122550580Y-101266883D01*
X122714434Y-101402916D01*
X122722881Y-101408831D01*
X122906756Y-101516279D01*
X122916042Y-101520729D01*
X123115001Y-101596703D01*
X123124899Y-101599579D01*
X123228250Y-101620606D01*
X123242299Y-101619410D01*
X123246000Y-101609065D01*
X123246000Y-101608517D01*
X123754000Y-101608517D01*
X123758064Y-101622359D01*
X123771478Y-101624393D01*
X123778184Y-101623534D01*
X123788262Y-101621392D01*
X123992255Y-101560191D01*
X124001842Y-101556433D01*
X124193095Y-101462739D01*
X124201945Y-101457464D01*
X124341873Y-101357655D01*
X131939858Y-101357655D01*
X131975104Y-101616638D01*
X131976412Y-101621124D01*
X131976412Y-101621126D01*
X131996098Y-101688664D01*
X132048243Y-101867567D01*
X132157668Y-102104928D01*
X132160231Y-102108837D01*
X132298410Y-102319596D01*
X132298414Y-102319601D01*
X132300976Y-102323509D01*
X132475018Y-102518506D01*
X132675970Y-102685637D01*
X132679973Y-102688066D01*
X132895422Y-102818804D01*
X132895426Y-102818806D01*
X132899419Y-102821229D01*
X133140455Y-102922303D01*
X133393783Y-102986641D01*
X133398434Y-102987109D01*
X133398438Y-102987110D01*
X133588731Y-103006271D01*
X133610867Y-103008500D01*
X133766354Y-103008500D01*
X133768679Y-103008327D01*
X133768685Y-103008327D01*
X133956000Y-102994407D01*
X133956004Y-102994406D01*
X133960652Y-102994061D01*
X133965200Y-102993032D01*
X133965206Y-102993031D01*
X134151601Y-102950853D01*
X134215577Y-102936377D01*
X134251769Y-102922303D01*
X134454824Y-102843340D01*
X134454827Y-102843339D01*
X134459177Y-102841647D01*
X134686098Y-102711951D01*
X134891357Y-102550138D01*
X135070443Y-102359763D01*
X135219424Y-102145009D01*
X135335025Y-101910593D01*
X135414707Y-101661665D01*
X135456721Y-101403693D01*
X135460142Y-101142345D01*
X135424896Y-100883362D01*
X135410473Y-100833877D01*
X135353068Y-100636932D01*
X135351757Y-100632433D01*
X135242332Y-100395072D01*
X135209519Y-100345024D01*
X135101590Y-100180404D01*
X135101586Y-100180399D01*
X135099024Y-100176491D01*
X134953453Y-100013393D01*
X134928097Y-99984984D01*
X134924982Y-99981494D01*
X134724030Y-99814363D01*
X134676844Y-99785730D01*
X134504578Y-99681196D01*
X134504574Y-99681194D01*
X134500581Y-99678771D01*
X134259545Y-99577697D01*
X134006217Y-99513359D01*
X134001566Y-99512891D01*
X134001562Y-99512890D01*
X133792271Y-99491816D01*
X133789133Y-99491500D01*
X133633646Y-99491500D01*
X133631321Y-99491673D01*
X133631315Y-99491673D01*
X133444000Y-99505593D01*
X133443996Y-99505594D01*
X133439348Y-99505939D01*
X133434800Y-99506968D01*
X133434794Y-99506969D01*
X133248399Y-99549147D01*
X133184423Y-99563623D01*
X133180071Y-99565315D01*
X133180069Y-99565316D01*
X132945176Y-99656660D01*
X132945173Y-99656661D01*
X132940823Y-99658353D01*
X132713902Y-99788049D01*
X132508643Y-99949862D01*
X132329557Y-100140237D01*
X132180576Y-100354991D01*
X132064975Y-100589407D01*
X131985293Y-100838335D01*
X131943279Y-101096307D01*
X131939858Y-101357655D01*
X124341873Y-101357655D01*
X124375328Y-101333792D01*
X124383200Y-101327139D01*
X124534052Y-101176812D01*
X124540730Y-101168965D01*
X124665003Y-100996020D01*
X124670313Y-100987183D01*
X124764670Y-100796267D01*
X124768469Y-100786672D01*
X124830377Y-100582910D01*
X124832555Y-100572837D01*
X124833986Y-100561962D01*
X124831775Y-100547778D01*
X124818617Y-100544000D01*
X123772115Y-100544000D01*
X123756876Y-100548475D01*
X123755671Y-100549865D01*
X123754000Y-100557548D01*
X123754000Y-101608517D01*
X123246000Y-101608517D01*
X123246000Y-100562115D01*
X123241525Y-100546876D01*
X123240135Y-100545671D01*
X123232452Y-100544000D01*
X122183225Y-100544000D01*
X122169694Y-100547973D01*
X122168257Y-100557966D01*
X117208000Y-100557966D01*
X117208000Y-100024183D01*
X122164389Y-100024183D01*
X122165912Y-100032607D01*
X122178292Y-100036000D01*
X123227885Y-100036000D01*
X123243124Y-100031525D01*
X123244329Y-100030135D01*
X123246000Y-100022452D01*
X123246000Y-100017885D01*
X123754000Y-100017885D01*
X123758475Y-100033124D01*
X123759865Y-100034329D01*
X123767548Y-100036000D01*
X124818344Y-100036000D01*
X124831875Y-100032027D01*
X124833180Y-100022947D01*
X124791214Y-99855875D01*
X124787894Y-99846124D01*
X124702972Y-99650814D01*
X124698105Y-99641739D01*
X124582426Y-99462926D01*
X124576136Y-99454757D01*
X124432806Y-99297240D01*
X124425273Y-99290215D01*
X124258139Y-99158222D01*
X124249552Y-99152517D01*
X124212116Y-99131851D01*
X124162146Y-99081419D01*
X124147374Y-99011976D01*
X124172490Y-98945571D01*
X124199842Y-98918964D01*
X124375327Y-98793792D01*
X124383200Y-98787139D01*
X124400007Y-98770390D01*
X137159440Y-98770390D01*
X137165167Y-98778040D01*
X137363506Y-98899583D01*
X137372300Y-98904064D01*
X137596991Y-98997134D01*
X137606376Y-99000183D01*
X137842863Y-99056959D01*
X137852610Y-99058502D01*
X138095070Y-99077584D01*
X138104930Y-99077584D01*
X138347390Y-99058502D01*
X138357137Y-99056959D01*
X138593624Y-99000183D01*
X138603009Y-98997134D01*
X138827700Y-98904064D01*
X138836494Y-98899583D01*
X139031167Y-98780287D01*
X139040627Y-98769830D01*
X139036844Y-98761054D01*
X138112812Y-97837022D01*
X138098868Y-97829408D01*
X138097035Y-97829539D01*
X138090420Y-97833790D01*
X137166200Y-98758010D01*
X137159440Y-98770390D01*
X124400007Y-98770390D01*
X124534052Y-98636812D01*
X124540730Y-98628965D01*
X124665003Y-98456020D01*
X124670313Y-98447183D01*
X124764670Y-98256267D01*
X124768469Y-98246672D01*
X124830377Y-98042910D01*
X124832555Y-98032837D01*
X124833986Y-98021962D01*
X124831775Y-98007778D01*
X124818617Y-98004000D01*
X123772115Y-98004000D01*
X123756876Y-98008475D01*
X123755671Y-98009865D01*
X123754000Y-98017548D01*
X123754000Y-100017885D01*
X123246000Y-100017885D01*
X123246000Y-98022115D01*
X123241525Y-98006876D01*
X123240135Y-98005671D01*
X123232452Y-98004000D01*
X122183225Y-98004000D01*
X122169694Y-98007973D01*
X122168257Y-98017966D01*
X122198565Y-98152446D01*
X122201645Y-98162275D01*
X122281770Y-98359603D01*
X122286413Y-98368794D01*
X122397694Y-98550388D01*
X122403777Y-98558699D01*
X122543213Y-98719667D01*
X122550580Y-98726883D01*
X122714434Y-98862916D01*
X122722881Y-98868831D01*
X122792479Y-98909501D01*
X122841203Y-98961140D01*
X122854274Y-99030923D01*
X122827543Y-99096694D01*
X122787087Y-99130053D01*
X122778462Y-99134542D01*
X122769738Y-99140036D01*
X122599433Y-99267905D01*
X122591726Y-99274748D01*
X122444590Y-99428717D01*
X122438104Y-99436727D01*
X122318098Y-99612649D01*
X122313000Y-99621623D01*
X122223338Y-99814783D01*
X122219775Y-99824470D01*
X122164389Y-100024183D01*
X117208000Y-100024183D01*
X117208000Y-95176695D01*
X122137251Y-95176695D01*
X122137548Y-95181848D01*
X122137548Y-95181851D01*
X122143011Y-95276590D01*
X122150110Y-95399715D01*
X122151247Y-95404761D01*
X122151248Y-95404767D01*
X122152156Y-95408794D01*
X122199222Y-95617639D01*
X122252590Y-95749069D01*
X122278581Y-95813077D01*
X122283266Y-95824616D01*
X122285965Y-95829020D01*
X122352786Y-95938062D01*
X122399987Y-96015088D01*
X122546250Y-96183938D01*
X122718126Y-96326632D01*
X122785497Y-96366000D01*
X122791955Y-96369774D01*
X122840679Y-96421412D01*
X122853750Y-96491195D01*
X122827019Y-96556967D01*
X122786562Y-96590327D01*
X122778457Y-96594546D01*
X122769738Y-96600036D01*
X122599433Y-96727905D01*
X122591726Y-96734748D01*
X122444590Y-96888717D01*
X122438104Y-96896727D01*
X122318098Y-97072649D01*
X122313000Y-97081623D01*
X122223338Y-97274783D01*
X122219775Y-97284470D01*
X122164389Y-97484183D01*
X122165912Y-97492607D01*
X122178292Y-97496000D01*
X124818344Y-97496000D01*
X124831875Y-97492027D01*
X124833180Y-97482947D01*
X124791214Y-97315875D01*
X124787894Y-97306124D01*
X124702972Y-97110814D01*
X124698105Y-97101739D01*
X124595826Y-96943640D01*
X132941463Y-96943640D01*
X132959163Y-97124160D01*
X133016418Y-97296273D01*
X133020065Y-97302295D01*
X133020066Y-97302297D01*
X133098839Y-97432367D01*
X133110380Y-97451424D01*
X133115269Y-97456487D01*
X133115270Y-97456488D01*
X133150150Y-97492607D01*
X133236382Y-97581902D01*
X133388159Y-97681222D01*
X133394763Y-97683678D01*
X133394765Y-97683679D01*
X133551558Y-97741990D01*
X133551560Y-97741990D01*
X133558168Y-97744448D01*
X133641995Y-97755633D01*
X133730980Y-97767507D01*
X133730984Y-97767507D01*
X133737961Y-97768438D01*
X133744972Y-97767800D01*
X133744976Y-97767800D01*
X133887459Y-97754832D01*
X133918600Y-97751998D01*
X133925302Y-97749820D01*
X133925304Y-97749820D01*
X134084409Y-97698124D01*
X134084412Y-97698123D01*
X134091108Y-97695947D01*
X134246912Y-97603069D01*
X134378266Y-97477982D01*
X134383616Y-97469930D01*
X136487416Y-97469930D01*
X136506498Y-97712390D01*
X136508041Y-97722137D01*
X136564817Y-97958624D01*
X136567866Y-97968009D01*
X136660936Y-98192700D01*
X136665417Y-98201494D01*
X136784713Y-98396167D01*
X136795170Y-98405627D01*
X136803946Y-98401844D01*
X137727978Y-97477812D01*
X137734356Y-97466132D01*
X138464408Y-97466132D01*
X138464539Y-97467965D01*
X138468790Y-97474580D01*
X139393010Y-98398800D01*
X139405390Y-98405560D01*
X139413040Y-98399833D01*
X139534583Y-98201494D01*
X139539064Y-98192700D01*
X139632134Y-97968009D01*
X139635183Y-97958624D01*
X139691959Y-97722137D01*
X139693502Y-97712390D01*
X139712584Y-97469930D01*
X139712584Y-97460070D01*
X139693502Y-97217610D01*
X139691959Y-97207863D01*
X139635183Y-96971376D01*
X139632134Y-96961991D01*
X139539064Y-96737300D01*
X139534583Y-96728506D01*
X139415287Y-96533833D01*
X139404830Y-96524373D01*
X139396054Y-96528156D01*
X138472022Y-97452188D01*
X138464408Y-97466132D01*
X137734356Y-97466132D01*
X137735592Y-97463868D01*
X137735461Y-97462035D01*
X137731210Y-97455420D01*
X136806990Y-96531200D01*
X136794610Y-96524440D01*
X136786960Y-96530167D01*
X136665417Y-96728506D01*
X136660936Y-96737300D01*
X136567866Y-96961991D01*
X136564817Y-96971376D01*
X136508041Y-97207863D01*
X136506498Y-97217610D01*
X136487416Y-97460070D01*
X136487416Y-97469930D01*
X134383616Y-97469930D01*
X134478643Y-97326902D01*
X134543055Y-97157338D01*
X134544079Y-97150052D01*
X134567748Y-96981639D01*
X134567748Y-96981636D01*
X134568299Y-96977717D01*
X134568452Y-96966738D01*
X134568561Y-96958962D01*
X134568561Y-96958957D01*
X134568616Y-96955000D01*
X134548397Y-96774745D01*
X134546080Y-96768091D01*
X134491064Y-96610106D01*
X134491062Y-96610103D01*
X134488745Y-96603448D01*
X134484304Y-96596341D01*
X134483984Y-96595330D01*
X134481968Y-96591122D01*
X134482562Y-96590837D01*
X134465342Y-96536433D01*
X134465057Y-96531200D01*
X134464488Y-96520771D01*
X134464339Y-96516995D01*
X134463538Y-96484227D01*
X134463500Y-96481148D01*
X134463500Y-94540000D01*
X136406496Y-94540000D01*
X136407186Y-94546565D01*
X136417894Y-94648442D01*
X136426458Y-94729928D01*
X136485473Y-94911556D01*
X136580960Y-95076944D01*
X136585378Y-95081851D01*
X136585379Y-95081852D01*
X136676845Y-95183435D01*
X136708747Y-95218866D01*
X136863248Y-95331118D01*
X136869276Y-95333802D01*
X136869278Y-95333803D01*
X137017320Y-95399715D01*
X137037712Y-95408794D01*
X137131112Y-95428647D01*
X137218056Y-95447128D01*
X137218061Y-95447128D01*
X137224513Y-95448500D01*
X137357719Y-95448500D01*
X137425840Y-95468502D01*
X137472333Y-95522158D01*
X137477552Y-95535563D01*
X137483890Y-95555068D01*
X137489235Y-95567074D01*
X137578062Y-95720927D01*
X137585786Y-95731558D01*
X137601553Y-95749069D01*
X137632270Y-95813077D01*
X137623506Y-95883531D01*
X137578044Y-95938062D01*
X137556135Y-95949789D01*
X137372300Y-96025936D01*
X137363506Y-96030417D01*
X137168833Y-96149713D01*
X137159373Y-96160170D01*
X137163156Y-96168946D01*
X138087188Y-97092978D01*
X138101132Y-97100592D01*
X138102965Y-97100461D01*
X138109580Y-97096210D01*
X139033800Y-96171990D01*
X139040560Y-96159610D01*
X139034833Y-96151960D01*
X138836491Y-96030415D01*
X138833343Y-96028812D01*
X138774996Y-96004646D01*
X138755572Y-95985131D01*
X138754192Y-95983402D01*
X138049885Y-95279095D01*
X138015859Y-95216783D01*
X138020924Y-95145968D01*
X138049885Y-95100905D01*
X138230905Y-94919885D01*
X138293217Y-94885859D01*
X138364032Y-94890924D01*
X138409095Y-94919885D01*
X139103370Y-95614160D01*
X139115750Y-95620920D01*
X139122665Y-95615744D01*
X139150770Y-95567064D01*
X139156108Y-95555075D01*
X139211011Y-95386102D01*
X139213741Y-95373261D01*
X139232312Y-95196565D01*
X139232312Y-95183435D01*
X139213741Y-95006739D01*
X139211011Y-94993898D01*
X139156111Y-94824934D01*
X139150765Y-94812926D01*
X139061938Y-94659073D01*
X139054214Y-94648442D01*
X139032822Y-94624684D01*
X139002105Y-94560676D01*
X139010868Y-94490223D01*
X139032822Y-94456062D01*
X139054620Y-94431853D01*
X139059040Y-94426944D01*
X139084633Y-94382617D01*
X139151223Y-94267279D01*
X139151224Y-94267278D01*
X139154527Y-94261556D01*
X139213542Y-94079928D01*
X139214365Y-94072104D01*
X139232814Y-93896565D01*
X139233504Y-93890000D01*
X139222137Y-93781852D01*
X139214232Y-93706635D01*
X139214232Y-93706633D01*
X139213542Y-93700072D01*
X139154527Y-93518444D01*
X139129496Y-93475088D01*
X139111227Y-93443446D01*
X139094489Y-93374451D01*
X139119520Y-93304881D01*
X139138295Y-93279829D01*
X139170615Y-93236705D01*
X139221745Y-93100316D01*
X139228500Y-93038134D01*
X139228500Y-92141866D01*
X139221745Y-92079684D01*
X139170615Y-91943295D01*
X139083261Y-91826739D01*
X139056883Y-91806970D01*
X139014370Y-91750111D01*
X139009345Y-91679292D01*
X139039014Y-91621613D01*
X139040626Y-91619831D01*
X139036843Y-91611053D01*
X138112812Y-90687022D01*
X138098868Y-90679408D01*
X138097035Y-90679539D01*
X138090420Y-90683790D01*
X137166200Y-91608010D01*
X137159440Y-91620390D01*
X137165167Y-91628040D01*
X137363506Y-91749583D01*
X137372300Y-91754064D01*
X137407331Y-91768574D01*
X137462612Y-91813123D01*
X137485033Y-91880486D01*
X137470508Y-91941797D01*
X137469385Y-91943295D01*
X137418255Y-92079684D01*
X137411500Y-92141866D01*
X137411500Y-92205500D01*
X137391498Y-92273621D01*
X137337842Y-92320114D01*
X137285500Y-92331500D01*
X137224513Y-92331500D01*
X137218061Y-92332872D01*
X137218056Y-92332872D01*
X137131113Y-92351353D01*
X137037712Y-92371206D01*
X137031682Y-92373891D01*
X137031681Y-92373891D01*
X136869278Y-92446197D01*
X136869276Y-92446198D01*
X136863248Y-92448882D01*
X136708747Y-92561134D01*
X136704326Y-92566044D01*
X136704325Y-92566045D01*
X136591957Y-92690843D01*
X136580960Y-92703056D01*
X136485473Y-92868444D01*
X136426458Y-93050072D01*
X136425768Y-93056633D01*
X136425768Y-93056635D01*
X136413663Y-93171811D01*
X136406496Y-93240000D01*
X136426458Y-93429928D01*
X136485473Y-93611556D01*
X136580960Y-93776944D01*
X136585378Y-93781851D01*
X136585379Y-93781852D01*
X136606843Y-93805690D01*
X136637561Y-93869697D01*
X136628796Y-93940151D01*
X136606843Y-93974310D01*
X136588368Y-93994829D01*
X136580960Y-94003056D01*
X136485473Y-94168444D01*
X136426458Y-94350072D01*
X136425768Y-94356633D01*
X136425768Y-94356635D01*
X136415318Y-94456062D01*
X136406496Y-94540000D01*
X134463500Y-94540000D01*
X134463500Y-94053927D01*
X134464578Y-94037481D01*
X134467674Y-94013968D01*
X134467674Y-94013964D01*
X134468665Y-94006437D01*
X134465673Y-93979333D01*
X134465009Y-93960560D01*
X134477896Y-93632562D01*
X134478672Y-93622699D01*
X134521191Y-93263462D01*
X134522739Y-93253691D01*
X134593309Y-92898908D01*
X134595619Y-92889287D01*
X134693808Y-92541138D01*
X134696865Y-92531729D01*
X134817217Y-92205500D01*
X134822070Y-92192345D01*
X134825855Y-92183207D01*
X134844914Y-92141866D01*
X134977302Y-91854692D01*
X134981793Y-91845879D01*
X135035722Y-91749583D01*
X135158539Y-91530277D01*
X135163708Y-91521841D01*
X135237838Y-91410897D01*
X135364685Y-91221057D01*
X135370494Y-91213061D01*
X135500804Y-91047765D01*
X135594446Y-90928981D01*
X135600869Y-90921460D01*
X135818048Y-90686516D01*
X135833869Y-90672082D01*
X135848144Y-90661129D01*
X135873241Y-90629803D01*
X135882480Y-90619489D01*
X136272321Y-90229648D01*
X136334633Y-90195622D01*
X136405448Y-90200687D01*
X136462284Y-90243234D01*
X136487095Y-90309754D01*
X136487416Y-90318743D01*
X136487416Y-90319930D01*
X136506498Y-90562390D01*
X136508041Y-90572137D01*
X136564817Y-90808624D01*
X136567866Y-90818009D01*
X136660936Y-91042700D01*
X136665417Y-91051494D01*
X136784713Y-91246167D01*
X136795170Y-91255627D01*
X136803946Y-91251844D01*
X137739658Y-90316132D01*
X138464408Y-90316132D01*
X138464539Y-90317965D01*
X138468790Y-90324580D01*
X139393010Y-91248800D01*
X139405390Y-91255560D01*
X139413040Y-91249833D01*
X139534583Y-91051494D01*
X139539064Y-91042700D01*
X139632134Y-90818009D01*
X139635183Y-90808624D01*
X139691959Y-90572137D01*
X139693502Y-90562390D01*
X139712584Y-90319930D01*
X139712584Y-90310070D01*
X139693502Y-90067610D01*
X139691959Y-90057863D01*
X139635183Y-89821376D01*
X139632134Y-89811991D01*
X139539064Y-89587300D01*
X139534583Y-89578506D01*
X139415287Y-89383833D01*
X139404830Y-89374373D01*
X139396054Y-89378156D01*
X138472022Y-90302188D01*
X138464408Y-90316132D01*
X137739658Y-90316132D01*
X139033800Y-89021990D01*
X139040560Y-89009610D01*
X139034833Y-89001960D01*
X138836494Y-88880417D01*
X138827700Y-88875936D01*
X138603009Y-88782866D01*
X138593624Y-88779817D01*
X138357137Y-88723041D01*
X138347390Y-88721498D01*
X138104930Y-88702416D01*
X138103743Y-88702416D01*
X138103308Y-88702288D01*
X138100000Y-88702028D01*
X138100055Y-88701333D01*
X138035622Y-88682414D01*
X137989129Y-88628758D01*
X137979025Y-88558484D01*
X138008519Y-88493904D01*
X138014648Y-88487321D01*
X138096864Y-88405106D01*
X139986405Y-86515565D01*
X140048717Y-86481539D01*
X140119533Y-86486604D01*
X140176368Y-86529151D01*
X140201179Y-86595671D01*
X140201500Y-86604660D01*
X140201500Y-87798134D01*
X140208255Y-87860316D01*
X140259385Y-87996705D01*
X140346739Y-88113261D01*
X140463295Y-88200615D01*
X140599684Y-88251745D01*
X140661866Y-88258500D01*
X142458134Y-88258500D01*
X142520316Y-88251745D01*
X142656705Y-88200615D01*
X142773261Y-88113261D01*
X142860615Y-87996705D01*
X142882799Y-87937529D01*
X142904598Y-87879382D01*
X142947240Y-87822618D01*
X143013802Y-87797918D01*
X143083150Y-87813126D01*
X143117817Y-87841114D01*
X143146250Y-87873938D01*
X143318126Y-88016632D01*
X143511000Y-88129338D01*
X143719692Y-88209030D01*
X143724760Y-88210061D01*
X143724763Y-88210062D01*
X143832017Y-88231883D01*
X143938597Y-88253567D01*
X143943772Y-88253757D01*
X143943774Y-88253757D01*
X144156673Y-88261564D01*
X144156677Y-88261564D01*
X144161837Y-88261753D01*
X144166957Y-88261097D01*
X144166959Y-88261097D01*
X144378288Y-88234025D01*
X144378289Y-88234025D01*
X144383416Y-88233368D01*
X144444713Y-88214978D01*
X144592429Y-88170661D01*
X144592434Y-88170659D01*
X144597384Y-88169174D01*
X144797994Y-88070896D01*
X144979860Y-87941173D01*
X145049374Y-87871902D01*
X145123616Y-87797918D01*
X145138096Y-87783489D01*
X145201419Y-87695366D01*
X145265435Y-87606277D01*
X145268453Y-87602077D01*
X145318903Y-87500000D01*
X145365136Y-87406453D01*
X145365137Y-87406451D01*
X145367430Y-87401811D01*
X145432370Y-87188069D01*
X145461529Y-86966590D01*
X145463156Y-86900000D01*
X145444852Y-86677361D01*
X145390431Y-86460702D01*
X145301354Y-86255840D01*
X145180014Y-86068277D01*
X145029670Y-85903051D01*
X145025619Y-85899852D01*
X145025615Y-85899848D01*
X144858414Y-85767800D01*
X144858410Y-85767798D01*
X144854359Y-85764598D01*
X144658789Y-85656638D01*
X144653920Y-85654914D01*
X144653916Y-85654912D01*
X144453087Y-85583795D01*
X144453083Y-85583794D01*
X144448212Y-85582069D01*
X144443119Y-85581162D01*
X144443116Y-85581161D01*
X144233373Y-85543800D01*
X144233367Y-85543799D01*
X144228284Y-85542894D01*
X144154452Y-85541992D01*
X144010081Y-85540228D01*
X144010079Y-85540228D01*
X144004911Y-85540165D01*
X143784091Y-85573955D01*
X143571756Y-85643357D01*
X143373607Y-85746507D01*
X143369474Y-85749610D01*
X143369471Y-85749612D01*
X143199100Y-85877530D01*
X143194965Y-85880635D01*
X143114508Y-85964829D01*
X143114283Y-85965064D01*
X143052759Y-86000494D01*
X142981846Y-85997037D01*
X142924060Y-85955791D01*
X142905207Y-85922243D01*
X142863767Y-85811703D01*
X142860615Y-85803295D01*
X142773261Y-85686739D01*
X142656705Y-85599385D01*
X142520316Y-85548255D01*
X142458134Y-85541500D01*
X141264660Y-85541500D01*
X141196539Y-85521498D01*
X141150046Y-85467842D01*
X141139942Y-85397568D01*
X141169436Y-85332988D01*
X141175565Y-85326405D01*
X142341810Y-84160160D01*
X142354201Y-84149293D01*
X142373012Y-84134859D01*
X142373013Y-84134858D01*
X142379039Y-84130234D01*
X142396087Y-84108955D01*
X142408892Y-84095211D01*
X142649941Y-83872389D01*
X142657464Y-83865964D01*
X142865276Y-83702137D01*
X142941549Y-83642008D01*
X142949544Y-83636200D01*
X143250321Y-83435228D01*
X143258757Y-83430059D01*
X143574359Y-83253313D01*
X143583174Y-83248821D01*
X143629586Y-83227425D01*
X143911690Y-83097374D01*
X143920827Y-83093589D01*
X144260209Y-82968385D01*
X144269618Y-82965328D01*
X144617767Y-82867139D01*
X144627388Y-82864829D01*
X144982171Y-82794259D01*
X144991942Y-82792711D01*
X145351179Y-82750192D01*
X145361042Y-82749416D01*
X145680733Y-82736855D01*
X145702128Y-82737836D01*
X145712439Y-82739194D01*
X145712442Y-82739194D01*
X145719969Y-82740185D01*
X145759859Y-82735781D01*
X145773686Y-82735020D01*
X152967592Y-82735020D01*
X152984038Y-82736098D01*
X153007551Y-82739194D01*
X153007555Y-82739194D01*
X153015082Y-82740185D01*
X153031637Y-82738357D01*
X153042186Y-82737193D01*
X153060959Y-82736529D01*
X153388957Y-82749416D01*
X153398820Y-82750192D01*
X153758057Y-82792711D01*
X153767828Y-82794259D01*
X153855239Y-82811646D01*
X154122621Y-82864832D01*
X154132222Y-82867137D01*
X154365332Y-82932880D01*
X154480378Y-82965327D01*
X154489787Y-82968384D01*
X154829172Y-83093589D01*
X154838309Y-83097374D01*
X155120413Y-83227425D01*
X155166825Y-83248821D01*
X155175640Y-83253313D01*
X155491242Y-83430059D01*
X155499678Y-83435228D01*
X155800461Y-83636205D01*
X155808450Y-83642009D01*
X156075494Y-83852529D01*
X156092536Y-83865964D01*
X156100059Y-83872389D01*
X156335003Y-84089569D01*
X156349436Y-84105388D01*
X156360390Y-84119665D01*
X156366314Y-84124411D01*
X156366317Y-84124414D01*
X156391719Y-84144764D01*
X156402034Y-84154004D01*
X161163901Y-88915872D01*
X161166053Y-88918077D01*
X161188729Y-88941890D01*
X161191300Y-88944672D01*
X161206070Y-88961147D01*
X161209745Y-88965435D01*
X161211552Y-88967643D01*
X161233610Y-89007682D01*
X161261418Y-89091273D01*
X161265065Y-89097295D01*
X161265066Y-89097297D01*
X161275978Y-89115314D01*
X161355380Y-89246424D01*
X161360269Y-89251487D01*
X161360270Y-89251488D01*
X161371348Y-89262959D01*
X161481382Y-89376902D01*
X161487278Y-89380760D01*
X161603296Y-89456680D01*
X161633159Y-89476222D01*
X161639763Y-89478678D01*
X161639765Y-89478679D01*
X161796558Y-89536990D01*
X161796560Y-89536990D01*
X161803168Y-89539448D01*
X161886995Y-89550633D01*
X161975980Y-89562507D01*
X161975984Y-89562507D01*
X161982961Y-89563438D01*
X161989972Y-89562800D01*
X161989976Y-89562800D01*
X162132459Y-89549832D01*
X162163600Y-89546998D01*
X162170302Y-89544820D01*
X162170304Y-89544820D01*
X162329409Y-89493124D01*
X162329412Y-89493123D01*
X162336108Y-89490947D01*
X162491912Y-89398069D01*
X162623266Y-89272982D01*
X162723643Y-89121902D01*
X162788055Y-88952338D01*
X162789035Y-88945366D01*
X162812748Y-88776639D01*
X162812748Y-88776636D01*
X162813299Y-88772717D01*
X162813616Y-88750000D01*
X162793397Y-88569745D01*
X162786631Y-88550316D01*
X162736064Y-88405106D01*
X162736062Y-88405103D01*
X162733745Y-88398448D01*
X162637626Y-88244624D01*
X162608186Y-88214978D01*
X162574379Y-88152548D01*
X162579691Y-88081750D01*
X162610702Y-88034947D01*
X162618160Y-88027845D01*
X162618163Y-88027842D01*
X162623266Y-88022982D01*
X162723643Y-87871902D01*
X162788055Y-87702338D01*
X162789035Y-87695366D01*
X162812748Y-87526639D01*
X162812748Y-87526636D01*
X162813299Y-87522717D01*
X162813616Y-87500000D01*
X162793397Y-87319745D01*
X162733745Y-87148448D01*
X162637626Y-86994624D01*
X162609787Y-86966590D01*
X162514778Y-86870915D01*
X162514774Y-86870912D01*
X162509815Y-86865918D01*
X162356666Y-86768727D01*
X162292182Y-86745765D01*
X162254843Y-86732469D01*
X162217313Y-86711282D01*
X162215446Y-86709754D01*
X162211147Y-86706070D01*
X162194672Y-86691300D01*
X162191890Y-86688729D01*
X162168058Y-86666035D01*
X162165853Y-86663883D01*
X160823665Y-85321695D01*
X163362251Y-85321695D01*
X163375110Y-85544715D01*
X163376247Y-85549761D01*
X163376248Y-85549767D01*
X163388644Y-85604771D01*
X163424222Y-85762639D01*
X163508266Y-85969616D01*
X163624987Y-86160088D01*
X163771250Y-86328938D01*
X163943126Y-86471632D01*
X164136000Y-86584338D01*
X164344692Y-86664030D01*
X164349760Y-86665061D01*
X164349763Y-86665062D01*
X164444862Y-86684410D01*
X164563597Y-86708567D01*
X164568772Y-86708757D01*
X164568774Y-86708757D01*
X164781673Y-86716564D01*
X164781677Y-86716564D01*
X164786837Y-86716753D01*
X164791957Y-86716097D01*
X164791959Y-86716097D01*
X165003288Y-86689025D01*
X165003289Y-86689025D01*
X165008416Y-86688368D01*
X165013366Y-86686883D01*
X165217429Y-86625661D01*
X165217434Y-86625659D01*
X165222384Y-86624174D01*
X165422994Y-86525896D01*
X165604860Y-86396173D01*
X165763096Y-86238489D01*
X165775540Y-86221172D01*
X165893453Y-86057077D01*
X165894640Y-86057930D01*
X165941960Y-86014362D01*
X166011897Y-86002145D01*
X166077338Y-86029678D01*
X166105166Y-86061511D01*
X166162694Y-86155388D01*
X166168777Y-86163699D01*
X166308213Y-86324667D01*
X166315580Y-86331883D01*
X166479434Y-86467916D01*
X166487881Y-86473831D01*
X166671756Y-86581279D01*
X166681042Y-86585729D01*
X166880001Y-86661703D01*
X166889899Y-86664579D01*
X166993250Y-86685606D01*
X167007299Y-86684410D01*
X167011000Y-86674065D01*
X167011000Y-86673517D01*
X167519000Y-86673517D01*
X167523064Y-86687359D01*
X167536478Y-86689393D01*
X167543184Y-86688534D01*
X167553262Y-86686392D01*
X167757255Y-86625191D01*
X167766842Y-86621433D01*
X167958095Y-86527739D01*
X167966945Y-86522464D01*
X168140328Y-86398792D01*
X168148200Y-86392139D01*
X168299052Y-86241812D01*
X168305730Y-86233965D01*
X168430003Y-86061020D01*
X168435313Y-86052183D01*
X168529670Y-85861267D01*
X168533469Y-85851672D01*
X168595377Y-85647910D01*
X168597555Y-85637837D01*
X168598986Y-85626962D01*
X168596775Y-85612778D01*
X168583617Y-85609000D01*
X167537115Y-85609000D01*
X167521876Y-85613475D01*
X167520671Y-85614865D01*
X167519000Y-85622548D01*
X167519000Y-86673517D01*
X167011000Y-86673517D01*
X167011000Y-85227000D01*
X167031002Y-85158879D01*
X167084658Y-85112386D01*
X167137000Y-85101000D01*
X168583344Y-85101000D01*
X168596875Y-85097027D01*
X168598180Y-85087947D01*
X168556214Y-84920875D01*
X168552894Y-84911124D01*
X168467972Y-84715814D01*
X168463105Y-84706739D01*
X168347426Y-84527926D01*
X168341136Y-84519757D01*
X168197806Y-84362240D01*
X168190273Y-84355215D01*
X168023139Y-84223222D01*
X168014556Y-84217520D01*
X167977602Y-84197120D01*
X167927631Y-84146687D01*
X167912859Y-84077245D01*
X167937975Y-84010839D01*
X167965327Y-83984232D01*
X167988797Y-83967491D01*
X168144860Y-83856173D01*
X168303096Y-83698489D01*
X168343677Y-83642015D01*
X168430435Y-83521277D01*
X168433453Y-83517077D01*
X168454320Y-83474857D01*
X168530136Y-83321453D01*
X168530137Y-83321451D01*
X168532430Y-83316811D01*
X168597370Y-83103069D01*
X168626529Y-82881590D01*
X168626915Y-82865794D01*
X168628074Y-82818365D01*
X168628074Y-82818361D01*
X168628156Y-82815000D01*
X168609852Y-82592361D01*
X168555431Y-82375702D01*
X168466354Y-82170840D01*
X168415397Y-82092072D01*
X168347822Y-81987617D01*
X168347820Y-81987614D01*
X168345014Y-81983277D01*
X168194670Y-81818051D01*
X168190619Y-81814852D01*
X168190615Y-81814848D01*
X168023414Y-81682800D01*
X168023410Y-81682798D01*
X168019359Y-81679598D01*
X167978053Y-81656796D01*
X167928084Y-81606364D01*
X167913312Y-81536921D01*
X167938428Y-81470516D01*
X167965780Y-81443909D01*
X168009603Y-81412650D01*
X168144860Y-81316173D01*
X168303096Y-81158489D01*
X168433453Y-80977077D01*
X168498876Y-80844704D01*
X168530136Y-80781453D01*
X168530137Y-80781451D01*
X168532430Y-80776811D01*
X168597370Y-80563069D01*
X168626529Y-80341590D01*
X168627466Y-80303259D01*
X168628074Y-80278365D01*
X168628074Y-80278361D01*
X168628156Y-80275000D01*
X168609852Y-80052361D01*
X168555431Y-79835702D01*
X168466354Y-79630840D01*
X168387004Y-79508184D01*
X168347822Y-79447617D01*
X168347820Y-79447614D01*
X168345014Y-79443277D01*
X168194670Y-79278051D01*
X168190619Y-79274852D01*
X168190615Y-79274848D01*
X168023414Y-79142800D01*
X168023410Y-79142798D01*
X168019359Y-79139598D01*
X167823789Y-79031638D01*
X167818920Y-79029914D01*
X167818916Y-79029912D01*
X167618087Y-78958795D01*
X167618083Y-78958794D01*
X167613212Y-78957069D01*
X167608119Y-78956162D01*
X167608116Y-78956161D01*
X167398373Y-78918800D01*
X167398367Y-78918799D01*
X167393284Y-78917894D01*
X167319452Y-78916992D01*
X167175081Y-78915228D01*
X167175079Y-78915228D01*
X167169911Y-78915165D01*
X166949091Y-78948955D01*
X166736756Y-79018357D01*
X166538607Y-79121507D01*
X166534474Y-79124610D01*
X166534471Y-79124612D01*
X166415058Y-79214270D01*
X166359965Y-79255635D01*
X166303537Y-79314684D01*
X166279283Y-79340064D01*
X166217759Y-79375494D01*
X166146846Y-79372037D01*
X166089060Y-79330791D01*
X166070207Y-79297243D01*
X166028767Y-79186703D01*
X166025615Y-79178295D01*
X165938261Y-79061739D01*
X165821705Y-78974385D01*
X165685316Y-78923255D01*
X165623134Y-78916500D01*
X163826866Y-78916500D01*
X163764684Y-78923255D01*
X163628295Y-78974385D01*
X163511739Y-79061739D01*
X163424385Y-79178295D01*
X163373255Y-79314684D01*
X163366500Y-79376866D01*
X163366500Y-81173134D01*
X163373255Y-81235316D01*
X163424385Y-81371705D01*
X163511739Y-81488261D01*
X163628295Y-81575615D01*
X163636704Y-81578767D01*
X163636705Y-81578768D01*
X163745451Y-81619535D01*
X163802216Y-81662176D01*
X163826916Y-81728738D01*
X163811709Y-81798087D01*
X163792316Y-81824568D01*
X163665629Y-81957138D01*
X163539743Y-82141680D01*
X163445688Y-82344305D01*
X163385989Y-82559570D01*
X163362251Y-82781695D01*
X163362548Y-82786848D01*
X163362548Y-82786851D01*
X163368011Y-82881590D01*
X163375110Y-83004715D01*
X163376247Y-83009761D01*
X163376248Y-83009767D01*
X163395139Y-83093589D01*
X163424222Y-83222639D01*
X163508266Y-83429616D01*
X163559019Y-83512438D01*
X163622291Y-83615688D01*
X163624987Y-83620088D01*
X163771250Y-83788938D01*
X163943126Y-83931632D01*
X164013595Y-83972811D01*
X164016445Y-83974476D01*
X164065169Y-84026114D01*
X164078240Y-84095897D01*
X164051509Y-84161669D01*
X164011055Y-84195027D01*
X163998607Y-84201507D01*
X163994474Y-84204610D01*
X163994471Y-84204612D01*
X163970247Y-84222800D01*
X163819965Y-84335635D01*
X163665629Y-84497138D01*
X163539743Y-84681680D01*
X163445688Y-84884305D01*
X163385989Y-85099570D01*
X163362251Y-85321695D01*
X160823665Y-85321695D01*
X157636734Y-82134764D01*
X157625069Y-82121322D01*
X157611390Y-82103104D01*
X157608915Y-82099807D01*
X157603686Y-82094467D01*
X157601341Y-82092072D01*
X157601339Y-82092070D01*
X157598457Y-82089127D01*
X157595214Y-82086585D01*
X157595206Y-82086577D01*
X157590736Y-82083072D01*
X157582620Y-82076135D01*
X157575657Y-82069652D01*
X157276029Y-81790688D01*
X157079574Y-81632375D01*
X156935714Y-81516445D01*
X156935700Y-81516435D01*
X156933972Y-81515042D01*
X156918556Y-81504338D01*
X156574971Y-81265783D01*
X156574969Y-81265782D01*
X156573123Y-81264500D01*
X156195319Y-81040339D01*
X155802487Y-80843701D01*
X155800427Y-80842848D01*
X155800421Y-80842845D01*
X155398698Y-80676446D01*
X155398688Y-80676442D01*
X155396628Y-80675589D01*
X155336733Y-80655654D01*
X154981943Y-80537568D01*
X154981936Y-80537566D01*
X154979809Y-80536858D01*
X154554156Y-80428217D01*
X154455746Y-80410462D01*
X154124061Y-80350619D01*
X154124054Y-80350618D01*
X154121837Y-80350218D01*
X154119598Y-80349977D01*
X154119589Y-80349976D01*
X153687300Y-80303500D01*
X153687290Y-80303499D01*
X153685055Y-80303259D01*
X153283207Y-80288907D01*
X153269963Y-80287731D01*
X153260983Y-80286453D01*
X153253935Y-80286379D01*
X153250170Y-80286339D01*
X153250164Y-80286339D01*
X153246036Y-80286296D01*
X153210576Y-80290587D01*
X153195441Y-80291500D01*
X145168294Y-80291500D01*
X145150540Y-80290243D01*
X145127993Y-80287034D01*
X145127992Y-80287034D01*
X145123910Y-80286453D01*
X145116437Y-80286375D01*
X145113088Y-80286339D01*
X145113083Y-80286339D01*
X145108963Y-80286296D01*
X145104878Y-80286790D01*
X145104865Y-80286791D01*
X145099226Y-80287474D01*
X145088590Y-80288306D01*
X144669944Y-80303259D01*
X144667709Y-80303499D01*
X144667699Y-80303500D01*
X144235410Y-80349975D01*
X144235401Y-80349976D01*
X144233162Y-80350217D01*
X144230945Y-80350617D01*
X144230938Y-80350618D01*
X143803047Y-80427818D01*
X143803037Y-80427820D01*
X143800843Y-80428216D01*
X143375190Y-80536858D01*
X142958371Y-80675588D01*
X142956311Y-80676441D01*
X142956301Y-80676445D01*
X142554585Y-80842842D01*
X142554577Y-80842846D01*
X142552512Y-80843701D01*
X142357807Y-80941163D01*
X142161666Y-81039343D01*
X142161658Y-81039348D01*
X142159679Y-81040338D01*
X141781876Y-81264500D01*
X141780030Y-81265782D01*
X141780028Y-81265783D01*
X141436444Y-81504338D01*
X141421027Y-81515042D01*
X141419299Y-81516435D01*
X141419285Y-81516445D01*
X141275425Y-81632375D01*
X141078970Y-81790688D01*
X140863024Y-81991741D01*
X140784670Y-82064691D01*
X140774469Y-82073228D01*
X140767222Y-82078669D01*
X140756542Y-82089127D01*
X140753999Y-82092371D01*
X140753993Y-82092377D01*
X140734498Y-82117241D01*
X140724439Y-82128590D01*
X133634166Y-89218864D01*
X133631961Y-89221016D01*
X133608109Y-89243729D01*
X133605327Y-89246300D01*
X133588852Y-89261070D01*
X133584542Y-89264763D01*
X133582351Y-89266556D01*
X133543158Y-89288323D01*
X133460250Y-89316547D01*
X133453579Y-89318818D01*
X133447575Y-89322512D01*
X133305095Y-89410166D01*
X133305092Y-89410168D01*
X133299088Y-89413862D01*
X133294053Y-89418793D01*
X133294050Y-89418795D01*
X133218148Y-89493124D01*
X133169493Y-89540771D01*
X133071235Y-89693238D01*
X133009197Y-89863685D01*
X132986463Y-90043640D01*
X133004163Y-90224160D01*
X133061418Y-90396273D01*
X133065065Y-90402295D01*
X133065066Y-90402297D01*
X133147032Y-90537639D01*
X133155380Y-90551424D01*
X133281382Y-90681902D01*
X133433159Y-90781222D01*
X133439763Y-90783678D01*
X133439765Y-90783679D01*
X133596558Y-90841990D01*
X133596560Y-90841990D01*
X133603168Y-90844448D01*
X133666220Y-90852861D01*
X133705091Y-90858048D01*
X133769968Y-90886884D01*
X133808956Y-90946218D01*
X133809676Y-91017211D01*
X133797443Y-91045712D01*
X133797560Y-91045776D01*
X133796882Y-91047017D01*
X133796790Y-91047231D01*
X133795338Y-91049679D01*
X133794348Y-91051658D01*
X133794343Y-91051666D01*
X133768178Y-91103938D01*
X133598701Y-91442512D01*
X133597846Y-91444577D01*
X133597842Y-91444585D01*
X133447737Y-91806971D01*
X133430588Y-91848371D01*
X133429881Y-91850496D01*
X133429880Y-91850498D01*
X133419899Y-91880486D01*
X133291858Y-92265190D01*
X133183216Y-92690843D01*
X133182820Y-92693037D01*
X133182818Y-92693047D01*
X133118404Y-93050072D01*
X133105217Y-93123162D01*
X133104976Y-93125401D01*
X133104975Y-93125410D01*
X133058561Y-93557137D01*
X133058259Y-93559944D01*
X133044680Y-93940151D01*
X133043907Y-93961788D01*
X133042731Y-93975036D01*
X133041453Y-93984016D01*
X133041296Y-93998963D01*
X133042201Y-94006437D01*
X133045587Y-94034420D01*
X133046500Y-94049558D01*
X133046500Y-96481107D01*
X133046462Y-96484186D01*
X133045660Y-96516996D01*
X133045512Y-96520761D01*
X133044999Y-96530167D01*
X133044755Y-96534634D01*
X133031802Y-96583790D01*
X133030053Y-96587314D01*
X133026235Y-96593238D01*
X132964197Y-96763685D01*
X132941463Y-96943640D01*
X124595826Y-96943640D01*
X124582426Y-96922926D01*
X124576136Y-96914757D01*
X124432806Y-96757240D01*
X124425273Y-96750215D01*
X124258139Y-96618222D01*
X124249556Y-96612520D01*
X124212602Y-96592120D01*
X124162631Y-96541687D01*
X124147859Y-96472245D01*
X124172975Y-96405839D01*
X124200327Y-96379232D01*
X124223797Y-96362491D01*
X124379860Y-96251173D01*
X124538096Y-96093489D01*
X124586638Y-96025936D01*
X124665435Y-95916277D01*
X124668453Y-95912077D01*
X124757671Y-95731558D01*
X124765136Y-95716453D01*
X124765137Y-95716451D01*
X124767430Y-95711811D01*
X124815052Y-95555068D01*
X124830865Y-95503023D01*
X124830865Y-95503021D01*
X124832370Y-95498069D01*
X124861529Y-95276590D01*
X124862845Y-95222749D01*
X124863074Y-95213365D01*
X124863074Y-95213361D01*
X124863156Y-95210000D01*
X124844852Y-94987361D01*
X124790431Y-94770702D01*
X124701354Y-94565840D01*
X124652435Y-94490223D01*
X124582822Y-94382617D01*
X124582820Y-94382614D01*
X124580014Y-94378277D01*
X124429670Y-94213051D01*
X124425619Y-94209852D01*
X124425615Y-94209848D01*
X124258414Y-94077800D01*
X124258410Y-94077798D01*
X124254359Y-94074598D01*
X124213053Y-94051796D01*
X124163084Y-94001364D01*
X124148312Y-93931921D01*
X124173428Y-93865516D01*
X124200780Y-93838909D01*
X124247351Y-93805690D01*
X124379860Y-93711173D01*
X124538096Y-93553489D01*
X124597594Y-93470689D01*
X124665435Y-93376277D01*
X124668453Y-93372077D01*
X124677753Y-93353261D01*
X124765136Y-93176453D01*
X124765137Y-93176451D01*
X124767430Y-93171811D01*
X124808044Y-93038134D01*
X124830865Y-92963023D01*
X124830865Y-92963021D01*
X124832370Y-92958069D01*
X124861529Y-92736590D01*
X124862209Y-92708774D01*
X124863074Y-92673365D01*
X124863074Y-92673361D01*
X124863156Y-92670000D01*
X124844852Y-92447361D01*
X124790431Y-92230702D01*
X124701354Y-92025840D01*
X124580014Y-91838277D01*
X124429670Y-91673051D01*
X124425619Y-91669852D01*
X124425615Y-91669848D01*
X124258414Y-91537800D01*
X124258410Y-91537798D01*
X124254359Y-91534598D01*
X124213053Y-91511796D01*
X124163084Y-91461364D01*
X124148312Y-91391921D01*
X124173428Y-91325516D01*
X124200780Y-91298909D01*
X124269582Y-91249833D01*
X124379860Y-91171173D01*
X124538096Y-91013489D01*
X124597594Y-90930689D01*
X124665435Y-90836277D01*
X124668453Y-90832077D01*
X124745179Y-90676834D01*
X124765136Y-90636453D01*
X124765137Y-90636451D01*
X124767430Y-90631811D01*
X124832370Y-90418069D01*
X124861529Y-90196590D01*
X124863156Y-90130000D01*
X124844852Y-89907361D01*
X124790431Y-89690702D01*
X124701354Y-89485840D01*
X124652398Y-89410166D01*
X124582822Y-89302617D01*
X124582820Y-89302614D01*
X124580014Y-89298277D01*
X124560689Y-89277039D01*
X124432798Y-89136488D01*
X124401746Y-89072642D01*
X124410141Y-89002143D01*
X124455317Y-88947375D01*
X124481761Y-88933706D01*
X124588297Y-88893767D01*
X124596705Y-88890615D01*
X124713261Y-88803261D01*
X124800615Y-88686705D01*
X124851745Y-88550316D01*
X124858500Y-88488134D01*
X124858500Y-86691866D01*
X124851745Y-86629684D01*
X124800615Y-86493295D01*
X124713261Y-86376739D01*
X124596705Y-86289385D01*
X124460316Y-86238255D01*
X124398134Y-86231500D01*
X122601866Y-86231500D01*
X122539684Y-86238255D01*
X122403295Y-86289385D01*
X122286739Y-86376739D01*
X122199385Y-86493295D01*
X122148255Y-86629684D01*
X122141500Y-86691866D01*
X122141500Y-88488134D01*
X122148255Y-88550316D01*
X122199385Y-88686705D01*
X122286739Y-88803261D01*
X122403295Y-88890615D01*
X122411704Y-88893767D01*
X122411705Y-88893768D01*
X122520451Y-88934535D01*
X122577216Y-88977176D01*
X122601916Y-89043738D01*
X122586709Y-89113087D01*
X122567316Y-89139568D01*
X122460363Y-89251488D01*
X122440629Y-89272138D01*
X122437715Y-89276410D01*
X122437714Y-89276411D01*
X122429588Y-89288323D01*
X122314743Y-89456680D01*
X122220688Y-89659305D01*
X122160989Y-89874570D01*
X122137251Y-90096695D01*
X122137548Y-90101848D01*
X122137548Y-90101851D01*
X122142955Y-90195622D01*
X122150110Y-90319715D01*
X122151247Y-90324761D01*
X122151248Y-90324767D01*
X122165857Y-90389590D01*
X122199222Y-90537639D01*
X122283266Y-90744616D01*
X122285965Y-90749020D01*
X122393863Y-90925094D01*
X122399987Y-90935088D01*
X122546250Y-91103938D01*
X122718126Y-91246632D01*
X122788595Y-91287811D01*
X122791445Y-91289476D01*
X122840169Y-91341114D01*
X122853240Y-91410897D01*
X122826509Y-91476669D01*
X122786055Y-91510027D01*
X122773607Y-91516507D01*
X122769474Y-91519610D01*
X122769471Y-91519612D01*
X122599100Y-91647530D01*
X122594965Y-91650635D01*
X122440629Y-91812138D01*
X122437715Y-91816410D01*
X122437714Y-91816411D01*
X122411599Y-91854694D01*
X122314743Y-91996680D01*
X122276214Y-92079684D01*
X122223918Y-92192347D01*
X122220688Y-92199305D01*
X122160989Y-92414570D01*
X122137251Y-92636695D01*
X122137548Y-92641848D01*
X122137548Y-92641851D01*
X122143011Y-92736590D01*
X122150110Y-92859715D01*
X122151247Y-92864761D01*
X122151248Y-92864767D01*
X122171119Y-92952939D01*
X122199222Y-93077639D01*
X122237461Y-93171811D01*
X122263812Y-93236705D01*
X122283266Y-93284616D01*
X122399987Y-93475088D01*
X122546250Y-93643938D01*
X122718126Y-93786632D01*
X122750740Y-93805690D01*
X122791445Y-93829476D01*
X122840169Y-93881114D01*
X122853240Y-93950897D01*
X122826509Y-94016669D01*
X122786055Y-94050027D01*
X122773607Y-94056507D01*
X122769474Y-94059610D01*
X122769471Y-94059612D01*
X122599100Y-94187530D01*
X122594965Y-94190635D01*
X122440629Y-94352138D01*
X122314743Y-94536680D01*
X122299803Y-94568866D01*
X122225041Y-94729928D01*
X122220688Y-94739305D01*
X122160989Y-94954570D01*
X122137251Y-95176695D01*
X117208000Y-95176695D01*
X117208000Y-82634000D01*
X117228002Y-82565879D01*
X117281658Y-82519386D01*
X117334000Y-82508000D01*
X120646793Y-82508000D01*
X120667697Y-82509746D01*
X120687461Y-82513071D01*
X120693581Y-82513146D01*
X120695133Y-82513165D01*
X120695138Y-82513165D01*
X120700000Y-82513224D01*
X120704828Y-82512533D01*
X120704947Y-82512525D01*
X120716417Y-82511425D01*
X121041169Y-82495471D01*
X121041173Y-82495471D01*
X121044259Y-82495319D01*
X121385202Y-82444744D01*
X121430356Y-82433434D01*
X121716546Y-82361747D01*
X121716551Y-82361745D01*
X121719547Y-82360995D01*
X121722446Y-82359958D01*
X121722455Y-82359955D01*
X121881810Y-82302936D01*
X122044073Y-82244878D01*
X122046856Y-82243562D01*
X122046865Y-82243558D01*
X122352872Y-82098827D01*
X122352875Y-82098825D01*
X122355654Y-82097511D01*
X122532121Y-81991741D01*
X122648641Y-81921902D01*
X122648650Y-81921896D01*
X122651291Y-81920313D01*
X122746167Y-81849948D01*
X122925650Y-81716835D01*
X122925653Y-81716832D01*
X122928136Y-81714991D01*
X123183522Y-81483522D01*
X123414991Y-81228136D01*
X123423907Y-81216115D01*
X123618470Y-80953776D01*
X123620313Y-80951291D01*
X123621896Y-80948650D01*
X123621902Y-80948641D01*
X123795928Y-80658295D01*
X123797511Y-80655654D01*
X123799002Y-80652501D01*
X123943558Y-80346865D01*
X123943562Y-80346856D01*
X123944878Y-80344073D01*
X124011424Y-80158090D01*
X124059955Y-80022455D01*
X124059958Y-80022446D01*
X124060995Y-80019547D01*
X124144744Y-79685202D01*
X124195319Y-79344259D01*
X124196451Y-79321229D01*
X124210651Y-79032172D01*
X124212244Y-79017456D01*
X124212244Y-79017454D01*
X124213071Y-79012539D01*
X124213224Y-79000000D01*
X124209273Y-78972412D01*
X124208000Y-78954549D01*
X124208000Y-77857655D01*
X151939858Y-77857655D01*
X151975104Y-78116638D01*
X151976412Y-78121124D01*
X151976412Y-78121126D01*
X151996098Y-78188664D01*
X152048243Y-78367567D01*
X152157668Y-78604928D01*
X152160231Y-78608837D01*
X152298410Y-78819596D01*
X152298414Y-78819601D01*
X152300976Y-78823509D01*
X152417934Y-78954549D01*
X152452905Y-78993730D01*
X152475018Y-79018506D01*
X152675970Y-79185637D01*
X152679973Y-79188066D01*
X152895422Y-79318804D01*
X152895426Y-79318806D01*
X152899419Y-79321229D01*
X153140455Y-79422303D01*
X153393783Y-79486641D01*
X153398434Y-79487109D01*
X153398438Y-79487110D01*
X153591308Y-79506531D01*
X153610867Y-79508500D01*
X153766354Y-79508500D01*
X153768679Y-79508327D01*
X153768685Y-79508327D01*
X153956000Y-79494407D01*
X153956004Y-79494406D01*
X153960652Y-79494061D01*
X153965200Y-79493032D01*
X153965206Y-79493031D01*
X154151601Y-79450853D01*
X154215577Y-79436377D01*
X154251769Y-79422303D01*
X154454824Y-79343340D01*
X154454827Y-79343339D01*
X154459177Y-79341647D01*
X154492608Y-79322540D01*
X154576051Y-79274848D01*
X154686098Y-79211951D01*
X154891357Y-79050138D01*
X155070443Y-78859763D01*
X155219424Y-78645009D01*
X155335025Y-78410593D01*
X155414707Y-78161665D01*
X155456721Y-77903693D01*
X155460142Y-77642345D01*
X155424896Y-77383362D01*
X155410473Y-77333877D01*
X155353068Y-77136932D01*
X155351757Y-77132433D01*
X155242332Y-76895072D01*
X155209519Y-76845024D01*
X155101590Y-76680404D01*
X155101586Y-76680399D01*
X155099024Y-76676491D01*
X154924982Y-76481494D01*
X154724030Y-76314363D01*
X154676844Y-76285730D01*
X154504578Y-76181196D01*
X154504574Y-76181194D01*
X154500581Y-76178771D01*
X154259545Y-76077697D01*
X154006217Y-76013359D01*
X154001566Y-76012891D01*
X154001562Y-76012890D01*
X153792271Y-75991816D01*
X153789133Y-75991500D01*
X153633646Y-75991500D01*
X153631321Y-75991673D01*
X153631315Y-75991673D01*
X153444000Y-76005593D01*
X153443996Y-76005594D01*
X153439348Y-76005939D01*
X153434800Y-76006968D01*
X153434794Y-76006969D01*
X153248399Y-76049147D01*
X153184423Y-76063623D01*
X153180071Y-76065315D01*
X153180069Y-76065316D01*
X152945176Y-76156660D01*
X152945173Y-76156661D01*
X152940823Y-76158353D01*
X152713902Y-76288049D01*
X152508643Y-76449862D01*
X152329557Y-76640237D01*
X152180576Y-76854991D01*
X152064975Y-77089407D01*
X151985293Y-77338335D01*
X151943279Y-77596307D01*
X151939858Y-77857655D01*
X124208000Y-77857655D01*
X124208000Y-75634000D01*
X124228002Y-75565879D01*
X124281658Y-75519386D01*
X124334000Y-75508000D01*
X169650673Y-75508000D01*
X169670057Y-75509500D01*
G37*
%TD.AperFunction*%
%TD*%
M02*
