%FSLAX45Y45*%
G04 Gerber Fmt 4.5, Leading zero omitted, Abs format (unit mm)*
G04 Created by KiCad (PCBNEW (6.0.2)) date 2022-08-31 11:18:58*
%MOMM*%
%LPD*%
G01*
G04 APERTURE LIST*
%TA.AperFunction,Profile*%
%ADD10C,0.038100*%
%TD*%
%ADD11C,0.200000*%
%ADD12C,0.250000*%
G04 APERTURE END LIST*
D10*
X16370000Y-10400000D02*
X11770000Y-10400000D01*
X12370000Y-7500000D02*
X12370000Y-7900000D01*
X16370000Y-10000000D02*
X16370000Y-10400000D01*
X12070000Y-8200000D02*
X11670000Y-8200000D01*
X17070000Y-7600000D02*
X17070000Y-9700000D01*
X16670000Y-9700000D02*
X17070000Y-9700000D01*
X12370000Y-7500000D02*
X16970000Y-7500000D01*
X17070000Y-7600000D02*
G75*
G03*
X16970000Y-7500000I-100000J0D01*
G01*
X11670000Y-10300000D02*
X11670000Y-8200000D01*
X11670000Y-10300000D02*
G75*
G03*
X11770000Y-10400000I100000J0D01*
G01*
X16670000Y-9700000D02*
G75*
G03*
X16370000Y-10000000I0J-300000D01*
G01*
X12070000Y-8200000D02*
G75*
G03*
X12370000Y-7900000I0J300000D01*
G01*
D11*
D12*
X13245000Y-10000000D02*
X13495000Y-10250000D01*
X13495000Y-10000000D02*
X13245000Y-10250000D01*
X15245000Y-7650000D02*
X15495000Y-7900000D01*
X15495000Y-7650000D02*
X15245000Y-7900000D01*
D11*
X11925714Y-10712381D02*
X11925714Y-10512381D01*
X11973333Y-10512381D01*
X12001904Y-10521905D01*
X12020952Y-10540953D01*
X12030476Y-10560000D01*
X12040000Y-10598095D01*
X12040000Y-10626667D01*
X12030476Y-10664762D01*
X12020952Y-10683810D01*
X12001904Y-10702857D01*
X11973333Y-10712381D01*
X11925714Y-10712381D01*
X12125714Y-10712381D02*
X12125714Y-10579048D01*
X12125714Y-10617143D02*
X12135238Y-10598095D01*
X12144762Y-10588572D01*
X12163809Y-10579048D01*
X12182857Y-10579048D01*
X12249523Y-10712381D02*
X12249523Y-10579048D01*
X12249523Y-10512381D02*
X12240000Y-10521905D01*
X12249523Y-10531429D01*
X12259047Y-10521905D01*
X12249523Y-10512381D01*
X12249523Y-10531429D01*
X12373333Y-10712381D02*
X12354285Y-10702857D01*
X12344762Y-10683810D01*
X12344762Y-10512381D01*
X12478095Y-10712381D02*
X12459047Y-10702857D01*
X12449523Y-10683810D01*
X12449523Y-10512381D01*
X12706666Y-10712381D02*
X12706666Y-10512381D01*
X12773333Y-10655238D01*
X12840000Y-10512381D01*
X12840000Y-10712381D01*
X13020952Y-10712381D02*
X13020952Y-10607619D01*
X13011428Y-10588572D01*
X12992381Y-10579048D01*
X12954285Y-10579048D01*
X12935238Y-10588572D01*
X13020952Y-10702857D02*
X13001904Y-10712381D01*
X12954285Y-10712381D01*
X12935238Y-10702857D01*
X12925714Y-10683810D01*
X12925714Y-10664762D01*
X12935238Y-10645715D01*
X12954285Y-10636191D01*
X13001904Y-10636191D01*
X13020952Y-10626667D01*
X13116190Y-10579048D02*
X13116190Y-10779048D01*
X13116190Y-10588572D02*
X13135238Y-10579048D01*
X13173333Y-10579048D01*
X13192381Y-10588572D01*
X13201904Y-10598095D01*
X13211428Y-10617143D01*
X13211428Y-10674286D01*
X13201904Y-10693334D01*
X13192381Y-10702857D01*
X13173333Y-10712381D01*
X13135238Y-10712381D01*
X13116190Y-10702857D01*
X13297143Y-10693334D02*
X13306666Y-10702857D01*
X13297143Y-10712381D01*
X13287619Y-10702857D01*
X13297143Y-10693334D01*
X13297143Y-10712381D01*
X13297143Y-10588572D02*
X13306666Y-10598095D01*
X13297143Y-10607619D01*
X13287619Y-10598095D01*
X13297143Y-10588572D01*
X13297143Y-10607619D01*
X11468095Y-10941905D02*
X11668095Y-11141905D01*
X11668095Y-10941905D02*
X11468095Y-11141905D01*
X11916190Y-10951429D02*
X11925714Y-10941905D01*
X11944762Y-10932381D01*
X11992381Y-10932381D01*
X12011428Y-10941905D01*
X12020952Y-10951429D01*
X12030476Y-10970476D01*
X12030476Y-10989524D01*
X12020952Y-11018095D01*
X11906666Y-11132381D01*
X12030476Y-11132381D01*
X12116190Y-11113334D02*
X12125714Y-11122857D01*
X12116190Y-11132381D01*
X12106666Y-11122857D01*
X12116190Y-11113334D01*
X12116190Y-11132381D01*
X12306666Y-10932381D02*
X12211428Y-10932381D01*
X12201904Y-11027619D01*
X12211428Y-11018095D01*
X12230476Y-11008572D01*
X12278095Y-11008572D01*
X12297143Y-11018095D01*
X12306666Y-11027619D01*
X12316190Y-11046667D01*
X12316190Y-11094286D01*
X12306666Y-11113334D01*
X12297143Y-11122857D01*
X12278095Y-11132381D01*
X12230476Y-11132381D01*
X12211428Y-11122857D01*
X12201904Y-11113334D01*
X12440000Y-10932381D02*
X12459047Y-10932381D01*
X12478095Y-10941905D01*
X12487619Y-10951429D01*
X12497143Y-10970476D01*
X12506666Y-11008572D01*
X12506666Y-11056191D01*
X12497143Y-11094286D01*
X12487619Y-11113334D01*
X12478095Y-11122857D01*
X12459047Y-11132381D01*
X12440000Y-11132381D01*
X12420952Y-11122857D01*
X12411428Y-11113334D01*
X12401904Y-11094286D01*
X12392381Y-11056191D01*
X12392381Y-11008572D01*
X12401904Y-10970476D01*
X12411428Y-10951429D01*
X12420952Y-10941905D01*
X12440000Y-10932381D01*
X12630476Y-10932381D02*
X12649523Y-10932381D01*
X12668571Y-10941905D01*
X12678095Y-10951429D01*
X12687619Y-10970476D01*
X12697143Y-11008572D01*
X12697143Y-11056191D01*
X12687619Y-11094286D01*
X12678095Y-11113334D01*
X12668571Y-11122857D01*
X12649523Y-11132381D01*
X12630476Y-11132381D01*
X12611428Y-11122857D01*
X12601904Y-11113334D01*
X12592381Y-11094286D01*
X12582857Y-11056191D01*
X12582857Y-11008572D01*
X12592381Y-10970476D01*
X12601904Y-10951429D01*
X12611428Y-10941905D01*
X12630476Y-10932381D01*
X12782857Y-11132381D02*
X12782857Y-10999048D01*
X12782857Y-11018095D02*
X12792381Y-11008572D01*
X12811428Y-10999048D01*
X12840000Y-10999048D01*
X12859047Y-11008572D01*
X12868571Y-11027619D01*
X12868571Y-11132381D01*
X12868571Y-11027619D02*
X12878095Y-11008572D01*
X12897143Y-10999048D01*
X12925714Y-10999048D01*
X12944762Y-11008572D01*
X12954285Y-11027619D01*
X12954285Y-11132381D01*
X13049523Y-11132381D02*
X13049523Y-10999048D01*
X13049523Y-11018095D02*
X13059047Y-11008572D01*
X13078095Y-10999048D01*
X13106666Y-10999048D01*
X13125714Y-11008572D01*
X13135238Y-11027619D01*
X13135238Y-11132381D01*
X13135238Y-11027619D02*
X13144762Y-11008572D01*
X13163809Y-10999048D01*
X13192381Y-10999048D01*
X13211428Y-11008572D01*
X13220952Y-11027619D01*
X13220952Y-11132381D01*
X13611428Y-10922857D02*
X13440000Y-11180000D01*
X13868571Y-10932381D02*
X13887619Y-10932381D01*
X13906666Y-10941905D01*
X13916190Y-10951429D01*
X13925714Y-10970476D01*
X13935238Y-11008572D01*
X13935238Y-11056191D01*
X13925714Y-11094286D01*
X13916190Y-11113334D01*
X13906666Y-11122857D01*
X13887619Y-11132381D01*
X13868571Y-11132381D01*
X13849523Y-11122857D01*
X13840000Y-11113334D01*
X13830476Y-11094286D01*
X13820952Y-11056191D01*
X13820952Y-11008572D01*
X13830476Y-10970476D01*
X13840000Y-10951429D01*
X13849523Y-10941905D01*
X13868571Y-10932381D01*
X14020952Y-11113334D02*
X14030476Y-11122857D01*
X14020952Y-11132381D01*
X14011428Y-11122857D01*
X14020952Y-11113334D01*
X14020952Y-11132381D01*
X14154285Y-10932381D02*
X14173333Y-10932381D01*
X14192381Y-10941905D01*
X14201904Y-10951429D01*
X14211428Y-10970476D01*
X14220952Y-11008572D01*
X14220952Y-11056191D01*
X14211428Y-11094286D01*
X14201904Y-11113334D01*
X14192381Y-11122857D01*
X14173333Y-11132381D01*
X14154285Y-11132381D01*
X14135238Y-11122857D01*
X14125714Y-11113334D01*
X14116190Y-11094286D01*
X14106666Y-11056191D01*
X14106666Y-11008572D01*
X14116190Y-10970476D01*
X14125714Y-10951429D01*
X14135238Y-10941905D01*
X14154285Y-10932381D01*
X14316190Y-11132381D02*
X14354285Y-11132381D01*
X14373333Y-11122857D01*
X14382857Y-11113334D01*
X14401904Y-11084762D01*
X14411428Y-11046667D01*
X14411428Y-10970476D01*
X14401904Y-10951429D01*
X14392381Y-10941905D01*
X14373333Y-10932381D01*
X14335238Y-10932381D01*
X14316190Y-10941905D01*
X14306666Y-10951429D01*
X14297143Y-10970476D01*
X14297143Y-11018095D01*
X14306666Y-11037143D01*
X14316190Y-11046667D01*
X14335238Y-11056191D01*
X14373333Y-11056191D01*
X14392381Y-11046667D01*
X14401904Y-11037143D01*
X14411428Y-11018095D01*
X14525714Y-11018095D02*
X14506666Y-11008572D01*
X14497143Y-10999048D01*
X14487619Y-10980000D01*
X14487619Y-10970476D01*
X14497143Y-10951429D01*
X14506666Y-10941905D01*
X14525714Y-10932381D01*
X14563809Y-10932381D01*
X14582857Y-10941905D01*
X14592381Y-10951429D01*
X14601904Y-10970476D01*
X14601904Y-10980000D01*
X14592381Y-10999048D01*
X14582857Y-11008572D01*
X14563809Y-11018095D01*
X14525714Y-11018095D01*
X14506666Y-11027619D01*
X14497143Y-11037143D01*
X14487619Y-11056191D01*
X14487619Y-11094286D01*
X14497143Y-11113334D01*
X14506666Y-11122857D01*
X14525714Y-11132381D01*
X14563809Y-11132381D01*
X14582857Y-11122857D01*
X14592381Y-11113334D01*
X14601904Y-11094286D01*
X14601904Y-11056191D01*
X14592381Y-11037143D01*
X14582857Y-11027619D01*
X14563809Y-11018095D01*
X14773333Y-10999048D02*
X14773333Y-11132381D01*
X14725714Y-10922857D02*
X14678095Y-11065715D01*
X14801904Y-11065715D01*
X14868571Y-10932381D02*
X14868571Y-10970476D01*
X14944762Y-10932381D02*
X14944762Y-10970476D01*
X15240000Y-11208572D02*
X15230476Y-11199048D01*
X15211428Y-11170476D01*
X15201904Y-11151429D01*
X15192381Y-11122857D01*
X15182857Y-11075238D01*
X15182857Y-11037143D01*
X15192381Y-10989524D01*
X15201904Y-10960953D01*
X15211428Y-10941905D01*
X15230476Y-10913334D01*
X15240000Y-10903810D01*
X15306666Y-10951429D02*
X15316190Y-10941905D01*
X15335238Y-10932381D01*
X15382857Y-10932381D01*
X15401904Y-10941905D01*
X15411428Y-10951429D01*
X15420952Y-10970476D01*
X15420952Y-10989524D01*
X15411428Y-11018095D01*
X15297143Y-11132381D01*
X15420952Y-11132381D01*
X15659047Y-11132381D02*
X15659047Y-10932381D01*
X15744762Y-11132381D02*
X15744762Y-11027619D01*
X15735238Y-11008572D01*
X15716190Y-10999048D01*
X15687619Y-10999048D01*
X15668571Y-11008572D01*
X15659047Y-11018095D01*
X15868571Y-11132381D02*
X15849523Y-11122857D01*
X15840000Y-11113334D01*
X15830476Y-11094286D01*
X15830476Y-11037143D01*
X15840000Y-11018095D01*
X15849523Y-11008572D01*
X15868571Y-10999048D01*
X15897143Y-10999048D01*
X15916190Y-11008572D01*
X15925714Y-11018095D01*
X15935238Y-11037143D01*
X15935238Y-11094286D01*
X15925714Y-11113334D01*
X15916190Y-11122857D01*
X15897143Y-11132381D01*
X15868571Y-11132381D01*
X16049523Y-11132381D02*
X16030476Y-11122857D01*
X16020952Y-11103810D01*
X16020952Y-10932381D01*
X16201904Y-11122857D02*
X16182857Y-11132381D01*
X16144762Y-11132381D01*
X16125714Y-11122857D01*
X16116190Y-11103810D01*
X16116190Y-11027619D01*
X16125714Y-11008572D01*
X16144762Y-10999048D01*
X16182857Y-10999048D01*
X16201904Y-11008572D01*
X16211428Y-11027619D01*
X16211428Y-11046667D01*
X16116190Y-11065715D01*
X16287619Y-11122857D02*
X16306666Y-11132381D01*
X16344762Y-11132381D01*
X16363809Y-11122857D01*
X16373333Y-11103810D01*
X16373333Y-11094286D01*
X16363809Y-11075238D01*
X16344762Y-11065715D01*
X16316190Y-11065715D01*
X16297143Y-11056191D01*
X16287619Y-11037143D01*
X16287619Y-11027619D01*
X16297143Y-11008572D01*
X16316190Y-10999048D01*
X16344762Y-10999048D01*
X16363809Y-11008572D01*
X16440000Y-11208572D02*
X16449523Y-11199048D01*
X16468571Y-11170476D01*
X16478095Y-11151429D01*
X16487619Y-11122857D01*
X16497143Y-11075238D01*
X16497143Y-11037143D01*
X16487619Y-10989524D01*
X16478095Y-10960953D01*
X16468571Y-10941905D01*
X16449523Y-10913334D01*
X16440000Y-10903810D01*
X16801905Y-11208572D02*
X16792381Y-11199048D01*
X16773333Y-11170476D01*
X16763809Y-11151429D01*
X16754285Y-11122857D01*
X16744762Y-11075238D01*
X16744762Y-11037143D01*
X16754285Y-10989524D01*
X16763809Y-10960953D01*
X16773333Y-10941905D01*
X16792381Y-10913334D01*
X16801905Y-10903810D01*
X16878095Y-10999048D02*
X16878095Y-11132381D01*
X16878095Y-11018095D02*
X16887619Y-11008572D01*
X16906666Y-10999048D01*
X16935238Y-10999048D01*
X16954285Y-11008572D01*
X16963809Y-11027619D01*
X16963809Y-11132381D01*
X17087619Y-11132381D02*
X17068571Y-11122857D01*
X17059047Y-11113334D01*
X17049524Y-11094286D01*
X17049524Y-11037143D01*
X17059047Y-11018095D01*
X17068571Y-11008572D01*
X17087619Y-10999048D01*
X17116190Y-10999048D01*
X17135238Y-11008572D01*
X17144762Y-11018095D01*
X17154285Y-11037143D01*
X17154285Y-11094286D01*
X17144762Y-11113334D01*
X17135238Y-11122857D01*
X17116190Y-11132381D01*
X17087619Y-11132381D01*
X17211428Y-10999048D02*
X17287619Y-10999048D01*
X17240000Y-10932381D02*
X17240000Y-11103810D01*
X17249524Y-11122857D01*
X17268571Y-11132381D01*
X17287619Y-11132381D01*
X17506666Y-10999048D02*
X17506666Y-11199048D01*
X17506666Y-11008572D02*
X17525714Y-10999048D01*
X17563809Y-10999048D01*
X17582857Y-11008572D01*
X17592381Y-11018095D01*
X17601905Y-11037143D01*
X17601905Y-11094286D01*
X17592381Y-11113334D01*
X17582857Y-11122857D01*
X17563809Y-11132381D01*
X17525714Y-11132381D01*
X17506666Y-11122857D01*
X17716190Y-11132381D02*
X17697143Y-11122857D01*
X17687619Y-11103810D01*
X17687619Y-10932381D01*
X17878095Y-11132381D02*
X17878095Y-11027619D01*
X17868571Y-11008572D01*
X17849524Y-10999048D01*
X17811428Y-10999048D01*
X17792381Y-11008572D01*
X17878095Y-11122857D02*
X17859047Y-11132381D01*
X17811428Y-11132381D01*
X17792381Y-11122857D01*
X17782857Y-11103810D01*
X17782857Y-11084762D01*
X17792381Y-11065715D01*
X17811428Y-11056191D01*
X17859047Y-11056191D01*
X17878095Y-11046667D01*
X17944762Y-10999048D02*
X18020952Y-10999048D01*
X17973333Y-10932381D02*
X17973333Y-11103810D01*
X17982857Y-11122857D01*
X18001905Y-11132381D01*
X18020952Y-11132381D01*
X18163809Y-11122857D02*
X18144762Y-11132381D01*
X18106666Y-11132381D01*
X18087619Y-11122857D01*
X18078095Y-11103810D01*
X18078095Y-11027619D01*
X18087619Y-11008572D01*
X18106666Y-10999048D01*
X18144762Y-10999048D01*
X18163809Y-11008572D01*
X18173333Y-11027619D01*
X18173333Y-11046667D01*
X18078095Y-11065715D01*
X18344762Y-11132381D02*
X18344762Y-10932381D01*
X18344762Y-11122857D02*
X18325714Y-11132381D01*
X18287619Y-11132381D01*
X18268571Y-11122857D01*
X18259047Y-11113334D01*
X18249524Y-11094286D01*
X18249524Y-11037143D01*
X18259047Y-11018095D01*
X18268571Y-11008572D01*
X18287619Y-10999048D01*
X18325714Y-10999048D01*
X18344762Y-11008572D01*
X18420952Y-11208572D02*
X18430476Y-11199048D01*
X18449524Y-11170476D01*
X18459047Y-11151429D01*
X18468571Y-11122857D01*
X18478095Y-11075238D01*
X18478095Y-11037143D01*
X18468571Y-10989524D01*
X18459047Y-10960953D01*
X18449524Y-10941905D01*
X18430476Y-10913334D01*
X18420952Y-10903810D01*
M02*
