M48
; DRILL file {KiCad (6.0.2)} date Wed Aug 31 11:18:56 2022
; FORMAT={-:-/ absolute / metric / decimal}
; #@! TF.CreationDate,2022-08-31T11:18:56+12:00
; #@! TF.GenerationSoftware,Kicad,Pcbnew,(6.0.2)
; #@! TF.FileFunction,Plated,1,2,PTH
FMAT,2
METRIC
; #@! TA.AperFunction,Plated,PTH,ViaDrill
T1C0.300
; #@! TA.AperFunction,Plated,PTH,ViaDrill
T2C0.400
; #@! TA.AperFunction,Plated,PTH,ComponentDrill
T3C0.400
; #@! TA.AperFunction,Plated,PTH,ComponentDrill
T4C1.000
; #@! TA.AperFunction,Plated,PTH,ComponentDrill
T5C1.395
%
G90
G05
T1
X118.0Y-83.0
X118.0Y-85.0
X118.0Y-89.0
X118.0Y-97.0
X118.0Y-99.0
X118.0Y-101.0
X118.0Y-103.0
X119.0Y-84.0
X119.0Y-86.0
X119.0Y-94.0
X119.0Y-102.0
X120.0Y-83.0
X120.0Y-85.0
X120.0Y-89.0
X120.0Y-99.0
X120.0Y-103.0
X121.0Y-84.0
X121.0Y-86.0
X121.0Y-94.0
X121.0Y-102.0
X122.0Y-83.0
X122.0Y-85.0
X122.0Y-89.0
X122.0Y-99.0
X122.0Y-103.0
X123.0Y-82.0
X123.0Y-84.0
X123.0Y-102.0
X124.0Y-81.0
X124.0Y-83.0
X124.0Y-103.0
X125.0Y-76.0
X125.0Y-80.0
X125.0Y-82.0
X125.0Y-84.0
X125.0Y-88.0
X125.0Y-90.0
X125.0Y-98.0
X125.0Y-100.0
X125.0Y-102.0
X126.0Y-81.0
X126.0Y-83.0
X126.0Y-85.0
X126.0Y-89.0
X126.0Y-99.0
X126.0Y-101.0
X126.0Y-103.0
X127.0Y-76.0
X127.0Y-80.0
X127.0Y-82.0
X127.0Y-84.0
X127.0Y-88.0
X127.0Y-100.0
X127.0Y-102.0
X128.0Y-81.0
X128.0Y-83.0
X128.0Y-89.0
X128.0Y-101.0
X128.0Y-103.0
X129.0Y-76.0
X129.0Y-90.0
X129.0Y-93.0
X129.0Y-102.0
X130.0Y-94.0
X130.0Y-103.0
X130.4Y-99.0
X131.0Y-76.0
X131.0Y-80.0
X131.0Y-100.0
X132.0Y-99.0
X132.75Y-93.0
X133.0Y-76.0
X133.0Y-80.0
X133.755Y-96.955
X133.8Y-90.055
X134.0Y-88.0
X135.0Y-76.0
X135.0Y-78.0
X138.0Y-102.0
X140.0Y-102.0
X142.0Y-102.0
X144.0Y-102.0
X146.0Y-102.0
X148.0Y-102.0
X150.0Y-102.0
X152.0Y-102.0
X153.0Y-101.0
X154.0Y-94.0
X154.0Y-96.0
X154.0Y-102.0
X155.0Y-101.0
X156.0Y-102.0
X157.0Y-101.0
X158.0Y-102.0
X159.0Y-101.0
X161.0Y-103.0
X162.0Y-87.5
X162.0Y-88.75
X162.0Y-102.0
X163.0Y-97.0
X163.0Y-99.0
X163.0Y-101.0
X163.0Y-103.0
X165.0Y-95.0
X166.0Y-96.0
T2
X146.5Y-83.0
X146.5Y-84.0
X148.0Y-83.0
X148.0Y-84.0
X148.5Y-93.5
X151.0Y-93.5
X158.0Y-81.5
X163.5Y-87.5
X163.5Y-89.0
X165.0Y-87.5
X165.0Y-89.0
T3
X137.32Y-93.24
X137.32Y-94.54
X138.32Y-92.59
X138.32Y-93.89
X138.32Y-95.19
T4
X123.5Y-87.59
X123.5Y-90.13
X123.5Y-92.67
X123.5Y-95.21
X123.5Y-97.75
X123.5Y-100.29
X141.56Y-86.9
X144.1Y-86.9
X164.725Y-80.275
X164.725Y-82.815
X164.725Y-85.355
X167.265Y-80.275
X167.265Y-82.815
X167.265Y-85.355
T5
X138.1Y-90.315
X138.1Y-97.465
T0
M30
