%FSLAX45Y45*%
G04 Gerber Fmt 4.5, Leading zero omitted, Abs format (unit mm)*
G04 Created by KiCad (PCBNEW (6.0.2)) date 2022-08-31 11:18:58*
%MOMM*%
%LPD*%
G01*
G04 APERTURE LIST*
%TA.AperFunction,Profile*%
%ADD10C,0.038100*%
%TD*%
%ADD11C,0.200000*%
%ADD12C,0.030000*%
%ADD13C,0.040000*%
%ADD14C,0.100000*%
%ADD15C,0.139460*%
G04 APERTURE END LIST*
D10*
X16370000Y-10400000D02*
X11770000Y-10400000D01*
X12370000Y-7500000D02*
X12370000Y-7900000D01*
X16370000Y-10000000D02*
X16370000Y-10400000D01*
X12070000Y-8200000D02*
X11670000Y-8200000D01*
X17070000Y-7600000D02*
X17070000Y-9700000D01*
X16670000Y-9700000D02*
X17070000Y-9700000D01*
X12370000Y-7500000D02*
X16970000Y-7500000D01*
X17070000Y-7600000D02*
G75*
G03*
X16970000Y-7500000I-100000J0D01*
G01*
X11670000Y-10300000D02*
X11670000Y-8200000D01*
X11670000Y-10300000D02*
G75*
G03*
X11770000Y-10400000I100000J0D01*
G01*
X16670000Y-9700000D02*
G75*
G03*
X16370000Y-10000000I0J-300000D01*
G01*
X12070000Y-8200000D02*
G75*
G03*
X12370000Y-7900000I0J300000D01*
G01*
D11*
D12*
X11785000Y-8285000D02*
X11815000Y-8315000D01*
X11815000Y-8285000D02*
X11785000Y-8315000D01*
X11785000Y-8485000D02*
X11815000Y-8515000D01*
X11815000Y-8485000D02*
X11785000Y-8515000D01*
X11785000Y-8885000D02*
X11815000Y-8915000D01*
X11815000Y-8885000D02*
X11785000Y-8915000D01*
X11785000Y-9685000D02*
X11815000Y-9715000D01*
X11815000Y-9685000D02*
X11785000Y-9715000D01*
X11785000Y-9885000D02*
X11815000Y-9915000D01*
X11815000Y-9885000D02*
X11785000Y-9915000D01*
X11785000Y-10085000D02*
X11815000Y-10115000D01*
X11815000Y-10085000D02*
X11785000Y-10115000D01*
X11785000Y-10285000D02*
X11815000Y-10315000D01*
X11815000Y-10285000D02*
X11785000Y-10315000D01*
X11885000Y-8385000D02*
X11915000Y-8415000D01*
X11915000Y-8385000D02*
X11885000Y-8415000D01*
X11885000Y-8585000D02*
X11915000Y-8615000D01*
X11915000Y-8585000D02*
X11885000Y-8615000D01*
X11885000Y-9385000D02*
X11915000Y-9415000D01*
X11915000Y-9385000D02*
X11885000Y-9415000D01*
X11885000Y-10185000D02*
X11915000Y-10215000D01*
X11915000Y-10185000D02*
X11885000Y-10215000D01*
X11985000Y-8285000D02*
X12015000Y-8315000D01*
X12015000Y-8285000D02*
X11985000Y-8315000D01*
X11985000Y-8485000D02*
X12015000Y-8515000D01*
X12015000Y-8485000D02*
X11985000Y-8515000D01*
X11985000Y-8885000D02*
X12015000Y-8915000D01*
X12015000Y-8885000D02*
X11985000Y-8915000D01*
X11985000Y-9885000D02*
X12015000Y-9915000D01*
X12015000Y-9885000D02*
X11985000Y-9915000D01*
X11985000Y-10285000D02*
X12015000Y-10315000D01*
X12015000Y-10285000D02*
X11985000Y-10315000D01*
X12085000Y-8385000D02*
X12115000Y-8415000D01*
X12115000Y-8385000D02*
X12085000Y-8415000D01*
X12085000Y-8585000D02*
X12115000Y-8615000D01*
X12115000Y-8585000D02*
X12085000Y-8615000D01*
X12085000Y-9385000D02*
X12115000Y-9415000D01*
X12115000Y-9385000D02*
X12085000Y-9415000D01*
X12085000Y-10185000D02*
X12115000Y-10215000D01*
X12115000Y-10185000D02*
X12085000Y-10215000D01*
X12185000Y-8285000D02*
X12215000Y-8315000D01*
X12215000Y-8285000D02*
X12185000Y-8315000D01*
X12185000Y-8485000D02*
X12215000Y-8515000D01*
X12215000Y-8485000D02*
X12185000Y-8515000D01*
X12185000Y-8885000D02*
X12215000Y-8915000D01*
X12215000Y-8885000D02*
X12185000Y-8915000D01*
X12185000Y-9885000D02*
X12215000Y-9915000D01*
X12215000Y-9885000D02*
X12185000Y-9915000D01*
X12185000Y-10285000D02*
X12215000Y-10315000D01*
X12215000Y-10285000D02*
X12185000Y-10315000D01*
X12285000Y-8185000D02*
X12315000Y-8215000D01*
X12315000Y-8185000D02*
X12285000Y-8215000D01*
X12285000Y-8385000D02*
X12315000Y-8415000D01*
X12315000Y-8385000D02*
X12285000Y-8415000D01*
X12285000Y-10185000D02*
X12315000Y-10215000D01*
X12315000Y-10185000D02*
X12285000Y-10215000D01*
X12385000Y-8085000D02*
X12415000Y-8115000D01*
X12415000Y-8085000D02*
X12385000Y-8115000D01*
X12385000Y-8285000D02*
X12415000Y-8315000D01*
X12415000Y-8285000D02*
X12385000Y-8315000D01*
X12385000Y-10285000D02*
X12415000Y-10315000D01*
X12415000Y-10285000D02*
X12385000Y-10315000D01*
X12485000Y-7585000D02*
X12515000Y-7615000D01*
X12515000Y-7585000D02*
X12485000Y-7615000D01*
X12485000Y-7985000D02*
X12515000Y-8015000D01*
X12515000Y-7985000D02*
X12485000Y-8015000D01*
X12485000Y-8185000D02*
X12515000Y-8215000D01*
X12515000Y-8185000D02*
X12485000Y-8215000D01*
X12485000Y-8385000D02*
X12515000Y-8415000D01*
X12515000Y-8385000D02*
X12485000Y-8415000D01*
X12485000Y-8785000D02*
X12515000Y-8815000D01*
X12515000Y-8785000D02*
X12485000Y-8815000D01*
X12485000Y-8985000D02*
X12515000Y-9015000D01*
X12515000Y-8985000D02*
X12485000Y-9015000D01*
X12485000Y-9785000D02*
X12515000Y-9815000D01*
X12515000Y-9785000D02*
X12485000Y-9815000D01*
X12485000Y-9985000D02*
X12515000Y-10015000D01*
X12515000Y-9985000D02*
X12485000Y-10015000D01*
X12485000Y-10185000D02*
X12515000Y-10215000D01*
X12515000Y-10185000D02*
X12485000Y-10215000D01*
X12585000Y-8085000D02*
X12615000Y-8115000D01*
X12615000Y-8085000D02*
X12585000Y-8115000D01*
X12585000Y-8285000D02*
X12615000Y-8315000D01*
X12615000Y-8285000D02*
X12585000Y-8315000D01*
X12585000Y-8485000D02*
X12615000Y-8515000D01*
X12615000Y-8485000D02*
X12585000Y-8515000D01*
X12585000Y-8885000D02*
X12615000Y-8915000D01*
X12615000Y-8885000D02*
X12585000Y-8915000D01*
X12585000Y-9885000D02*
X12615000Y-9915000D01*
X12615000Y-9885000D02*
X12585000Y-9915000D01*
X12585000Y-10085000D02*
X12615000Y-10115000D01*
X12615000Y-10085000D02*
X12585000Y-10115000D01*
X12585000Y-10285000D02*
X12615000Y-10315000D01*
X12615000Y-10285000D02*
X12585000Y-10315000D01*
X12685000Y-7585000D02*
X12715000Y-7615000D01*
X12715000Y-7585000D02*
X12685000Y-7615000D01*
X12685000Y-7985000D02*
X12715000Y-8015000D01*
X12715000Y-7985000D02*
X12685000Y-8015000D01*
X12685000Y-8185000D02*
X12715000Y-8215000D01*
X12715000Y-8185000D02*
X12685000Y-8215000D01*
X12685000Y-8385000D02*
X12715000Y-8415000D01*
X12715000Y-8385000D02*
X12685000Y-8415000D01*
X12685000Y-8785000D02*
X12715000Y-8815000D01*
X12715000Y-8785000D02*
X12685000Y-8815000D01*
X12685000Y-9985000D02*
X12715000Y-10015000D01*
X12715000Y-9985000D02*
X12685000Y-10015000D01*
X12685000Y-10185000D02*
X12715000Y-10215000D01*
X12715000Y-10185000D02*
X12685000Y-10215000D01*
X12785000Y-8085000D02*
X12815000Y-8115000D01*
X12815000Y-8085000D02*
X12785000Y-8115000D01*
X12785000Y-8285000D02*
X12815000Y-8315000D01*
X12815000Y-8285000D02*
X12785000Y-8315000D01*
X12785000Y-8885000D02*
X12815000Y-8915000D01*
X12815000Y-8885000D02*
X12785000Y-8915000D01*
X12785000Y-10085000D02*
X12815000Y-10115000D01*
X12815000Y-10085000D02*
X12785000Y-10115000D01*
X12785000Y-10285000D02*
X12815000Y-10315000D01*
X12815000Y-10285000D02*
X12785000Y-10315000D01*
X12885000Y-7585000D02*
X12915000Y-7615000D01*
X12915000Y-7585000D02*
X12885000Y-7615000D01*
X12885000Y-8985000D02*
X12915000Y-9015000D01*
X12915000Y-8985000D02*
X12885000Y-9015000D01*
X12885000Y-9285000D02*
X12915000Y-9315000D01*
X12915000Y-9285000D02*
X12885000Y-9315000D01*
X12885000Y-10185000D02*
X12915000Y-10215000D01*
X12915000Y-10185000D02*
X12885000Y-10215000D01*
X12985000Y-9385000D02*
X13015000Y-9415000D01*
X13015000Y-9385000D02*
X12985000Y-9415000D01*
X12985000Y-10285000D02*
X13015000Y-10315000D01*
X13015000Y-10285000D02*
X12985000Y-10315000D01*
X13025000Y-9885000D02*
X13055000Y-9915000D01*
X13055000Y-9885000D02*
X13025000Y-9915000D01*
X13085000Y-7585000D02*
X13115000Y-7615000D01*
X13115000Y-7585000D02*
X13085000Y-7615000D01*
X13085000Y-7985000D02*
X13115000Y-8015000D01*
X13115000Y-7985000D02*
X13085000Y-8015000D01*
X13085000Y-9985000D02*
X13115000Y-10015000D01*
X13115000Y-9985000D02*
X13085000Y-10015000D01*
X13185000Y-9885000D02*
X13215000Y-9915000D01*
X13215000Y-9885000D02*
X13185000Y-9915000D01*
X13260000Y-9285000D02*
X13290000Y-9315000D01*
X13290000Y-9285000D02*
X13260000Y-9315000D01*
X13285000Y-7585000D02*
X13315000Y-7615000D01*
X13315000Y-7585000D02*
X13285000Y-7615000D01*
X13285000Y-7985000D02*
X13315000Y-8015000D01*
X13315000Y-7985000D02*
X13285000Y-8015000D01*
X13360500Y-9680500D02*
X13390500Y-9710500D01*
X13390500Y-9680500D02*
X13360500Y-9710500D01*
X13365000Y-8990500D02*
X13395000Y-9020500D01*
X13395000Y-8990500D02*
X13365000Y-9020500D01*
X13385000Y-8785000D02*
X13415000Y-8815000D01*
X13415000Y-8785000D02*
X13385000Y-8815000D01*
X13485000Y-7585000D02*
X13515000Y-7615000D01*
X13515000Y-7585000D02*
X13485000Y-7615000D01*
X13485000Y-7785000D02*
X13515000Y-7815000D01*
X13515000Y-7785000D02*
X13485000Y-7815000D01*
X13785000Y-10185000D02*
X13815000Y-10215000D01*
X13815000Y-10185000D02*
X13785000Y-10215000D01*
X13985000Y-10185000D02*
X14015000Y-10215000D01*
X14015000Y-10185000D02*
X13985000Y-10215000D01*
X14185000Y-10185000D02*
X14215000Y-10215000D01*
X14215000Y-10185000D02*
X14185000Y-10215000D01*
X14385000Y-10185000D02*
X14415000Y-10215000D01*
X14415000Y-10185000D02*
X14385000Y-10215000D01*
X14585000Y-10185000D02*
X14615000Y-10215000D01*
X14615000Y-10185000D02*
X14585000Y-10215000D01*
X14785000Y-10185000D02*
X14815000Y-10215000D01*
X14815000Y-10185000D02*
X14785000Y-10215000D01*
X14985000Y-10185000D02*
X15015000Y-10215000D01*
X15015000Y-10185000D02*
X14985000Y-10215000D01*
X15185000Y-10185000D02*
X15215000Y-10215000D01*
X15215000Y-10185000D02*
X15185000Y-10215000D01*
X15285000Y-10085000D02*
X15315000Y-10115000D01*
X15315000Y-10085000D02*
X15285000Y-10115000D01*
X15385000Y-9385000D02*
X15415000Y-9415000D01*
X15415000Y-9385000D02*
X15385000Y-9415000D01*
X15385000Y-9585000D02*
X15415000Y-9615000D01*
X15415000Y-9585000D02*
X15385000Y-9615000D01*
X15385000Y-10185000D02*
X15415000Y-10215000D01*
X15415000Y-10185000D02*
X15385000Y-10215000D01*
X15485000Y-10085000D02*
X15515000Y-10115000D01*
X15515000Y-10085000D02*
X15485000Y-10115000D01*
X15585000Y-10185000D02*
X15615000Y-10215000D01*
X15615000Y-10185000D02*
X15585000Y-10215000D01*
X15685000Y-10085000D02*
X15715000Y-10115000D01*
X15715000Y-10085000D02*
X15685000Y-10115000D01*
X15785000Y-10185000D02*
X15815000Y-10215000D01*
X15815000Y-10185000D02*
X15785000Y-10215000D01*
X15885000Y-10085000D02*
X15915000Y-10115000D01*
X15915000Y-10085000D02*
X15885000Y-10115000D01*
X16085000Y-10285000D02*
X16115000Y-10315000D01*
X16115000Y-10285000D02*
X16085000Y-10315000D01*
X16185000Y-8735000D02*
X16215000Y-8765000D01*
X16215000Y-8735000D02*
X16185000Y-8765000D01*
X16185000Y-8860000D02*
X16215000Y-8890000D01*
X16215000Y-8860000D02*
X16185000Y-8890000D01*
X16185000Y-10185000D02*
X16215000Y-10215000D01*
X16215000Y-10185000D02*
X16185000Y-10215000D01*
X16285000Y-9685000D02*
X16315000Y-9715000D01*
X16315000Y-9685000D02*
X16285000Y-9715000D01*
X16285000Y-9885000D02*
X16315000Y-9915000D01*
X16315000Y-9885000D02*
X16285000Y-9915000D01*
X16285000Y-10085000D02*
X16315000Y-10115000D01*
X16315000Y-10085000D02*
X16285000Y-10115000D01*
X16285000Y-10285000D02*
X16315000Y-10315000D01*
X16315000Y-10285000D02*
X16285000Y-10315000D01*
X16485000Y-9485000D02*
X16515000Y-9515000D01*
X16515000Y-9485000D02*
X16485000Y-9515000D01*
X16585000Y-9585000D02*
X16615000Y-9615000D01*
X16615000Y-9585000D02*
X16585000Y-9615000D01*
D13*
X14670000Y-8300000D02*
G75*
G03*
X14670000Y-8300000I-20000J0D01*
G01*
X14670000Y-8400000D02*
G75*
G03*
X14670000Y-8400000I-20000J0D01*
G01*
X14820000Y-8300000D02*
G75*
G03*
X14820000Y-8300000I-20000J0D01*
G01*
X14820000Y-8400000D02*
G75*
G03*
X14820000Y-8400000I-20000J0D01*
G01*
X14870000Y-9350000D02*
G75*
G03*
X14870000Y-9350000I-20000J0D01*
G01*
X15120000Y-9350000D02*
G75*
G03*
X15120000Y-9350000I-20000J0D01*
G01*
X15820000Y-8150000D02*
G75*
G03*
X15820000Y-8150000I-20000J0D01*
G01*
X16370000Y-8750000D02*
G75*
G03*
X16370000Y-8750000I-20000J0D01*
G01*
X16370000Y-8900000D02*
G75*
G03*
X16370000Y-8900000I-20000J0D01*
G01*
X16520000Y-8750000D02*
G75*
G03*
X16520000Y-8750000I-20000J0D01*
G01*
X16520000Y-8900000D02*
G75*
G03*
X16520000Y-8900000I-20000J0D01*
G01*
X13732000Y-9304000D02*
X13732000Y-9344000D01*
X13712000Y-9324000D02*
X13752000Y-9324000D01*
X13732000Y-9434000D02*
X13732000Y-9474000D01*
X13712000Y-9454000D02*
X13752000Y-9454000D01*
X13832000Y-9239000D02*
X13832000Y-9279000D01*
X13812000Y-9259000D02*
X13852000Y-9259000D01*
X13832000Y-9369000D02*
X13832000Y-9409000D01*
X13812000Y-9389000D02*
X13852000Y-9389000D01*
X13832000Y-9499000D02*
X13832000Y-9539000D01*
X13812000Y-9519000D02*
X13852000Y-9519000D01*
D14*
X12385356Y-8794356D02*
X12385356Y-8723644D01*
X12314644Y-8723644D01*
X12314644Y-8794356D01*
X12385356Y-8794356D01*
X12385356Y-9048356D02*
X12385356Y-8977644D01*
X12314644Y-8977644D01*
X12314644Y-9048356D01*
X12385356Y-9048356D01*
X12385356Y-9302356D02*
X12385356Y-9231644D01*
X12314644Y-9231644D01*
X12314644Y-9302356D01*
X12385356Y-9302356D01*
X12385356Y-9556356D02*
X12385356Y-9485644D01*
X12314644Y-9485644D01*
X12314644Y-9556356D01*
X12385356Y-9556356D01*
X12385356Y-9810356D02*
X12385356Y-9739644D01*
X12314644Y-9739644D01*
X12314644Y-9810356D01*
X12385356Y-9810356D01*
X12385356Y-10064356D02*
X12385356Y-9993644D01*
X12314644Y-9993644D01*
X12314644Y-10064356D01*
X12385356Y-10064356D01*
X14191356Y-8725356D02*
X14191356Y-8654644D01*
X14120644Y-8654644D01*
X14120644Y-8725356D01*
X14191356Y-8725356D01*
X14445356Y-8725356D02*
X14445356Y-8654644D01*
X14374644Y-8654644D01*
X14374644Y-8725356D01*
X14445356Y-8725356D01*
X16507856Y-8062856D02*
X16507856Y-7992144D01*
X16437144Y-7992144D01*
X16437144Y-8062856D01*
X16507856Y-8062856D01*
X16507856Y-8316856D02*
X16507856Y-8246144D01*
X16437144Y-8246144D01*
X16437144Y-8316856D01*
X16507856Y-8316856D01*
X16507856Y-8570856D02*
X16507856Y-8500144D01*
X16437144Y-8500144D01*
X16437144Y-8570856D01*
X16507856Y-8570856D01*
X16761856Y-8062856D02*
X16761856Y-7992144D01*
X16691144Y-7992144D01*
X16691144Y-8062856D01*
X16761856Y-8062856D01*
X16761856Y-8316856D02*
X16761856Y-8246144D01*
X16691144Y-8246144D01*
X16691144Y-8316856D01*
X16761856Y-8316856D01*
X16761856Y-8570856D02*
X16761856Y-8500144D01*
X16691144Y-8500144D01*
X16691144Y-8570856D01*
X16761856Y-8570856D01*
D15*
X13810000Y-9101230D02*
X13879730Y-9031500D01*
X13810000Y-8961770D01*
X13740270Y-9031500D01*
X13810000Y-9101230D01*
X13810000Y-9816230D02*
X13879730Y-9746500D01*
X13810000Y-9676770D01*
X13740270Y-9746500D01*
X13810000Y-9816230D01*
D11*
X11925714Y-10712381D02*
X11925714Y-10512381D01*
X11973333Y-10512381D01*
X12001904Y-10521905D01*
X12020952Y-10540953D01*
X12030476Y-10560000D01*
X12040000Y-10598095D01*
X12040000Y-10626667D01*
X12030476Y-10664762D01*
X12020952Y-10683810D01*
X12001904Y-10702857D01*
X11973333Y-10712381D01*
X11925714Y-10712381D01*
X12125714Y-10712381D02*
X12125714Y-10579048D01*
X12125714Y-10617143D02*
X12135238Y-10598095D01*
X12144762Y-10588572D01*
X12163809Y-10579048D01*
X12182857Y-10579048D01*
X12249523Y-10712381D02*
X12249523Y-10579048D01*
X12249523Y-10512381D02*
X12240000Y-10521905D01*
X12249523Y-10531429D01*
X12259047Y-10521905D01*
X12249523Y-10512381D01*
X12249523Y-10531429D01*
X12373333Y-10712381D02*
X12354285Y-10702857D01*
X12344762Y-10683810D01*
X12344762Y-10512381D01*
X12478095Y-10712381D02*
X12459047Y-10702857D01*
X12449523Y-10683810D01*
X12449523Y-10512381D01*
X12706666Y-10712381D02*
X12706666Y-10512381D01*
X12773333Y-10655238D01*
X12840000Y-10512381D01*
X12840000Y-10712381D01*
X13020952Y-10712381D02*
X13020952Y-10607619D01*
X13011428Y-10588572D01*
X12992381Y-10579048D01*
X12954285Y-10579048D01*
X12935238Y-10588572D01*
X13020952Y-10702857D02*
X13001904Y-10712381D01*
X12954285Y-10712381D01*
X12935238Y-10702857D01*
X12925714Y-10683810D01*
X12925714Y-10664762D01*
X12935238Y-10645715D01*
X12954285Y-10636191D01*
X13001904Y-10636191D01*
X13020952Y-10626667D01*
X13116190Y-10579048D02*
X13116190Y-10779048D01*
X13116190Y-10588572D02*
X13135238Y-10579048D01*
X13173333Y-10579048D01*
X13192381Y-10588572D01*
X13201904Y-10598095D01*
X13211428Y-10617143D01*
X13211428Y-10674286D01*
X13201904Y-10693334D01*
X13192381Y-10702857D01*
X13173333Y-10712381D01*
X13135238Y-10712381D01*
X13116190Y-10702857D01*
X13297143Y-10693334D02*
X13306666Y-10702857D01*
X13297143Y-10712381D01*
X13287619Y-10702857D01*
X13297143Y-10693334D01*
X13297143Y-10712381D01*
X13297143Y-10588572D02*
X13306666Y-10598095D01*
X13297143Y-10607619D01*
X13287619Y-10598095D01*
X13297143Y-10588572D01*
X13297143Y-10607619D01*
D12*
X11638095Y-11026905D02*
X11668095Y-11056905D01*
X11668095Y-11026905D02*
X11638095Y-11056905D01*
D11*
X11963809Y-10932381D02*
X11982857Y-10932381D01*
X12001904Y-10941905D01*
X12011428Y-10951429D01*
X12020952Y-10970476D01*
X12030476Y-11008572D01*
X12030476Y-11056191D01*
X12020952Y-11094286D01*
X12011428Y-11113334D01*
X12001904Y-11122857D01*
X11982857Y-11132381D01*
X11963809Y-11132381D01*
X11944762Y-11122857D01*
X11935238Y-11113334D01*
X11925714Y-11094286D01*
X11916190Y-11056191D01*
X11916190Y-11008572D01*
X11925714Y-10970476D01*
X11935238Y-10951429D01*
X11944762Y-10941905D01*
X11963809Y-10932381D01*
X12116190Y-11113334D02*
X12125714Y-11122857D01*
X12116190Y-11132381D01*
X12106666Y-11122857D01*
X12116190Y-11113334D01*
X12116190Y-11132381D01*
X12192381Y-10932381D02*
X12316190Y-10932381D01*
X12249523Y-11008572D01*
X12278095Y-11008572D01*
X12297143Y-11018095D01*
X12306666Y-11027619D01*
X12316190Y-11046667D01*
X12316190Y-11094286D01*
X12306666Y-11113334D01*
X12297143Y-11122857D01*
X12278095Y-11132381D01*
X12220952Y-11132381D01*
X12201904Y-11122857D01*
X12192381Y-11113334D01*
X12440000Y-10932381D02*
X12459047Y-10932381D01*
X12478095Y-10941905D01*
X12487619Y-10951429D01*
X12497143Y-10970476D01*
X12506666Y-11008572D01*
X12506666Y-11056191D01*
X12497143Y-11094286D01*
X12487619Y-11113334D01*
X12478095Y-11122857D01*
X12459047Y-11132381D01*
X12440000Y-11132381D01*
X12420952Y-11122857D01*
X12411428Y-11113334D01*
X12401904Y-11094286D01*
X12392381Y-11056191D01*
X12392381Y-11008572D01*
X12401904Y-10970476D01*
X12411428Y-10951429D01*
X12420952Y-10941905D01*
X12440000Y-10932381D01*
X12630476Y-10932381D02*
X12649523Y-10932381D01*
X12668571Y-10941905D01*
X12678095Y-10951429D01*
X12687619Y-10970476D01*
X12697143Y-11008572D01*
X12697143Y-11056191D01*
X12687619Y-11094286D01*
X12678095Y-11113334D01*
X12668571Y-11122857D01*
X12649523Y-11132381D01*
X12630476Y-11132381D01*
X12611428Y-11122857D01*
X12601904Y-11113334D01*
X12592381Y-11094286D01*
X12582857Y-11056191D01*
X12582857Y-11008572D01*
X12592381Y-10970476D01*
X12601904Y-10951429D01*
X12611428Y-10941905D01*
X12630476Y-10932381D01*
X12782857Y-11132381D02*
X12782857Y-10999048D01*
X12782857Y-11018095D02*
X12792381Y-11008572D01*
X12811428Y-10999048D01*
X12840000Y-10999048D01*
X12859047Y-11008572D01*
X12868571Y-11027619D01*
X12868571Y-11132381D01*
X12868571Y-11027619D02*
X12878095Y-11008572D01*
X12897143Y-10999048D01*
X12925714Y-10999048D01*
X12944762Y-11008572D01*
X12954285Y-11027619D01*
X12954285Y-11132381D01*
X13049523Y-11132381D02*
X13049523Y-10999048D01*
X13049523Y-11018095D02*
X13059047Y-11008572D01*
X13078095Y-10999048D01*
X13106666Y-10999048D01*
X13125714Y-11008572D01*
X13135238Y-11027619D01*
X13135238Y-11132381D01*
X13135238Y-11027619D02*
X13144762Y-11008572D01*
X13163809Y-10999048D01*
X13192381Y-10999048D01*
X13211428Y-11008572D01*
X13220952Y-11027619D01*
X13220952Y-11132381D01*
X13611428Y-10922857D02*
X13440000Y-11180000D01*
X13868571Y-10932381D02*
X13887619Y-10932381D01*
X13906666Y-10941905D01*
X13916190Y-10951429D01*
X13925714Y-10970476D01*
X13935238Y-11008572D01*
X13935238Y-11056191D01*
X13925714Y-11094286D01*
X13916190Y-11113334D01*
X13906666Y-11122857D01*
X13887619Y-11132381D01*
X13868571Y-11132381D01*
X13849523Y-11122857D01*
X13840000Y-11113334D01*
X13830476Y-11094286D01*
X13820952Y-11056191D01*
X13820952Y-11008572D01*
X13830476Y-10970476D01*
X13840000Y-10951429D01*
X13849523Y-10941905D01*
X13868571Y-10932381D01*
X14020952Y-11113334D02*
X14030476Y-11122857D01*
X14020952Y-11132381D01*
X14011428Y-11122857D01*
X14020952Y-11113334D01*
X14020952Y-11132381D01*
X14154285Y-10932381D02*
X14173333Y-10932381D01*
X14192381Y-10941905D01*
X14201904Y-10951429D01*
X14211428Y-10970476D01*
X14220952Y-11008572D01*
X14220952Y-11056191D01*
X14211428Y-11094286D01*
X14201904Y-11113334D01*
X14192381Y-11122857D01*
X14173333Y-11132381D01*
X14154285Y-11132381D01*
X14135238Y-11122857D01*
X14125714Y-11113334D01*
X14116190Y-11094286D01*
X14106666Y-11056191D01*
X14106666Y-11008572D01*
X14116190Y-10970476D01*
X14125714Y-10951429D01*
X14135238Y-10941905D01*
X14154285Y-10932381D01*
X14411428Y-11132381D02*
X14297143Y-11132381D01*
X14354285Y-11132381D02*
X14354285Y-10932381D01*
X14335238Y-10960953D01*
X14316190Y-10980000D01*
X14297143Y-10989524D01*
X14601904Y-11132381D02*
X14487619Y-11132381D01*
X14544762Y-11132381D02*
X14544762Y-10932381D01*
X14525714Y-10960953D01*
X14506666Y-10980000D01*
X14487619Y-10989524D01*
X14716190Y-11018095D02*
X14697143Y-11008572D01*
X14687619Y-10999048D01*
X14678095Y-10980000D01*
X14678095Y-10970476D01*
X14687619Y-10951429D01*
X14697143Y-10941905D01*
X14716190Y-10932381D01*
X14754285Y-10932381D01*
X14773333Y-10941905D01*
X14782857Y-10951429D01*
X14792381Y-10970476D01*
X14792381Y-10980000D01*
X14782857Y-10999048D01*
X14773333Y-11008572D01*
X14754285Y-11018095D01*
X14716190Y-11018095D01*
X14697143Y-11027619D01*
X14687619Y-11037143D01*
X14678095Y-11056191D01*
X14678095Y-11094286D01*
X14687619Y-11113334D01*
X14697143Y-11122857D01*
X14716190Y-11132381D01*
X14754285Y-11132381D01*
X14773333Y-11122857D01*
X14782857Y-11113334D01*
X14792381Y-11094286D01*
X14792381Y-11056191D01*
X14782857Y-11037143D01*
X14773333Y-11027619D01*
X14754285Y-11018095D01*
X14868571Y-10932381D02*
X14868571Y-10970476D01*
X14944762Y-10932381D02*
X14944762Y-10970476D01*
X15240000Y-11208572D02*
X15230476Y-11199048D01*
X15211428Y-11170476D01*
X15201904Y-11151429D01*
X15192381Y-11122857D01*
X15182857Y-11075238D01*
X15182857Y-11037143D01*
X15192381Y-10989524D01*
X15201904Y-10960953D01*
X15211428Y-10941905D01*
X15230476Y-10913334D01*
X15240000Y-10903810D01*
X15420952Y-11132381D02*
X15306666Y-11132381D01*
X15363809Y-11132381D02*
X15363809Y-10932381D01*
X15344762Y-10960953D01*
X15325714Y-10980000D01*
X15306666Y-10989524D01*
X15544762Y-10932381D02*
X15563809Y-10932381D01*
X15582857Y-10941905D01*
X15592381Y-10951429D01*
X15601904Y-10970476D01*
X15611428Y-11008572D01*
X15611428Y-11056191D01*
X15601904Y-11094286D01*
X15592381Y-11113334D01*
X15582857Y-11122857D01*
X15563809Y-11132381D01*
X15544762Y-11132381D01*
X15525714Y-11122857D01*
X15516190Y-11113334D01*
X15506666Y-11094286D01*
X15497143Y-11056191D01*
X15497143Y-11008572D01*
X15506666Y-10970476D01*
X15516190Y-10951429D01*
X15525714Y-10941905D01*
X15544762Y-10932381D01*
X15792381Y-10932381D02*
X15697143Y-10932381D01*
X15687619Y-11027619D01*
X15697143Y-11018095D01*
X15716190Y-11008572D01*
X15763809Y-11008572D01*
X15782857Y-11018095D01*
X15792381Y-11027619D01*
X15801904Y-11046667D01*
X15801904Y-11094286D01*
X15792381Y-11113334D01*
X15782857Y-11122857D01*
X15763809Y-11132381D01*
X15716190Y-11132381D01*
X15697143Y-11122857D01*
X15687619Y-11113334D01*
X16040000Y-11132381D02*
X16040000Y-10932381D01*
X16125714Y-11132381D02*
X16125714Y-11027619D01*
X16116190Y-11008572D01*
X16097143Y-10999048D01*
X16068571Y-10999048D01*
X16049523Y-11008572D01*
X16040000Y-11018095D01*
X16249523Y-11132381D02*
X16230476Y-11122857D01*
X16220952Y-11113334D01*
X16211428Y-11094286D01*
X16211428Y-11037143D01*
X16220952Y-11018095D01*
X16230476Y-11008572D01*
X16249523Y-10999048D01*
X16278095Y-10999048D01*
X16297143Y-11008572D01*
X16306666Y-11018095D01*
X16316190Y-11037143D01*
X16316190Y-11094286D01*
X16306666Y-11113334D01*
X16297143Y-11122857D01*
X16278095Y-11132381D01*
X16249523Y-11132381D01*
X16430476Y-11132381D02*
X16411428Y-11122857D01*
X16401904Y-11103810D01*
X16401904Y-10932381D01*
X16582857Y-11122857D02*
X16563809Y-11132381D01*
X16525714Y-11132381D01*
X16506666Y-11122857D01*
X16497143Y-11103810D01*
X16497143Y-11027619D01*
X16506666Y-11008572D01*
X16525714Y-10999048D01*
X16563809Y-10999048D01*
X16582857Y-11008572D01*
X16592381Y-11027619D01*
X16592381Y-11046667D01*
X16497143Y-11065715D01*
X16668571Y-11122857D02*
X16687619Y-11132381D01*
X16725714Y-11132381D01*
X16744762Y-11122857D01*
X16754285Y-11103810D01*
X16754285Y-11094286D01*
X16744762Y-11075238D01*
X16725714Y-11065715D01*
X16697143Y-11065715D01*
X16678095Y-11056191D01*
X16668571Y-11037143D01*
X16668571Y-11027619D01*
X16678095Y-11008572D01*
X16697143Y-10999048D01*
X16725714Y-10999048D01*
X16744762Y-11008572D01*
X16820952Y-11208572D02*
X16830476Y-11199048D01*
X16849524Y-11170476D01*
X16859047Y-11151429D01*
X16868571Y-11122857D01*
X16878095Y-11075238D01*
X16878095Y-11037143D01*
X16868571Y-10989524D01*
X16859047Y-10960953D01*
X16849524Y-10941905D01*
X16830476Y-10913334D01*
X16820952Y-10903810D01*
D13*
X11668095Y-11305905D02*
G75*
G03*
X11668095Y-11305905I-20000J0D01*
G01*
D11*
X11963809Y-11196381D02*
X11982857Y-11196381D01*
X12001904Y-11205905D01*
X12011428Y-11215429D01*
X12020952Y-11234476D01*
X12030476Y-11272572D01*
X12030476Y-11320191D01*
X12020952Y-11358286D01*
X12011428Y-11377333D01*
X12001904Y-11386857D01*
X11982857Y-11396381D01*
X11963809Y-11396381D01*
X11944762Y-11386857D01*
X11935238Y-11377333D01*
X11925714Y-11358286D01*
X11916190Y-11320191D01*
X11916190Y-11272572D01*
X11925714Y-11234476D01*
X11935238Y-11215429D01*
X11944762Y-11205905D01*
X11963809Y-11196381D01*
X12116190Y-11377333D02*
X12125714Y-11386857D01*
X12116190Y-11396381D01*
X12106666Y-11386857D01*
X12116190Y-11377333D01*
X12116190Y-11396381D01*
X12297143Y-11263048D02*
X12297143Y-11396381D01*
X12249523Y-11186857D02*
X12201904Y-11329714D01*
X12325714Y-11329714D01*
X12440000Y-11196381D02*
X12459047Y-11196381D01*
X12478095Y-11205905D01*
X12487619Y-11215429D01*
X12497143Y-11234476D01*
X12506666Y-11272572D01*
X12506666Y-11320191D01*
X12497143Y-11358286D01*
X12487619Y-11377333D01*
X12478095Y-11386857D01*
X12459047Y-11396381D01*
X12440000Y-11396381D01*
X12420952Y-11386857D01*
X12411428Y-11377333D01*
X12401904Y-11358286D01*
X12392381Y-11320191D01*
X12392381Y-11272572D01*
X12401904Y-11234476D01*
X12411428Y-11215429D01*
X12420952Y-11205905D01*
X12440000Y-11196381D01*
X12630476Y-11196381D02*
X12649523Y-11196381D01*
X12668571Y-11205905D01*
X12678095Y-11215429D01*
X12687619Y-11234476D01*
X12697143Y-11272572D01*
X12697143Y-11320191D01*
X12687619Y-11358286D01*
X12678095Y-11377333D01*
X12668571Y-11386857D01*
X12649523Y-11396381D01*
X12630476Y-11396381D01*
X12611428Y-11386857D01*
X12601904Y-11377333D01*
X12592381Y-11358286D01*
X12582857Y-11320191D01*
X12582857Y-11272572D01*
X12592381Y-11234476D01*
X12601904Y-11215429D01*
X12611428Y-11205905D01*
X12630476Y-11196381D01*
X12782857Y-11396381D02*
X12782857Y-11263048D01*
X12782857Y-11282095D02*
X12792381Y-11272572D01*
X12811428Y-11263048D01*
X12840000Y-11263048D01*
X12859047Y-11272572D01*
X12868571Y-11291619D01*
X12868571Y-11396381D01*
X12868571Y-11291619D02*
X12878095Y-11272572D01*
X12897143Y-11263048D01*
X12925714Y-11263048D01*
X12944762Y-11272572D01*
X12954285Y-11291619D01*
X12954285Y-11396381D01*
X13049523Y-11396381D02*
X13049523Y-11263048D01*
X13049523Y-11282095D02*
X13059047Y-11272572D01*
X13078095Y-11263048D01*
X13106666Y-11263048D01*
X13125714Y-11272572D01*
X13135238Y-11291619D01*
X13135238Y-11396381D01*
X13135238Y-11291619D02*
X13144762Y-11272572D01*
X13163809Y-11263048D01*
X13192381Y-11263048D01*
X13211428Y-11272572D01*
X13220952Y-11291619D01*
X13220952Y-11396381D01*
X13611428Y-11186857D02*
X13440000Y-11444000D01*
X13868571Y-11196381D02*
X13887619Y-11196381D01*
X13906666Y-11205905D01*
X13916190Y-11215429D01*
X13925714Y-11234476D01*
X13935238Y-11272572D01*
X13935238Y-11320191D01*
X13925714Y-11358286D01*
X13916190Y-11377333D01*
X13906666Y-11386857D01*
X13887619Y-11396381D01*
X13868571Y-11396381D01*
X13849523Y-11386857D01*
X13840000Y-11377333D01*
X13830476Y-11358286D01*
X13820952Y-11320191D01*
X13820952Y-11272572D01*
X13830476Y-11234476D01*
X13840000Y-11215429D01*
X13849523Y-11205905D01*
X13868571Y-11196381D01*
X14020952Y-11377333D02*
X14030476Y-11386857D01*
X14020952Y-11396381D01*
X14011428Y-11386857D01*
X14020952Y-11377333D01*
X14020952Y-11396381D01*
X14154285Y-11196381D02*
X14173333Y-11196381D01*
X14192381Y-11205905D01*
X14201904Y-11215429D01*
X14211428Y-11234476D01*
X14220952Y-11272572D01*
X14220952Y-11320191D01*
X14211428Y-11358286D01*
X14201904Y-11377333D01*
X14192381Y-11386857D01*
X14173333Y-11396381D01*
X14154285Y-11396381D01*
X14135238Y-11386857D01*
X14125714Y-11377333D01*
X14116190Y-11358286D01*
X14106666Y-11320191D01*
X14106666Y-11272572D01*
X14116190Y-11234476D01*
X14125714Y-11215429D01*
X14135238Y-11205905D01*
X14154285Y-11196381D01*
X14411428Y-11396381D02*
X14297143Y-11396381D01*
X14354285Y-11396381D02*
X14354285Y-11196381D01*
X14335238Y-11224953D01*
X14316190Y-11244000D01*
X14297143Y-11253524D01*
X14592381Y-11196381D02*
X14497143Y-11196381D01*
X14487619Y-11291619D01*
X14497143Y-11282095D01*
X14516190Y-11272572D01*
X14563809Y-11272572D01*
X14582857Y-11282095D01*
X14592381Y-11291619D01*
X14601904Y-11310667D01*
X14601904Y-11358286D01*
X14592381Y-11377333D01*
X14582857Y-11386857D01*
X14563809Y-11396381D01*
X14516190Y-11396381D01*
X14497143Y-11386857D01*
X14487619Y-11377333D01*
X14668571Y-11196381D02*
X14801904Y-11196381D01*
X14716190Y-11396381D01*
X14868571Y-11196381D02*
X14868571Y-11234476D01*
X14944762Y-11196381D02*
X14944762Y-11234476D01*
X15240000Y-11472572D02*
X15230476Y-11463048D01*
X15211428Y-11434476D01*
X15201904Y-11415429D01*
X15192381Y-11386857D01*
X15182857Y-11339238D01*
X15182857Y-11301143D01*
X15192381Y-11253524D01*
X15201904Y-11224953D01*
X15211428Y-11205905D01*
X15230476Y-11177334D01*
X15240000Y-11167810D01*
X15420952Y-11396381D02*
X15306666Y-11396381D01*
X15363809Y-11396381D02*
X15363809Y-11196381D01*
X15344762Y-11224953D01*
X15325714Y-11244000D01*
X15306666Y-11253524D01*
X15611428Y-11396381D02*
X15497143Y-11396381D01*
X15554285Y-11396381D02*
X15554285Y-11196381D01*
X15535238Y-11224953D01*
X15516190Y-11244000D01*
X15497143Y-11253524D01*
X15849523Y-11396381D02*
X15849523Y-11196381D01*
X15935238Y-11396381D02*
X15935238Y-11291619D01*
X15925714Y-11272572D01*
X15906666Y-11263048D01*
X15878095Y-11263048D01*
X15859047Y-11272572D01*
X15849523Y-11282095D01*
X16059047Y-11396381D02*
X16040000Y-11386857D01*
X16030476Y-11377333D01*
X16020952Y-11358286D01*
X16020952Y-11301143D01*
X16030476Y-11282095D01*
X16040000Y-11272572D01*
X16059047Y-11263048D01*
X16087619Y-11263048D01*
X16106666Y-11272572D01*
X16116190Y-11282095D01*
X16125714Y-11301143D01*
X16125714Y-11358286D01*
X16116190Y-11377333D01*
X16106666Y-11386857D01*
X16087619Y-11396381D01*
X16059047Y-11396381D01*
X16240000Y-11396381D02*
X16220952Y-11386857D01*
X16211428Y-11367810D01*
X16211428Y-11196381D01*
X16392381Y-11386857D02*
X16373333Y-11396381D01*
X16335238Y-11396381D01*
X16316190Y-11386857D01*
X16306666Y-11367810D01*
X16306666Y-11291619D01*
X16316190Y-11272572D01*
X16335238Y-11263048D01*
X16373333Y-11263048D01*
X16392381Y-11272572D01*
X16401904Y-11291619D01*
X16401904Y-11310667D01*
X16306666Y-11329714D01*
X16478095Y-11386857D02*
X16497143Y-11396381D01*
X16535238Y-11396381D01*
X16554285Y-11386857D01*
X16563809Y-11367810D01*
X16563809Y-11358286D01*
X16554285Y-11339238D01*
X16535238Y-11329714D01*
X16506666Y-11329714D01*
X16487619Y-11320191D01*
X16478095Y-11301143D01*
X16478095Y-11291619D01*
X16487619Y-11272572D01*
X16506666Y-11263048D01*
X16535238Y-11263048D01*
X16554285Y-11272572D01*
X16630476Y-11472572D02*
X16640000Y-11463048D01*
X16659047Y-11434476D01*
X16668571Y-11415429D01*
X16678095Y-11386857D01*
X16687619Y-11339238D01*
X16687619Y-11301143D01*
X16678095Y-11253524D01*
X16668571Y-11224953D01*
X16659047Y-11205905D01*
X16640000Y-11177334D01*
X16630476Y-11167810D01*
D13*
X11648095Y-11549905D02*
X11648095Y-11589905D01*
X11628095Y-11569905D02*
X11668095Y-11569905D01*
D11*
X11963809Y-11460381D02*
X11982857Y-11460381D01*
X12001904Y-11469905D01*
X12011428Y-11479429D01*
X12020952Y-11498476D01*
X12030476Y-11536572D01*
X12030476Y-11584191D01*
X12020952Y-11622286D01*
X12011428Y-11641333D01*
X12001904Y-11650857D01*
X11982857Y-11660381D01*
X11963809Y-11660381D01*
X11944762Y-11650857D01*
X11935238Y-11641333D01*
X11925714Y-11622286D01*
X11916190Y-11584191D01*
X11916190Y-11536572D01*
X11925714Y-11498476D01*
X11935238Y-11479429D01*
X11944762Y-11469905D01*
X11963809Y-11460381D01*
X12116190Y-11641333D02*
X12125714Y-11650857D01*
X12116190Y-11660381D01*
X12106666Y-11650857D01*
X12116190Y-11641333D01*
X12116190Y-11660381D01*
X12297143Y-11527048D02*
X12297143Y-11660381D01*
X12249523Y-11450857D02*
X12201904Y-11593714D01*
X12325714Y-11593714D01*
X12440000Y-11460381D02*
X12459047Y-11460381D01*
X12478095Y-11469905D01*
X12487619Y-11479429D01*
X12497143Y-11498476D01*
X12506666Y-11536572D01*
X12506666Y-11584191D01*
X12497143Y-11622286D01*
X12487619Y-11641333D01*
X12478095Y-11650857D01*
X12459047Y-11660381D01*
X12440000Y-11660381D01*
X12420952Y-11650857D01*
X12411428Y-11641333D01*
X12401904Y-11622286D01*
X12392381Y-11584191D01*
X12392381Y-11536572D01*
X12401904Y-11498476D01*
X12411428Y-11479429D01*
X12420952Y-11469905D01*
X12440000Y-11460381D01*
X12630476Y-11460381D02*
X12649523Y-11460381D01*
X12668571Y-11469905D01*
X12678095Y-11479429D01*
X12687619Y-11498476D01*
X12697143Y-11536572D01*
X12697143Y-11584191D01*
X12687619Y-11622286D01*
X12678095Y-11641333D01*
X12668571Y-11650857D01*
X12649523Y-11660381D01*
X12630476Y-11660381D01*
X12611428Y-11650857D01*
X12601904Y-11641333D01*
X12592381Y-11622286D01*
X12582857Y-11584191D01*
X12582857Y-11536572D01*
X12592381Y-11498476D01*
X12601904Y-11479429D01*
X12611428Y-11469905D01*
X12630476Y-11460381D01*
X12782857Y-11660381D02*
X12782857Y-11527048D01*
X12782857Y-11546095D02*
X12792381Y-11536572D01*
X12811428Y-11527048D01*
X12840000Y-11527048D01*
X12859047Y-11536572D01*
X12868571Y-11555619D01*
X12868571Y-11660381D01*
X12868571Y-11555619D02*
X12878095Y-11536572D01*
X12897143Y-11527048D01*
X12925714Y-11527048D01*
X12944762Y-11536572D01*
X12954285Y-11555619D01*
X12954285Y-11660381D01*
X13049523Y-11660381D02*
X13049523Y-11527048D01*
X13049523Y-11546095D02*
X13059047Y-11536572D01*
X13078095Y-11527048D01*
X13106666Y-11527048D01*
X13125714Y-11536572D01*
X13135238Y-11555619D01*
X13135238Y-11660381D01*
X13135238Y-11555619D02*
X13144762Y-11536572D01*
X13163809Y-11527048D01*
X13192381Y-11527048D01*
X13211428Y-11536572D01*
X13220952Y-11555619D01*
X13220952Y-11660381D01*
X13611428Y-11450857D02*
X13440000Y-11708000D01*
X13868571Y-11460381D02*
X13887619Y-11460381D01*
X13906666Y-11469905D01*
X13916190Y-11479429D01*
X13925714Y-11498476D01*
X13935238Y-11536572D01*
X13935238Y-11584191D01*
X13925714Y-11622286D01*
X13916190Y-11641333D01*
X13906666Y-11650857D01*
X13887619Y-11660381D01*
X13868571Y-11660381D01*
X13849523Y-11650857D01*
X13840000Y-11641333D01*
X13830476Y-11622286D01*
X13820952Y-11584191D01*
X13820952Y-11536572D01*
X13830476Y-11498476D01*
X13840000Y-11479429D01*
X13849523Y-11469905D01*
X13868571Y-11460381D01*
X14020952Y-11641333D02*
X14030476Y-11650857D01*
X14020952Y-11660381D01*
X14011428Y-11650857D01*
X14020952Y-11641333D01*
X14020952Y-11660381D01*
X14154285Y-11460381D02*
X14173333Y-11460381D01*
X14192381Y-11469905D01*
X14201904Y-11479429D01*
X14211428Y-11498476D01*
X14220952Y-11536572D01*
X14220952Y-11584191D01*
X14211428Y-11622286D01*
X14201904Y-11641333D01*
X14192381Y-11650857D01*
X14173333Y-11660381D01*
X14154285Y-11660381D01*
X14135238Y-11650857D01*
X14125714Y-11641333D01*
X14116190Y-11622286D01*
X14106666Y-11584191D01*
X14106666Y-11536572D01*
X14116190Y-11498476D01*
X14125714Y-11479429D01*
X14135238Y-11469905D01*
X14154285Y-11460381D01*
X14411428Y-11660381D02*
X14297143Y-11660381D01*
X14354285Y-11660381D02*
X14354285Y-11460381D01*
X14335238Y-11488953D01*
X14316190Y-11508000D01*
X14297143Y-11517524D01*
X14592381Y-11460381D02*
X14497143Y-11460381D01*
X14487619Y-11555619D01*
X14497143Y-11546095D01*
X14516190Y-11536572D01*
X14563809Y-11536572D01*
X14582857Y-11546095D01*
X14592381Y-11555619D01*
X14601904Y-11574667D01*
X14601904Y-11622286D01*
X14592381Y-11641333D01*
X14582857Y-11650857D01*
X14563809Y-11660381D01*
X14516190Y-11660381D01*
X14497143Y-11650857D01*
X14487619Y-11641333D01*
X14668571Y-11460381D02*
X14801904Y-11460381D01*
X14716190Y-11660381D01*
X14868571Y-11460381D02*
X14868571Y-11498476D01*
X14944762Y-11460381D02*
X14944762Y-11498476D01*
X15240000Y-11736572D02*
X15230476Y-11727048D01*
X15211428Y-11698476D01*
X15201904Y-11679429D01*
X15192381Y-11650857D01*
X15182857Y-11603238D01*
X15182857Y-11565143D01*
X15192381Y-11517524D01*
X15201904Y-11488953D01*
X15211428Y-11469905D01*
X15230476Y-11441333D01*
X15240000Y-11431810D01*
X15411428Y-11460381D02*
X15316190Y-11460381D01*
X15306666Y-11555619D01*
X15316190Y-11546095D01*
X15335238Y-11536572D01*
X15382857Y-11536572D01*
X15401904Y-11546095D01*
X15411428Y-11555619D01*
X15420952Y-11574667D01*
X15420952Y-11622286D01*
X15411428Y-11641333D01*
X15401904Y-11650857D01*
X15382857Y-11660381D01*
X15335238Y-11660381D01*
X15316190Y-11650857D01*
X15306666Y-11641333D01*
X15659047Y-11660381D02*
X15659047Y-11460381D01*
X15744762Y-11660381D02*
X15744762Y-11555619D01*
X15735238Y-11536572D01*
X15716190Y-11527048D01*
X15687619Y-11527048D01*
X15668571Y-11536572D01*
X15659047Y-11546095D01*
X15868571Y-11660381D02*
X15849523Y-11650857D01*
X15840000Y-11641333D01*
X15830476Y-11622286D01*
X15830476Y-11565143D01*
X15840000Y-11546095D01*
X15849523Y-11536572D01*
X15868571Y-11527048D01*
X15897143Y-11527048D01*
X15916190Y-11536572D01*
X15925714Y-11546095D01*
X15935238Y-11565143D01*
X15935238Y-11622286D01*
X15925714Y-11641333D01*
X15916190Y-11650857D01*
X15897143Y-11660381D01*
X15868571Y-11660381D01*
X16049523Y-11660381D02*
X16030476Y-11650857D01*
X16020952Y-11631810D01*
X16020952Y-11460381D01*
X16201904Y-11650857D02*
X16182857Y-11660381D01*
X16144762Y-11660381D01*
X16125714Y-11650857D01*
X16116190Y-11631810D01*
X16116190Y-11555619D01*
X16125714Y-11536572D01*
X16144762Y-11527048D01*
X16182857Y-11527048D01*
X16201904Y-11536572D01*
X16211428Y-11555619D01*
X16211428Y-11574667D01*
X16116190Y-11593714D01*
X16287619Y-11650857D02*
X16306666Y-11660381D01*
X16344762Y-11660381D01*
X16363809Y-11650857D01*
X16373333Y-11631810D01*
X16373333Y-11622286D01*
X16363809Y-11603238D01*
X16344762Y-11593714D01*
X16316190Y-11593714D01*
X16297143Y-11584191D01*
X16287619Y-11565143D01*
X16287619Y-11555619D01*
X16297143Y-11536572D01*
X16316190Y-11527048D01*
X16344762Y-11527048D01*
X16363809Y-11536572D01*
X16440000Y-11736572D02*
X16449523Y-11727048D01*
X16468571Y-11698476D01*
X16478095Y-11679429D01*
X16487619Y-11650857D01*
X16497143Y-11603238D01*
X16497143Y-11565143D01*
X16487619Y-11517524D01*
X16478095Y-11488953D01*
X16468571Y-11469905D01*
X16449523Y-11441333D01*
X16440000Y-11431810D01*
D14*
X11653451Y-11869261D02*
X11653451Y-11798549D01*
X11582739Y-11798549D01*
X11582739Y-11869261D01*
X11653451Y-11869261D01*
D11*
X12030476Y-11924381D02*
X11916190Y-11924381D01*
X11973333Y-11924381D02*
X11973333Y-11724381D01*
X11954285Y-11752953D01*
X11935238Y-11772000D01*
X11916190Y-11781524D01*
X12116190Y-11905333D02*
X12125714Y-11914857D01*
X12116190Y-11924381D01*
X12106666Y-11914857D01*
X12116190Y-11905333D01*
X12116190Y-11924381D01*
X12249523Y-11724381D02*
X12268571Y-11724381D01*
X12287619Y-11733905D01*
X12297143Y-11743429D01*
X12306666Y-11762476D01*
X12316190Y-11800572D01*
X12316190Y-11848191D01*
X12306666Y-11886286D01*
X12297143Y-11905333D01*
X12287619Y-11914857D01*
X12268571Y-11924381D01*
X12249523Y-11924381D01*
X12230476Y-11914857D01*
X12220952Y-11905333D01*
X12211428Y-11886286D01*
X12201904Y-11848191D01*
X12201904Y-11800572D01*
X12211428Y-11762476D01*
X12220952Y-11743429D01*
X12230476Y-11733905D01*
X12249523Y-11724381D01*
X12440000Y-11724381D02*
X12459047Y-11724381D01*
X12478095Y-11733905D01*
X12487619Y-11743429D01*
X12497143Y-11762476D01*
X12506666Y-11800572D01*
X12506666Y-11848191D01*
X12497143Y-11886286D01*
X12487619Y-11905333D01*
X12478095Y-11914857D01*
X12459047Y-11924381D01*
X12440000Y-11924381D01*
X12420952Y-11914857D01*
X12411428Y-11905333D01*
X12401904Y-11886286D01*
X12392381Y-11848191D01*
X12392381Y-11800572D01*
X12401904Y-11762476D01*
X12411428Y-11743429D01*
X12420952Y-11733905D01*
X12440000Y-11724381D01*
X12630476Y-11724381D02*
X12649523Y-11724381D01*
X12668571Y-11733905D01*
X12678095Y-11743429D01*
X12687619Y-11762476D01*
X12697143Y-11800572D01*
X12697143Y-11848191D01*
X12687619Y-11886286D01*
X12678095Y-11905333D01*
X12668571Y-11914857D01*
X12649523Y-11924381D01*
X12630476Y-11924381D01*
X12611428Y-11914857D01*
X12601904Y-11905333D01*
X12592381Y-11886286D01*
X12582857Y-11848191D01*
X12582857Y-11800572D01*
X12592381Y-11762476D01*
X12601904Y-11743429D01*
X12611428Y-11733905D01*
X12630476Y-11724381D01*
X12782857Y-11924381D02*
X12782857Y-11791048D01*
X12782857Y-11810095D02*
X12792381Y-11800572D01*
X12811428Y-11791048D01*
X12840000Y-11791048D01*
X12859047Y-11800572D01*
X12868571Y-11819619D01*
X12868571Y-11924381D01*
X12868571Y-11819619D02*
X12878095Y-11800572D01*
X12897143Y-11791048D01*
X12925714Y-11791048D01*
X12944762Y-11800572D01*
X12954285Y-11819619D01*
X12954285Y-11924381D01*
X13049523Y-11924381D02*
X13049523Y-11791048D01*
X13049523Y-11810095D02*
X13059047Y-11800572D01*
X13078095Y-11791048D01*
X13106666Y-11791048D01*
X13125714Y-11800572D01*
X13135238Y-11819619D01*
X13135238Y-11924381D01*
X13135238Y-11819619D02*
X13144762Y-11800572D01*
X13163809Y-11791048D01*
X13192381Y-11791048D01*
X13211428Y-11800572D01*
X13220952Y-11819619D01*
X13220952Y-11924381D01*
X13611428Y-11714857D02*
X13440000Y-11972000D01*
X13868571Y-11724381D02*
X13887619Y-11724381D01*
X13906666Y-11733905D01*
X13916190Y-11743429D01*
X13925714Y-11762476D01*
X13935238Y-11800572D01*
X13935238Y-11848191D01*
X13925714Y-11886286D01*
X13916190Y-11905333D01*
X13906666Y-11914857D01*
X13887619Y-11924381D01*
X13868571Y-11924381D01*
X13849523Y-11914857D01*
X13840000Y-11905333D01*
X13830476Y-11886286D01*
X13820952Y-11848191D01*
X13820952Y-11800572D01*
X13830476Y-11762476D01*
X13840000Y-11743429D01*
X13849523Y-11733905D01*
X13868571Y-11724381D01*
X14020952Y-11905333D02*
X14030476Y-11914857D01*
X14020952Y-11924381D01*
X14011428Y-11914857D01*
X14020952Y-11905333D01*
X14020952Y-11924381D01*
X14154285Y-11724381D02*
X14173333Y-11724381D01*
X14192381Y-11733905D01*
X14201904Y-11743429D01*
X14211428Y-11762476D01*
X14220952Y-11800572D01*
X14220952Y-11848191D01*
X14211428Y-11886286D01*
X14201904Y-11905333D01*
X14192381Y-11914857D01*
X14173333Y-11924381D01*
X14154285Y-11924381D01*
X14135238Y-11914857D01*
X14125714Y-11905333D01*
X14116190Y-11886286D01*
X14106666Y-11848191D01*
X14106666Y-11800572D01*
X14116190Y-11762476D01*
X14125714Y-11743429D01*
X14135238Y-11733905D01*
X14154285Y-11724381D01*
X14287619Y-11724381D02*
X14411428Y-11724381D01*
X14344762Y-11800572D01*
X14373333Y-11800572D01*
X14392381Y-11810095D01*
X14401904Y-11819619D01*
X14411428Y-11838667D01*
X14411428Y-11886286D01*
X14401904Y-11905333D01*
X14392381Y-11914857D01*
X14373333Y-11924381D01*
X14316190Y-11924381D01*
X14297143Y-11914857D01*
X14287619Y-11905333D01*
X14506666Y-11924381D02*
X14544762Y-11924381D01*
X14563809Y-11914857D01*
X14573333Y-11905333D01*
X14592381Y-11876762D01*
X14601904Y-11838667D01*
X14601904Y-11762476D01*
X14592381Y-11743429D01*
X14582857Y-11733905D01*
X14563809Y-11724381D01*
X14525714Y-11724381D01*
X14506666Y-11733905D01*
X14497143Y-11743429D01*
X14487619Y-11762476D01*
X14487619Y-11810095D01*
X14497143Y-11829143D01*
X14506666Y-11838667D01*
X14525714Y-11848191D01*
X14563809Y-11848191D01*
X14582857Y-11838667D01*
X14592381Y-11829143D01*
X14601904Y-11810095D01*
X14773333Y-11791048D02*
X14773333Y-11924381D01*
X14725714Y-11714857D02*
X14678095Y-11857714D01*
X14801904Y-11857714D01*
X14868571Y-11724381D02*
X14868571Y-11762476D01*
X14944762Y-11724381D02*
X14944762Y-11762476D01*
X15240000Y-12000572D02*
X15230476Y-11991048D01*
X15211428Y-11962476D01*
X15201904Y-11943429D01*
X15192381Y-11914857D01*
X15182857Y-11867238D01*
X15182857Y-11829143D01*
X15192381Y-11781524D01*
X15201904Y-11752953D01*
X15211428Y-11733905D01*
X15230476Y-11705333D01*
X15240000Y-11695810D01*
X15420952Y-11924381D02*
X15306666Y-11924381D01*
X15363809Y-11924381D02*
X15363809Y-11724381D01*
X15344762Y-11752953D01*
X15325714Y-11772000D01*
X15306666Y-11781524D01*
X15592381Y-11791048D02*
X15592381Y-11924381D01*
X15544762Y-11714857D02*
X15497143Y-11857714D01*
X15620952Y-11857714D01*
X15849523Y-11924381D02*
X15849523Y-11724381D01*
X15935238Y-11924381D02*
X15935238Y-11819619D01*
X15925714Y-11800572D01*
X15906666Y-11791048D01*
X15878095Y-11791048D01*
X15859047Y-11800572D01*
X15849523Y-11810095D01*
X16059047Y-11924381D02*
X16040000Y-11914857D01*
X16030476Y-11905333D01*
X16020952Y-11886286D01*
X16020952Y-11829143D01*
X16030476Y-11810095D01*
X16040000Y-11800572D01*
X16059047Y-11791048D01*
X16087619Y-11791048D01*
X16106666Y-11800572D01*
X16116190Y-11810095D01*
X16125714Y-11829143D01*
X16125714Y-11886286D01*
X16116190Y-11905333D01*
X16106666Y-11914857D01*
X16087619Y-11924381D01*
X16059047Y-11924381D01*
X16240000Y-11924381D02*
X16220952Y-11914857D01*
X16211428Y-11895810D01*
X16211428Y-11724381D01*
X16392381Y-11914857D02*
X16373333Y-11924381D01*
X16335238Y-11924381D01*
X16316190Y-11914857D01*
X16306666Y-11895810D01*
X16306666Y-11819619D01*
X16316190Y-11800572D01*
X16335238Y-11791048D01*
X16373333Y-11791048D01*
X16392381Y-11800572D01*
X16401904Y-11819619D01*
X16401904Y-11838667D01*
X16306666Y-11857714D01*
X16478095Y-11914857D02*
X16497143Y-11924381D01*
X16535238Y-11924381D01*
X16554285Y-11914857D01*
X16563809Y-11895810D01*
X16563809Y-11886286D01*
X16554285Y-11867238D01*
X16535238Y-11857714D01*
X16506666Y-11857714D01*
X16487619Y-11848191D01*
X16478095Y-11829143D01*
X16478095Y-11819619D01*
X16487619Y-11800572D01*
X16506666Y-11791048D01*
X16535238Y-11791048D01*
X16554285Y-11800572D01*
X16630476Y-12000572D02*
X16640000Y-11991048D01*
X16659047Y-11962476D01*
X16668571Y-11943429D01*
X16678095Y-11914857D01*
X16687619Y-11867238D01*
X16687619Y-11829143D01*
X16678095Y-11781524D01*
X16668571Y-11752953D01*
X16659047Y-11733905D01*
X16640000Y-11705333D01*
X16630476Y-11695810D01*
D15*
X11598365Y-12167635D02*
X11668095Y-12097905D01*
X11598365Y-12028175D01*
X11528635Y-12097905D01*
X11598365Y-12167635D01*
D11*
X12030476Y-12188381D02*
X11916190Y-12188381D01*
X11973333Y-12188381D02*
X11973333Y-11988381D01*
X11954285Y-12016953D01*
X11935238Y-12036000D01*
X11916190Y-12045524D01*
X12116190Y-12169333D02*
X12125714Y-12178857D01*
X12116190Y-12188381D01*
X12106666Y-12178857D01*
X12116190Y-12169333D01*
X12116190Y-12188381D01*
X12192381Y-11988381D02*
X12316190Y-11988381D01*
X12249523Y-12064572D01*
X12278095Y-12064572D01*
X12297143Y-12074095D01*
X12306666Y-12083619D01*
X12316190Y-12102667D01*
X12316190Y-12150286D01*
X12306666Y-12169333D01*
X12297143Y-12178857D01*
X12278095Y-12188381D01*
X12220952Y-12188381D01*
X12201904Y-12178857D01*
X12192381Y-12169333D01*
X12411428Y-12188381D02*
X12449523Y-12188381D01*
X12468571Y-12178857D01*
X12478095Y-12169333D01*
X12497143Y-12140762D01*
X12506666Y-12102667D01*
X12506666Y-12026476D01*
X12497143Y-12007429D01*
X12487619Y-11997905D01*
X12468571Y-11988381D01*
X12430476Y-11988381D01*
X12411428Y-11997905D01*
X12401904Y-12007429D01*
X12392381Y-12026476D01*
X12392381Y-12074095D01*
X12401904Y-12093143D01*
X12411428Y-12102667D01*
X12430476Y-12112191D01*
X12468571Y-12112191D01*
X12487619Y-12102667D01*
X12497143Y-12093143D01*
X12506666Y-12074095D01*
X12687619Y-11988381D02*
X12592381Y-11988381D01*
X12582857Y-12083619D01*
X12592381Y-12074095D01*
X12611428Y-12064572D01*
X12659047Y-12064572D01*
X12678095Y-12074095D01*
X12687619Y-12083619D01*
X12697143Y-12102667D01*
X12697143Y-12150286D01*
X12687619Y-12169333D01*
X12678095Y-12178857D01*
X12659047Y-12188381D01*
X12611428Y-12188381D01*
X12592381Y-12178857D01*
X12582857Y-12169333D01*
X12782857Y-12188381D02*
X12782857Y-12055048D01*
X12782857Y-12074095D02*
X12792381Y-12064572D01*
X12811428Y-12055048D01*
X12840000Y-12055048D01*
X12859047Y-12064572D01*
X12868571Y-12083619D01*
X12868571Y-12188381D01*
X12868571Y-12083619D02*
X12878095Y-12064572D01*
X12897143Y-12055048D01*
X12925714Y-12055048D01*
X12944762Y-12064572D01*
X12954285Y-12083619D01*
X12954285Y-12188381D01*
X13049523Y-12188381D02*
X13049523Y-12055048D01*
X13049523Y-12074095D02*
X13059047Y-12064572D01*
X13078095Y-12055048D01*
X13106666Y-12055048D01*
X13125714Y-12064572D01*
X13135238Y-12083619D01*
X13135238Y-12188381D01*
X13135238Y-12083619D02*
X13144762Y-12064572D01*
X13163809Y-12055048D01*
X13192381Y-12055048D01*
X13211428Y-12064572D01*
X13220952Y-12083619D01*
X13220952Y-12188381D01*
X13611428Y-11978857D02*
X13440000Y-12236000D01*
X13868571Y-11988381D02*
X13887619Y-11988381D01*
X13906666Y-11997905D01*
X13916190Y-12007429D01*
X13925714Y-12026476D01*
X13935238Y-12064572D01*
X13935238Y-12112191D01*
X13925714Y-12150286D01*
X13916190Y-12169333D01*
X13906666Y-12178857D01*
X13887619Y-12188381D01*
X13868571Y-12188381D01*
X13849523Y-12178857D01*
X13840000Y-12169333D01*
X13830476Y-12150286D01*
X13820952Y-12112191D01*
X13820952Y-12064572D01*
X13830476Y-12026476D01*
X13840000Y-12007429D01*
X13849523Y-11997905D01*
X13868571Y-11988381D01*
X14020952Y-12169333D02*
X14030476Y-12178857D01*
X14020952Y-12188381D01*
X14011428Y-12178857D01*
X14020952Y-12169333D01*
X14020952Y-12188381D01*
X14154285Y-11988381D02*
X14173333Y-11988381D01*
X14192381Y-11997905D01*
X14201904Y-12007429D01*
X14211428Y-12026476D01*
X14220952Y-12064572D01*
X14220952Y-12112191D01*
X14211428Y-12150286D01*
X14201904Y-12169333D01*
X14192381Y-12178857D01*
X14173333Y-12188381D01*
X14154285Y-12188381D01*
X14135238Y-12178857D01*
X14125714Y-12169333D01*
X14116190Y-12150286D01*
X14106666Y-12112191D01*
X14106666Y-12064572D01*
X14116190Y-12026476D01*
X14125714Y-12007429D01*
X14135238Y-11997905D01*
X14154285Y-11988381D01*
X14401904Y-11988381D02*
X14306666Y-11988381D01*
X14297143Y-12083619D01*
X14306666Y-12074095D01*
X14325714Y-12064572D01*
X14373333Y-12064572D01*
X14392381Y-12074095D01*
X14401904Y-12083619D01*
X14411428Y-12102667D01*
X14411428Y-12150286D01*
X14401904Y-12169333D01*
X14392381Y-12178857D01*
X14373333Y-12188381D01*
X14325714Y-12188381D01*
X14306666Y-12178857D01*
X14297143Y-12169333D01*
X14582857Y-12055048D02*
X14582857Y-12188381D01*
X14535238Y-11978857D02*
X14487619Y-12121714D01*
X14611428Y-12121714D01*
X14697143Y-12188381D02*
X14735238Y-12188381D01*
X14754285Y-12178857D01*
X14763809Y-12169333D01*
X14782857Y-12140762D01*
X14792381Y-12102667D01*
X14792381Y-12026476D01*
X14782857Y-12007429D01*
X14773333Y-11997905D01*
X14754285Y-11988381D01*
X14716190Y-11988381D01*
X14697143Y-11997905D01*
X14687619Y-12007429D01*
X14678095Y-12026476D01*
X14678095Y-12074095D01*
X14687619Y-12093143D01*
X14697143Y-12102667D01*
X14716190Y-12112191D01*
X14754285Y-12112191D01*
X14773333Y-12102667D01*
X14782857Y-12093143D01*
X14792381Y-12074095D01*
X14868571Y-11988381D02*
X14868571Y-12026476D01*
X14944762Y-11988381D02*
X14944762Y-12026476D01*
X15240000Y-12264572D02*
X15230476Y-12255048D01*
X15211428Y-12226476D01*
X15201904Y-12207429D01*
X15192381Y-12178857D01*
X15182857Y-12131238D01*
X15182857Y-12093143D01*
X15192381Y-12045524D01*
X15201904Y-12016953D01*
X15211428Y-11997905D01*
X15230476Y-11969333D01*
X15240000Y-11959810D01*
X15306666Y-12007429D02*
X15316190Y-11997905D01*
X15335238Y-11988381D01*
X15382857Y-11988381D01*
X15401904Y-11997905D01*
X15411428Y-12007429D01*
X15420952Y-12026476D01*
X15420952Y-12045524D01*
X15411428Y-12074095D01*
X15297143Y-12188381D01*
X15420952Y-12188381D01*
X15659047Y-12188381D02*
X15659047Y-11988381D01*
X15744762Y-12188381D02*
X15744762Y-12083619D01*
X15735238Y-12064572D01*
X15716190Y-12055048D01*
X15687619Y-12055048D01*
X15668571Y-12064572D01*
X15659047Y-12074095D01*
X15868571Y-12188381D02*
X15849523Y-12178857D01*
X15840000Y-12169333D01*
X15830476Y-12150286D01*
X15830476Y-12093143D01*
X15840000Y-12074095D01*
X15849523Y-12064572D01*
X15868571Y-12055048D01*
X15897143Y-12055048D01*
X15916190Y-12064572D01*
X15925714Y-12074095D01*
X15935238Y-12093143D01*
X15935238Y-12150286D01*
X15925714Y-12169333D01*
X15916190Y-12178857D01*
X15897143Y-12188381D01*
X15868571Y-12188381D01*
X16049523Y-12188381D02*
X16030476Y-12178857D01*
X16020952Y-12159810D01*
X16020952Y-11988381D01*
X16201904Y-12178857D02*
X16182857Y-12188381D01*
X16144762Y-12188381D01*
X16125714Y-12178857D01*
X16116190Y-12159810D01*
X16116190Y-12083619D01*
X16125714Y-12064572D01*
X16144762Y-12055048D01*
X16182857Y-12055048D01*
X16201904Y-12064572D01*
X16211428Y-12083619D01*
X16211428Y-12102667D01*
X16116190Y-12121714D01*
X16287619Y-12178857D02*
X16306666Y-12188381D01*
X16344762Y-12188381D01*
X16363809Y-12178857D01*
X16373333Y-12159810D01*
X16373333Y-12150286D01*
X16363809Y-12131238D01*
X16344762Y-12121714D01*
X16316190Y-12121714D01*
X16297143Y-12112191D01*
X16287619Y-12093143D01*
X16287619Y-12083619D01*
X16297143Y-12064572D01*
X16316190Y-12055048D01*
X16344762Y-12055048D01*
X16363809Y-12064572D01*
X16440000Y-12264572D02*
X16449523Y-12255048D01*
X16468571Y-12226476D01*
X16478095Y-12207429D01*
X16487619Y-12178857D01*
X16497143Y-12131238D01*
X16497143Y-12093143D01*
X16487619Y-12045524D01*
X16478095Y-12016953D01*
X16468571Y-11997905D01*
X16449523Y-11969333D01*
X16440000Y-11959810D01*
M02*
